if (_typeface_js && _typeface_js.loadFace) _typeface_js.loadFace({"glyphs":{"0":{"ha":694,"x_min":96,"x_max":678,"o":"m 486 726 q 626 663 575 726 q 678 489 678 599 q 583 188 678 343 q 446 40 526 93 q 281 -14 365 -14 q 147 50 199 -14 q 96 215 96 114 q 183 514 96 368 q 486 726 311 726 m 476 610 q 305 479 392 614 q 218 208 218 344 q 239 129 218 160 q 294 99 260 99 q 443 192 369 99 q 519 338 488 247 q 551 496 551 428 q 476 610 551 606 z "},"1":{"ha":694,"x_min":181,"x_max":667,"o":"m 276 372 l 290 490 q 504 638 410 539 q 529 697 518 678 q 604 740 556 740 q 667 679 667 740 q 613 582 667 632 q 488 283 536 386 q 333 -11 439 181 l 181 -11 q 215 46 196 13 q 312 213 282 154 q 410 426 342 271 q 276 372 344 396 z "},"2":{"ha":694,"x_min":1,"x_max":667,"o":"m 667 139 l 635 7 q 535 -14 589 -14 q 301 57 443 -14 q 126 -18 201 -18 q 36 13 71 -18 q 1 92 1 43 q 39 179 1 146 q 138 213 76 213 q 286 176 204 213 q 442 368 371 261 q 529 565 529 500 q 471 621 529 621 q 274 458 382 621 l 182 514 q 320 685 251 635 q 483 736 389 736 q 610 695 563 736 q 657 586 657 654 q 587 373 657 493 q 396 139 517 253 l 406 135 q 517 110 472 110 q 651 135 557 110 l 667 139 m 206 106 q 143 124 161 124 q 94 97 94 124 q 128 71 94 71 q 206 106 158 71 z "},"3":{"ha":694,"x_min":79,"x_max":675,"o":"m 313 499 l 231 556 q 367 695 303 654 q 511 736 431 736 q 631 696 586 736 q 675 588 675 656 q 542 389 675 472 q 597 264 597 328 q 493 60 597 149 q 281 -14 407 -14 q 79 179 79 -14 q 83 236 79 194 l 199 236 q 196 192 196 192 q 285 100 196 100 q 408 147 354 100 q 463 254 463 193 q 435 325 463 290 q 350 308 383 308 q 288 326 313 308 q 264 369 264 343 q 298 428 264 406 q 383 451 332 451 q 435 444 406 451 q 539 576 539 507 q 488 622 539 622 q 417 600 449 622 q 313 499 386 578 z "},"4":{"ha":694,"x_min":35,"x_max":667,"o":"m 661 278 l 613 163 q 543 161 582 161 q 468 163 501 161 q 460 142 464 153 q 410 18 444 103 l 397 -12 q 383 -49 397 -12 l 254 -49 q 340 169 307 114 q 207 183 279 174 q 90 107 144 107 q 51 124 68 107 q 35 165 35 142 q 135 278 35 232 q 250 478 189 347 q 347 728 311 608 l 489 728 l 474 693 l 386 496 q 276 293 336 382 q 400 281 325 286 q 535 550 447 385 q 621 624 574 624 q 653 612 639 624 q 667 586 667 600 q 644 529 667 572 q 558 356 629 499 q 519 278 549 336 q 588 275 578 275 q 661 278 594 275 z "},"5":{"ha":694,"x_min":85,"x_max":707,"o":"m 217 460 l 306 665 q 337 714 321 701 q 388 726 353 726 l 707 726 l 671 607 l 451 607 q 412 601 419 607 q 388 561 404 594 l 365 515 q 443 522 418 522 q 571 470 518 522 q 624 344 624 418 q 503 97 624 208 q 236 -14 383 -14 q 94 75 124 -14 q 85 165 85 104 l 199 182 q 253 104 201 104 q 422 192 335 104 q 492 332 492 261 q 414 401 492 401 q 297 360 360 401 q 206 297 257 297 q 165 316 183 297 q 147 357 147 335 q 217 460 147 424 z "},"6":{"ha":694,"x_min":100,"x_max":640,"o":"m 592 801 q 624 775 611 799 q 640 733 640 743 q 592 683 640 717 q 293 372 393 547 q 226 189 226 256 q 251 129 226 154 q 308 104 275 104 q 443 181 372 104 q 514 328 514 258 q 478 369 514 369 q 433 347 463 369 q 385 331 411 331 q 340 376 340 331 q 389 451 340 417 q 497 485 438 485 q 639 331 639 485 q 536 91 639 196 q 303 -14 433 -14 q 158 42 217 -14 q 100 181 100 97 q 250 528 100 340 q 410 688 301 592 q 592 801 544 808 z "},"7":{"ha":694,"x_min":174,"x_max":768,"o":"m 249 657 l 263 699 q 274 728 271 722 q 289 740 276 733 q 364 758 318 758 q 386 736 386 758 l 386 725 q 457 731 432 731 q 579 719 471 731 q 647 717 607 717 q 726 725 692 717 q 750 728 746 728 q 768 707 768 728 q 743 665 768 692 q 492 228 661 579 q 369 -10 400 38 q 307 -58 338 -58 q 256 -37 283 -58 q 229 1 229 -17 q 279 96 229 21 q 344 214 304 132 q 560 604 468 463 q 444 613 493 613 q 347 596 396 613 q 335 571 342 586 q 281 485 304 508 q 224 461 257 461 q 188 478 203 461 q 174 522 174 496 q 249 657 174 578 z "},"8":{"ha":694,"x_min":75,"x_max":688,"o":"m 688 604 l 688 472 l 490 351 q 560 204 560 292 q 482 49 560 111 q 288 -14 404 -14 q 135 28 194 -14 q 75 136 75 71 q 110 231 75 188 q 235 331 146 274 l 296 369 q 219 526 219 444 q 350 697 219 636 q 575 740 442 740 q 653 728 631 740 q 675 686 675 717 q 601 636 675 638 q 417 605 492 635 q 342 532 342 575 q 408 439 342 486 l 688 604 m 379 285 l 272 218 q 203 146 203 175 q 289 103 203 103 q 388 130 346 103 q 431 194 431 157 q 379 285 431 244 z "},"9":{"ha":694,"x_min":115,"x_max":688,"o":"m 471 622 q 333 549 399 622 q 268 396 268 476 q 306 353 268 353 q 353 372 325 353 q 399 392 382 392 q 442 344 442 392 q 392 269 442 306 q 288 232 342 232 q 181 275 222 232 q 140 388 140 318 q 243 632 140 525 q 478 739 346 739 q 629 679 571 739 q 688 524 688 619 q 365 6 688 300 q 181 -128 219 -128 q 140 -106 161 -128 q 115 -61 115 -79 q 134 -33 115 -50 q 272 83 153 -15 q 477 315 392 182 q 563 535 563 449 q 535 597 563 571 q 471 622 508 622 z "}," ":{"ha":417,"x_min":0,"x_max":0,"o":""},"!":{"ha":349,"x_min":19,"x_max":421,"o":"m 101 244 l 281 813 l 421 813 l 193 244 l 101 244 m 118 171 q 193 93 193 171 q 165 20 193 50 q 96 -10 136 -10 q 19 71 19 -10 q 48 142 19 114 q 118 171 76 171 z "},"\"":{"ha":478,"x_min":199,"x_max":586,"o":"m 283 554 l 199 554 l 250 926 l 378 926 l 283 554 m 493 554 l 408 554 l 460 926 l 586 926 l 493 554 z "},"#":{"ha":550,"x_min":111,"x_max":653,"o":"m 590 269 l 590 167 l 496 167 l 442 0 l 338 0 l 392 167 l 269 167 l 215 0 l 111 0 l 165 167 l 115 167 l 115 269 l 200 269 l 239 392 l 171 392 l 171 494 l 272 494 l 324 649 l 426 649 l 376 494 l 499 494 l 549 649 l 653 649 l 603 494 l 643 494 l 643 392 l 569 392 l 531 269 l 590 269 m 465 392 l 343 392 l 303 269 l 426 269 l 465 392 z "},"$":{"ha":694,"x_min":119,"x_max":667,"o":"m 611 783 l 564 665 q 667 540 667 638 q 603 476 667 476 q 564 494 576 476 q 547 537 558 503 q 482 571 535 571 q 428 553 450 571 q 406 508 406 535 q 417 469 406 488 q 496 372 429 451 q 563 217 563 293 q 498 76 563 135 q 343 17 433 17 l 325 17 l 264 -131 l 153 -131 l 218 39 q 119 197 119 86 q 189 271 119 271 q 242 222 242 271 l 242 213 q 240 192 240 201 q 266 149 240 167 q 328 132 292 132 q 402 153 374 132 q 431 208 431 174 q 419 258 431 239 q 343 350 407 276 q 279 499 279 424 q 349 639 279 586 q 454 678 388 669 l 503 783 l 611 783 z "},"%":{"ha":1085,"x_min":83,"x_max":1018,"o":"m 253 -158 l 201 -83 l 704 660 q 469 550 596 583 q 392 335 458 417 q 229 254 326 254 q 122 300 161 254 q 83 425 83 346 q 162 633 83 544 q 346 722 240 722 q 469 617 444 722 q 771 786 626 676 l 813 703 l 253 -158 m 383 560 q 356 596 356 575 q 365 625 356 606 q 325 644 342 644 q 224 580 276 644 q 172 431 172 515 q 239 339 172 339 q 335 405 292 339 q 383 560 378 471 m 871 467 q 981 421 938 467 q 1018 301 1018 382 q 981 157 1018 231 q 890 41 944 83 q 765 -1 835 -1 q 615 163 615 -1 q 692 376 615 285 q 871 467 768 467 m 853 382 q 751 313 793 382 q 706 164 706 236 q 722 106 706 129 q 765 83 739 83 q 869 154 822 83 q 917 310 917 225 q 853 382 917 382 z "},"&":{"ha":626,"x_min":-4,"x_max":599,"o":"m 454 338 l 569 338 q 465 171 536 260 q 592 0 497 126 l 447 0 q 389 90 418 49 q 255 3 301 25 q 151 -18 208 -18 q 40 22 85 -18 q -4 119 -4 61 q 147 332 -4 235 q 157 340 156 336 q 153 349 157 344 q 113 475 113 397 q 192 639 113 558 q 449 742 293 742 q 599 636 599 742 q 571 569 599 599 q 482 496 561 560 q 389 401 428 453 l 294 454 q 453 607 343 531 q 469 628 469 618 q 446 642 469 642 q 313 597 378 642 q 250 534 276 572 q 224 465 224 496 q 256 389 224 436 q 274 339 274 363 q 214 253 274 301 q 113 133 113 171 q 161 99 113 99 q 331 183 218 99 q 286 264 310 219 l 372 324 l 406 264 q 454 338 435 300 z "},"'":{"ha":268,"x_min":199,"x_max":378,"o":"m 283 554 l 199 554 l 250 926 l 378 926 l 283 554 z "},"(":{"ha":432,"x_min":85,"x_max":632,"o":"m 228 -139 l 113 -139 q 85 131 85 -18 q 256 735 85 433 q 497 1065 349 899 l 632 1065 q 454 850 492 903 q 363 699 413 794 q 203 113 203 393 q 228 -139 203 -33 z "},")":{"ha":432,"x_min":-54,"x_max":493,"o":"m 350 1065 l 465 1065 q 493 796 493 938 q 322 192 493 493 q 81 -139 229 26 l -54 -139 q 125 76 85 22 q 215 228 165 131 q 375 814 375 535 q 350 1065 375 957 z "},"*":{"ha":457,"x_min":194,"x_max":651,"o":"m 311 489 l 235 557 l 363 683 l 194 731 l 235 825 l 392 750 l 392 926 l 496 926 l 460 739 l 626 807 l 651 713 l 475 674 l 581 535 l 496 489 l 411 643 l 311 489 z "},"+":{"ha":694,"x_min":90,"x_max":647,"o":"m 126 413 l 328 413 l 401 614 l 519 614 l 446 413 l 647 413 l 610 313 l 410 313 l 336 111 l 218 111 l 290 313 l 90 313 l 126 413 z "},",":{"ha":336,"x_min":-51,"x_max":250,"o":"m 250 158 l 17 -187 l -51 -187 l 81 158 l 250 158 z "},"-":{"ha":351,"x_min":0,"x_max":351,"o":"m 351 290 l 306 174 l 0 174 l 57 290 l 351 290 z "},".":{"ha":336,"x_min":32,"x_max":206,"o":"m 131 171 q 206 93 206 171 q 177 20 206 50 q 108 -10 149 -10 q 32 71 32 -10 q 60 142 32 114 q 131 171 89 171 z "},"/":{"ha":588,"x_min":79,"x_max":583,"o":"m 583 1065 l 183 -139 l 79 -139 l 471 1065 l 583 1065 z "},":":{"ha":336,"x_min":32,"x_max":310,"o":"m 235 468 q 310 390 310 468 q 282 317 310 346 q 213 288 254 288 q 136 368 136 288 q 165 440 136 411 q 235 468 193 468 m 131 171 q 206 93 206 171 q 177 20 206 50 q 108 -10 149 -10 q 32 71 32 -10 q 60 142 32 114 q 131 171 89 171 z "},";":{"ha":336,"x_min":-51,"x_max":307,"o":"m 250 158 l 17 -187 l -51 -187 l 81 158 l 250 158 m 232 468 q 307 390 307 468 q 278 317 307 347 q 210 288 250 288 q 133 368 133 288 q 162 440 133 411 q 232 468 190 468 z "},"<":{"ha":694,"x_min":83,"x_max":685,"o":"m 685 807 l 685 685 l 214 465 l 685 246 l 685 124 l 83 413 l 83 518 l 685 807 z "},"=":{"ha":694,"x_min":57,"x_max":681,"o":"m 93 321 l 614 321 l 576 221 l 57 221 l 93 321 m 161 506 l 681 506 l 644 406 l 125 406 l 161 506 z "},">":{"ha":694,"x_min":83,"x_max":685,"o":"m 83 124 l 83 247 l 554 467 l 83 685 l 83 807 l 685 518 l 685 413 l 83 124 z "},"?":{"ha":440,"x_min":60,"x_max":515,"o":"m 175 568 l 93 636 q 340 807 193 807 q 467 763 419 807 q 515 647 515 719 q 460 517 515 578 q 346 429 439 493 q 252 344 279 383 q 217 243 225 304 l 128 243 q 286 499 135 375 q 369 578 347 549 q 390 646 390 608 q 331 706 390 706 q 175 568 247 706 m 158 171 q 233 93 233 171 q 205 20 233 50 q 136 -10 176 -10 q 60 71 60 -10 q 88 142 60 114 q 158 171 117 171 z "},"@":{"ha":969,"x_min":111,"x_max":1050,"o":"m 808 697 l 808 600 q 733 607 765 607 q 514 536 607 607 q 440 392 440 481 q 483 328 440 328 q 584 392 525 328 q 683 544 643 457 l 799 544 l 725 374 q 721 360 721 364 q 736 350 721 350 q 857 399 804 350 q 917 490 893 432 q 940 606 940 549 q 856 774 940 707 q 644 842 771 842 q 378 754 496 842 q 228 429 228 643 q 311 178 228 274 q 531 83 394 83 q 907 185 722 83 l 907 82 q 742 11 822 29 q 521 -15 626 -15 q 226 107 342 -15 q 111 419 111 229 q 263 792 111 643 q 643 942 415 942 q 938 847 825 942 q 1050 601 1050 753 q 892 294 1050 394 q 668 217 769 217 q 603 286 607 217 q 468 217 551 217 q 332 301 368 217 q 317 397 317 338 q 404 589 317 500 q 738 701 514 701 q 808 697 758 701 z "},"A":{"ha":818,"x_min":-29,"x_max":881,"o":"m 99 0 l -29 0 q 108 275 4 81 q -17 258 76 272 l 19 375 q 164 393 71 385 q 781 926 496 926 q 881 849 881 926 q 865 763 881 817 l 690 143 q 703 86 703 111 q 681 24 703 47 q 624 0 660 0 q 546 86 546 0 q 558 153 546 114 q 426 249 510 214 q 244 283 342 285 q 99 0 206 218 m 590 281 l 735 772 q 740 794 740 790 q 728 810 740 810 q 665 781 713 810 q 581 721 617 753 q 303 390 435 596 q 590 281 465 375 z "},"B":{"ha":756,"x_min":-18,"x_max":758,"o":"m -18 -17 l 285 678 q 408 872 346 817 q 567 926 469 926 q 714 865 669 926 q 758 707 758 804 q 693 504 758 582 q 532 407 640 442 q 519 397 519 403 q 542 388 519 392 q 658 326 615 372 q 701 215 701 279 q 656 99 701 150 q 533 28 611 49 q 268 0 433 0 l 189 0 l 240 119 l 300 119 q 517 149 436 119 q 569 213 569 168 q 510 272 569 256 q 406 319 436 293 q 376 388 376 344 q 469 499 376 451 q 585 576 557 543 q 632 713 632 633 q 557 808 632 808 q 439 713 481 808 l 122 -17 l -18 -17 z "},"C":{"ha":754,"x_min":90,"x_max":869,"o":"m 626 274 l 735 218 q 626 83 678 126 q 367 -14 511 -14 q 167 58 243 -14 q 90 249 90 131 q 151 489 90 360 q 317 728 213 618 q 683 926 506 926 q 819 884 769 926 q 869 768 869 842 q 824 614 869 694 q 700 469 778 533 q 449 339 608 394 l 481 482 q 664 604 597 533 q 744 753 744 690 q 672 818 744 818 q 371 604 536 818 q 217 263 217 406 q 263 149 217 193 q 379 104 308 104 q 547 168 478 104 q 626 274 583 201 z "},"D":{"ha":957,"x_min":-62,"x_max":907,"o":"m 408 581 l 358 476 q 192 597 250 540 q 96 793 96 690 q 133 890 96 854 q 235 926 171 926 q 453 865 333 926 q 619 761 513 835 l 667 829 l 758 761 l 711 685 q 811 567 778 611 q 907 296 907 439 q 872 147 907 214 q 776 44 838 79 q 539 -10 682 -10 q 303 26 418 -10 q 119 -10 231 -10 q -12 15 39 -10 q -62 79 -62 39 q 94 161 -62 161 q 275 142 172 161 q 385 274 340 197 q 489 515 429 351 q 554 651 513 582 q 381 772 440 742 q 260 810 307 810 q 222 775 222 810 q 288 672 222 739 q 408 581 326 633 m 428 121 q 535 110 496 110 q 712 160 649 110 q 775 303 775 211 q 649 564 775 432 q 596 433 624 511 q 428 121 532 249 z "},"E":{"ha":700,"x_min":67,"x_max":782,"o":"m 597 307 l 736 307 q 551 79 675 172 q 256 -14 426 -14 q 118 28 169 -14 q 67 139 67 69 q 113 271 67 203 q 224 371 160 339 q 256 399 256 386 q 242 432 256 406 q 215 532 215 482 q 344 807 215 688 q 638 926 472 926 q 782 829 782 926 q 725 701 782 783 l 589 507 l 497 586 l 624 760 q 644 797 644 789 q 610 817 644 817 q 434 720 525 817 q 343 533 343 624 q 393 410 343 474 q 413 369 413 385 q 374 324 413 343 q 199 163 199 235 q 278 108 199 108 q 499 196 389 108 q 597 307 547 235 z "},"F":{"ha":842,"x_min":32,"x_max":879,"o":"m 854 325 l 793 213 l 633 213 q 469 -37 533 42 l 306 -37 q 483 213 414 85 l 376 213 l 433 325 l 544 325 q 685 615 624 476 q 747 782 747 754 q 719 807 747 807 q 524 744 639 807 q 310 583 410 682 q 204 461 253 526 q 156 375 156 396 q 175 358 156 358 q 315 454 218 358 q 479 660 411 550 l 526 522 q 153 239 321 239 q 67 273 101 239 q 32 358 32 307 q 253 690 32 489 q 739 926 513 926 q 842 897 804 926 q 879 817 879 868 q 683 325 879 685 l 854 325 z "},"G":{"ha":747,"x_min":99,"x_max":828,"o":"m 606 488 l 606 624 q 701 746 701 682 q 632 808 701 808 q 484 740 563 808 q 338 550 406 671 q 229 210 229 357 q 311 107 229 107 q 569 304 431 107 q 624 421 601 392 q 682 450 647 450 q 742 388 742 450 q 678 258 742 339 q 583 -6 642 133 q 474 -219 524 -144 q 368 -337 396 -337 q 351 -321 350 -337 l 353 -304 q 356 -258 356 -271 q 353 -183 356 -214 q 479 56 443 -50 q 290 -14 392 -14 q 150 47 201 -14 q 99 210 99 107 q 160 481 99 335 q 326 749 222 628 q 647 926 479 926 q 776 878 725 926 q 828 758 828 831 q 733 567 828 658 q 606 488 682 517 z "},"H":{"ha":972,"x_min":-101,"x_max":1079,"o":"m 949 417 l 981 304 q 825 260 926 285 q 756 4 776 108 l 618 4 q 685 236 657 163 q 510 221 624 229 q 372 83 422 124 q 75 -14 254 -14 q -101 115 -101 -14 q 3 257 -101 197 q 179 318 79 300 q 438 336 271 335 q 618 810 581 579 l 747 833 q 693 586 740 732 q 590 347 646 440 q 722 361 649 350 l 832 664 q 978 900 904 840 q 1063 940 1028 940 q 1079 929 1079 940 q 1068 899 1079 924 q 872 393 932 600 l 949 417 m 344 215 q 129 186 207 207 q 26 119 26 158 q 83 92 26 92 q 344 215 215 92 z "},"I":{"ha":561,"x_min":-56,"x_max":622,"o":"m -56 17 l 17 129 q 81 113 56 113 q 214 182 139 113 q 342 353 289 251 q 444 592 394 454 q 494 778 494 731 q 472 801 494 801 q 364 701 424 801 q 288 490 304 601 l 142 411 q 247 738 146 572 q 370 876 300 825 q 508 926 440 926 q 591 893 560 926 q 622 803 622 860 q 567 531 622 689 q 424 236 511 374 q 63 -14 264 -14 q -56 17 0 -14 z "},"J":{"ha":572,"x_min":-69,"x_max":669,"o":"m 313 446 l 178 347 q 176 385 176 367 q 225 611 176 483 q 339 814 274 739 q 550 926 438 926 q 669 813 669 926 q 528 367 669 690 q 321 -75 422 124 q 179 -286 238 -239 q 63 -333 121 -333 q -34 -298 1 -333 q -69 -203 -69 -262 q 111 146 -69 -42 q 376 347 203 240 q 479 599 406 403 l 486 617 q 538 783 538 754 q 515 804 538 804 q 396 688 461 804 q 313 446 346 599 m 289 154 q 215 86 247 122 q 101 -68 150 14 q 53 -187 53 -150 q 74 -212 53 -212 q 101 -197 90 -212 q 272 125 142 -140 q 289 154 275 132 z "},"K":{"ha":697,"x_min":14,"x_max":860,"o":"m 14 0 l 203 404 q 194 419 201 407 q 178 464 178 449 q 213 518 178 492 q 269 553 240 535 l 432 913 l 572 913 l 439 624 q 728 913 619 753 l 860 913 q 691 686 783 775 q 388 461 599 597 q 351 428 351 438 q 413 328 351 415 q 572 128 504 196 q 738 0 639 61 l 518 0 q 290 296 449 65 l 157 0 l 14 0 z "},"L":{"ha":732,"x_min":-112,"x_max":801,"o":"m 689 158 l 646 33 q 351 -4 464 -4 q 151 24 247 -4 q 8 -10 81 -10 q -112 67 -112 -10 q 29 151 -112 151 q 129 143 63 151 q 204 249 174 186 q 295 478 235 311 q 392 720 356 646 q 472 842 428 794 q 651 926 553 926 q 758 887 715 926 q 801 789 801 847 q 669 439 801 676 l 500 401 q 669 771 669 688 q 636 810 669 810 q 547 738 590 810 q 488 619 511 676 q 396 365 465 561 q 271 125 350 235 q 358 119 326 119 q 689 158 461 119 z "},"M":{"ha":954,"x_min":-111,"x_max":1136,"o":"m 56 -14 l -111 -14 q 256 554 68 154 q 413 863 374 807 q 508 918 451 918 q 585 840 585 918 q 576 779 585 818 l 550 654 l 483 329 l 756 668 q 856 780 774 692 q 953 881 938 868 q 1057 926 1006 926 q 1136 871 1136 926 q 1122 817 1136 853 q 1036 647 1118 810 q 856 255 900 378 q 810 25 811 132 l 665 1 q 881 624 660 235 l 679 378 q 482 125 550 221 q 425 49 454 86 q 354 13 396 13 q 299 68 299 13 q 328 226 299 99 l 417 615 l 379 543 l 304 385 q 56 -14 186 135 z "},"N":{"ha":746,"x_min":-74,"x_max":849,"o":"m 83 -36 l -74 -36 q 185 422 79 172 l 356 826 q 467 926 397 926 q 539 880 525 926 q 553 667 553 833 l 553 324 l 621 500 q 814 863 724 767 l 849 703 q 719 418 776 575 l 603 94 q 493 -6 567 -6 q 428 110 428 -6 l 426 688 l 243 260 q 83 -36 188 131 z "},"O":{"ha":824,"x_min":90,"x_max":856,"o":"m 546 450 l 404 389 q 492 639 406 529 q 701 757 583 757 q 813 713 771 757 q 856 597 856 669 q 803 380 856 506 q 679 169 751 254 q 328 -14 521 -14 q 153 52 217 -14 q 90 236 90 118 q 162 509 90 360 q 340 761 233 658 q 512 880 415 833 q 681 926 608 926 q 751 872 751 926 q 735 831 751 849 q 650 800 724 818 q 314 533 453 751 q 219 242 219 386 q 251 138 219 176 q 338 100 283 100 q 512 173 429 100 q 660 374 594 246 q 725 596 725 503 q 686 642 725 642 q 582 564 625 642 q 546 450 557 518 z "},"P":{"ha":667,"x_min":61,"x_max":756,"o":"m 265 313 q 239 125 261 224 q 190 -21 217 26 q 110 -83 156 -83 q 61 -21 61 -83 q 112 216 61 40 q 228 560 163 392 q 386 850 306 760 q 568 940 467 940 q 706 878 657 940 q 756 700 756 815 q 646 338 756 496 q 393 181 536 181 q 328 242 328 181 q 350 290 328 276 q 406 310 360 297 q 583 494 526 343 q 622 701 622 597 q 549 821 622 821 q 417 690 488 821 q 265 313 350 568 z "},"Q":{"ha":750,"x_min":-94,"x_max":806,"o":"m 690 142 l 656 10 q 453 -4 558 -4 q 179 21 294 -4 q 35 -10 89 -10 q -94 65 -94 -10 q -60 132 -94 107 q 33 157 -25 157 q 157 139 90 157 q 514 431 354 251 q 674 721 674 610 q 561 817 674 817 q 324 685 438 817 q 204 476 251 601 l 108 563 q 275 807 182 722 q 571 926 406 926 q 744 873 682 926 q 806 722 806 819 q 642 388 806 590 q 532 265 576 307 q 388 151 494 231 l 349 122 q 439 115 396 115 q 690 142 579 115 z "},"R":{"ha":731,"x_min":107,"x_max":733,"o":"m 726 21 l 610 -58 q 417 189 535 65 q 344 306 344 265 q 399 379 344 343 q 520 467 492 442 q 569 532 549 493 q 604 697 604 599 q 533 808 604 808 q 428 718 471 808 q 344 494 399 657 q 303 372 331 454 q 236 69 289 185 q 146 -19 196 -19 q 107 42 107 -19 q 219 489 107 147 q 369 832 307 756 q 553 926 446 926 q 689 856 644 926 q 733 696 733 786 q 707 531 733 625 q 510 307 671 404 q 500 296 500 301 q 592 194 500 292 q 726 21 683 97 z "},"S":{"ha":761,"x_min":0,"x_max":817,"o":"m 483 550 l 504 672 q 638 722 579 686 q 697 793 697 758 q 661 815 697 815 q 486 760 574 815 q 358 592 358 679 q 421 504 358 543 q 574 432 449 486 q 717 260 717 369 q 678 136 717 196 q 578 46 639 76 q 279 -14 457 -14 q 0 144 0 -14 q 80 274 0 225 q 288 324 160 324 q 388 314 338 324 l 361 199 l 339 199 l 307 200 q 276 201 275 201 q 174 188 214 201 q 133 153 133 174 q 267 113 133 113 q 497 148 411 113 q 582 243 582 183 q 540 307 582 281 q 451 349 524 318 q 308 433 368 385 q 235 576 235 494 q 339 793 235 696 q 669 926 482 926 q 777 894 738 926 q 817 806 817 863 q 703 631 817 710 q 483 550 594 556 z "},"T":{"ha":725,"x_min":79,"x_max":894,"o":"m 479 -28 l 310 -28 q 679 736 479 213 q 274 626 474 703 q 247 608 247 617 q 386 521 247 593 l 296 431 q 138 523 197 472 q 79 617 79 574 q 236 740 79 686 q 724 854 400 797 q 824 926 764 926 q 894 861 894 926 q 831 769 894 811 q 622 249 693 410 q 479 -28 551 89 z "},"U":{"ha":903,"x_min":56,"x_max":1042,"o":"m 200 479 l 56 417 q 153 715 89 596 q 442 926 265 926 q 543 888 504 926 q 582 788 582 850 q 546 654 582 731 l 303 143 l 840 704 l 897 804 l 1042 844 l 851 444 q 731 17 732 194 l 592 -14 q 676 339 599 149 l 390 58 q 249 -10 321 -10 q 161 72 161 -10 q 222 253 161 117 l 428 708 q 446 776 446 749 q 414 808 446 808 q 276 692 343 808 q 200 479 247 642 z "},"V":{"ha":861,"x_min":79,"x_max":999,"o":"m 224 488 l 79 407 q 182 738 99 594 q 461 926 292 926 q 556 900 522 926 q 601 807 601 864 q 546 619 601 739 l 403 313 q 349 149 349 196 q 397 106 349 106 q 503 160 431 106 q 793 576 664 279 q 867 799 840 686 l 999 889 q 801 319 983 617 q 593 74 704 161 q 379 -14 482 -14 q 264 26 307 -14 q 221 133 221 65 q 281 350 221 219 l 431 678 q 464 775 464 750 q 431 807 464 807 q 310 713 371 807 q 224 488 254 626 z "},"W":{"ha":1193,"x_min":69,"x_max":1333,"o":"m 210 494 l 69 414 q 196 769 82 606 q 342 903 257 857 q 444 926 386 926 q 553 893 513 926 q 593 803 593 860 q 547 642 593 740 l 346 208 l 775 694 q 840 749 822 749 q 900 735 872 749 q 928 706 928 721 q 904 635 928 689 l 732 242 q 699 144 699 165 q 735 111 699 111 q 975 331 822 111 q 1110 578 1046 433 q 1204 846 1175 724 l 1333 897 q 1121 331 1311 639 q 876 39 989 118 q 717 -14 801 -14 q 606 22 647 -14 q 565 122 565 58 q 613 283 565 167 l 644 363 l 365 47 q 243 -14 311 -14 q 149 64 149 -14 q 171 136 149 88 l 429 694 q 456 775 456 751 q 426 810 456 810 q 299 713 368 810 q 210 494 247 639 z "},"X":{"ha":683,"x_min":-79,"x_max":888,"o":"m 108 0 l -79 0 q 408 489 138 169 l 408 715 q 406 794 408 783 q 393 806 404 806 q 206 599 339 806 l 153 731 q 426 926 286 926 q 528 874 501 926 q 539 768 539 851 l 539 632 l 667 767 q 888 944 761 867 l 861 793 q 688 626 736 682 l 539 453 q 629 0 542 188 l 474 0 q 408 326 419 132 q 269 157 317 210 q 108 0 221 104 z "},"Y":{"ha":893,"x_min":65,"x_max":979,"o":"m 210 489 l 65 417 q 163 739 78 585 q 440 926 265 926 q 542 897 507 926 q 583 806 583 863 q 525 617 583 746 l 294 108 q 775 571 501 272 l 840 697 q 868 744 860 736 q 893 753 876 753 l 949 753 q 979 725 979 753 q 974 699 979 711 l 693 60 q 525 -256 603 -146 q 425 -333 469 -333 q 371 -293 371 -333 q 400 -226 371 -278 q 569 107 449 -140 l 647 267 q 405 41 474 92 q 272 -10 336 -10 q 197 12 226 -10 q 168 68 168 33 q 233 271 168 122 l 400 650 q 442 743 421 696 q 449 781 449 761 q 418 810 449 810 q 298 723 354 810 q 210 489 242 636 z "},"Z":{"ha":589,"x_min":-101,"x_max":660,"o":"m 164 629 l 206 826 q 474 926 343 926 q 610 881 560 926 q 660 760 660 836 q 582 576 660 663 q 399 419 479 463 q 378 403 378 408 q 390 392 378 394 q 519 221 519 358 q 481 51 519 147 q 378 -129 442 -46 q 60 -314 238 -314 q -55 -271 -8 -314 q -101 -164 -101 -228 q -55 -29 -101 -103 q 69 110 -8 44 q 167 157 126 157 q 219 115 219 157 q 163 36 219 89 q 33 -153 33 -83 q 78 -193 33 -193 q 222 -111 135 -193 q 334 47 285 -53 q 383 214 383 147 q 349 278 383 261 q 274 303 326 289 q 204 378 204 321 q 231 440 204 414 q 335 521 239 449 q 476 652 421 585 q 532 758 532 719 q 469 810 532 810 q 319 760 403 810 q 164 629 236 711 z "},"[":{"ha":432,"x_min":-50,"x_max":592,"o":"m 342 1065 l 592 1065 l 561 972 l 426 972 l 96 -46 l 231 -46 l 200 -139 l -50 -139 l 342 1065 z "},"\\":{"ha":588,"x_min":94,"x_max":567,"o":"m 454 1065 l 567 1065 l 199 -139 l 94 -139 l 454 1065 z "},"]":{"ha":432,"x_min":-4,"x_max":638,"o":"m 246 -139 l -4 -139 l 26 -46 l 161 -46 l 492 972 l 357 972 l 388 1065 l 638 1065 l 246 -139 z "},"^":{"ha":694,"x_min":78,"x_max":692,"o":"m 192 515 l 78 515 l 315 929 l 454 929 l 692 515 l 576 515 l 383 844 l 192 515 z "},"_":{"ha":694,"x_min":38,"x_max":732,"o":"m 38 -96 l 732 -96 l 732 -175 l 38 -175 l 38 -96 z "},"`":{"ha":694,"x_min":261,"x_max":433,"o":"m 390 696 l 433 526 l 351 526 l 261 696 l 390 696 z "},"a":{"ha":557,"x_min":-4,"x_max":560,"o":"m 363 313 l 478 313 l 404 142 q 400 128 400 132 q 410 118 400 118 q 560 224 425 118 l 560 113 l 536 94 q 414 8 451 31 q 338 -14 372 -14 q 282 54 286 -14 q 147 -14 232 -14 q 31 38 65 -14 q -4 158 -4 89 q 113 383 -4 296 q 417 469 231 469 q 488 465 438 469 l 488 368 q 413 375 444 375 q 205 313 290 375 q 119 161 119 250 q 163 97 119 97 q 263 161 204 97 q 363 313 322 225 z "},"b":{"ha":536,"x_min":-3,"x_max":539,"o":"m 143 350 l 331 815 q 383 919 365 900 q 429 938 400 938 q 474 889 474 938 q 388 626 474 808 q 293 444 356 560 l 179 150 q 169 108 169 125 q 197 83 169 83 q 317 171 246 83 q 311 219 311 200 q 333 349 311 282 q 382 439 356 415 q 436 463 408 463 q 485 388 485 463 q 433 193 485 274 q 463 188 451 188 q 539 224 489 188 l 539 113 q 449 82 497 82 q 372 99 417 82 q 275 10 317 35 q 178 -14 233 -14 q 60 106 60 -14 q 65 160 60 125 l -3 110 l -3 221 q 143 350 93 299 z "},"c":{"ha":461,"x_min":-6,"x_max":464,"o":"m 406 274 l 289 274 l 318 332 q 325 356 325 346 q 294 379 325 379 q 215 346 260 379 q 129 178 129 281 q 196 93 129 93 q 464 224 294 93 l 464 113 q 299 13 361 39 q 169 -14 238 -14 q 42 34 89 -14 q -6 164 -6 82 q 57 346 -6 264 q 317 465 147 465 q 450 390 450 465 q 440 350 450 371 l 406 274 z "},"d":{"ha":604,"x_min":-6,"x_max":676,"o":"m 607 224 l 607 113 q 364 -14 449 -14 q 279 51 313 -14 q 133 -18 203 -18 q 32 31 69 -18 q -6 163 -6 81 q 81 367 -6 282 q 283 458 174 458 q 339 451 304 458 q 486 800 410 669 q 625 938 567 938 q 676 818 676 938 q 595 456 676 646 q 389 144 514 265 q 385 119 385 124 q 404 97 385 97 q 607 224 439 97 m 315 363 q 292 367 303 367 q 204 333 249 367 q 124 167 124 274 q 167 97 124 97 q 274 157 210 97 q 315 363 285 263 m 400 310 q 519 533 454 363 q 596 826 583 703 q 415 364 513 721 q 400 310 415 365 z "},"e":{"ha":458,"x_min":-6,"x_max":460,"o":"m 460 224 l 460 113 q 154 -14 296 -14 q 38 34 81 -14 q -6 165 -6 82 q 89 371 -6 288 q 321 464 194 464 q 403 437 371 464 q 435 367 435 410 q 311 197 435 268 q 131 142 250 163 q 197 92 146 92 q 460 224 288 92 m 136 232 q 257 276 203 242 q 311 342 311 310 q 283 368 311 368 q 188 318 239 368 q 136 232 154 285 z "},"f":{"ha":369,"x_min":-51,"x_max":446,"o":"m -1 110 l -1 221 q 154 356 114 311 l 306 810 q 403 944 350 944 q 446 892 446 944 q 378 632 446 817 q 286 421 357 575 l 65 -228 q 58 -253 60 -244 q 68 -262 58 -262 q 148 -140 103 -262 q 203 101 193 -17 q 372 225 246 122 l 372 114 q 286 49 342 89 q 222 -224 282 -114 q 38 -379 138 -379 q -26 -353 -1 -379 q -51 -286 -51 -326 q 0 -89 -51 -240 l 89 174 q -1 110 68 158 z "},"g":{"ha":564,"x_min":-6,"x_max":567,"o":"m 475 314 l 399 104 q 413 115 399 104 q 532 197 493 178 q 567 224 535 199 l 567 113 q 408 -3 454 36 q 297 -112 361 -43 l 239 -251 q 121 -379 185 -379 q 63 -317 63 -379 q 219 -28 63 -214 l 238 21 q 138 -14 188 -14 q 33 35 72 -14 q -6 165 -6 83 q 57 338 -6 260 q 197 440 115 408 q 410 471 279 471 q 483 465 444 471 l 493 367 q 399 378 438 378 q 202 319 281 378 q 124 171 124 260 q 167 101 124 101 q 400 319 275 101 l 475 314 z "},"h":{"ha":651,"x_min":-3,"x_max":653,"o":"m 203 215 l 432 396 q 553 461 515 461 q 607 419 607 461 q 586 349 607 393 l 496 156 q 485 125 485 132 q 492 115 485 115 q 653 224 514 115 l 653 113 q 390 -19 489 -19 q 351 -3 367 -19 q 336 39 336 14 q 358 111 336 60 l 432 283 l 163 56 q 83 -6 103 4 q 51 -14 71 -14 q 13 18 13 -14 q 32 85 13 33 l 57 151 q -3 110 40 140 l -3 221 q 143 349 56 264 l 338 828 q 381 910 363 889 q 428 932 400 932 q 475 868 475 932 q 424 692 475 813 q 299 456 372 572 l 203 215 z "},"i":{"ha":343,"x_min":-3,"x_max":357,"o":"m 46 125 l 56 153 q -3 110 39 142 l -3 221 q 169 390 107 308 l 193 453 l 326 458 l 193 153 q 186 131 186 138 q 192 124 186 124 q 207 129 196 124 q 257 161 208 131 q 344 224 275 172 l 344 113 q 93 -14 190 -14 q 29 43 29 -14 q 46 125 29 78 m 294 606 q 357 540 357 606 q 333 478 357 504 q 275 453 310 453 q 211 521 211 453 q 235 581 211 557 q 294 606 260 606 z "},"j":{"ha":369,"x_min":-83,"x_max":372,"o":"m 339 458 l 200 85 l 372 225 l 372 114 q 350 94 363 104 q 188 -54 251 4 l 151 -87 q 131 -110 146 -93 l 79 -246 q 28 -347 51 -319 q -26 -375 6 -375 q -83 -304 -83 -375 q -50 -173 -83 -246 q 36 -43 -17 -100 l 135 231 q 107 206 115 211 q 35 140 44 147 q -1 110 33 139 l -1 221 q 238 454 108 310 l 339 458 m 306 600 q 369 535 369 600 q 346 473 369 499 q 288 447 322 447 q 224 515 224 447 q 247 576 224 551 q 306 600 271 600 z "},"k":{"ha":644,"x_min":-3,"x_max":647,"o":"m 304 457 l 261 353 q 374 440 326 415 q 479 464 421 464 q 571 435 535 464 q 607 361 607 406 q 547 235 607 296 q 394 146 486 174 q 381 110 381 122 q 396 97 381 97 q 647 224 465 97 l 647 113 q 346 -14 468 -14 q 254 78 254 -14 q 304 222 254 133 q 442 293 400 249 q 469 344 469 324 q 450 363 469 363 q 328 286 413 363 q 250 206 279 243 q 136 43 221 168 q 50 -14 97 -14 q 13 19 13 -14 q 51 150 13 31 l -3 110 l -1 221 q 140 353 72 283 l 335 829 q 380 916 361 894 q 426 938 399 938 q 465 922 450 938 q 481 882 481 906 q 428 706 481 832 q 304 457 375 579 z "},"l":{"ha":340,"x_min":-3,"x_max":414,"o":"m 342 224 l 342 113 q 301 81 315 93 q 215 14 238 28 q 115 -14 168 -14 q 39 42 39 -14 q 49 104 39 71 l 65 161 q -3 110 49 147 l -3 221 q 132 350 79 285 l 286 817 q 375 933 325 933 q 414 871 414 933 q 274 442 414 721 l 174 142 q 168 117 168 125 q 182 100 168 100 q 342 224 200 100 z "},"m":{"ha":881,"x_min":-3,"x_max":882,"o":"m 308 456 l 232 274 l 399 417 q 456 460 439 451 q 501 468 474 468 q 560 426 560 468 q 547 378 560 408 l 504 274 l 685 422 q 781 469 742 469 q 839 424 839 469 q 825 378 839 407 l 724 163 q 715 136 715 144 q 724 128 715 128 q 767 150 732 128 l 882 224 l 882 113 l 860 96 q 631 -14 714 -14 q 587 5 604 -14 q 569 51 569 24 q 588 115 569 74 l 663 290 l 400 39 q 321 -14 344 -14 q 285 24 285 -14 q 308 101 285 47 l 390 290 l 133 43 q 80 -6 92 3 q 53 -14 68 -14 q 11 29 11 -14 q 28 89 11 49 l 53 150 q -3 110 29 132 l -3 221 q 160 378 110 315 l 194 450 l 308 456 z "},"n":{"ha":642,"x_min":-3,"x_max":643,"o":"m 313 456 l 225 265 l 438 421 q 546 468 501 468 q 603 424 603 468 q 582 365 603 413 l 492 163 q 481 135 481 138 q 490 128 481 128 q 643 224 518 128 l 643 113 q 485 10 533 35 q 393 -14 438 -14 q 332 43 332 -14 q 347 107 332 72 l 425 285 l 126 32 q 51 -14 72 -14 q 13 29 13 -14 q 26 90 13 54 l 50 151 q -3 110 36 140 l -3 221 q 158 378 103 304 l 193 450 l 313 456 z "},"o":{"ha":499,"x_min":-6,"x_max":501,"o":"m 501 224 l 501 113 q 417 83 457 83 q 357 93 397 83 q 156 -14 285 -14 q -6 164 -6 -14 q 25 307 -6 238 q 127 435 60 388 q 275 482 194 482 q 385 444 340 482 q 431 351 431 407 q 399 281 431 324 q 407 236 407 258 q 399 189 407 213 q 417 183 408 183 q 501 224 447 183 m 308 306 q 311 322 311 319 q 297 352 311 339 q 268 365 283 365 q 167 306 211 365 q 122 169 122 246 q 185 94 122 94 q 236 119 208 94 q 267 143 251 133 q 246 199 246 174 q 308 306 246 267 z "},"p":{"ha":697,"x_min":-32,"x_max":700,"o":"m 326 464 l 286 344 q 490 471 375 471 q 574 434 539 471 q 610 347 610 397 q 496 111 610 238 q 700 224 581 128 l 700 113 q 454 0 553 0 q 393 13 429 0 q 310 -10 353 -10 q 253 13 278 -10 q 229 65 229 35 q 285 99 229 99 q 336 96 315 99 q 439 217 394 146 q 483 329 483 288 q 460 360 483 360 q 369 306 429 360 q 260 181 308 251 q 174 -1 218 119 q 114 -224 131 -122 q 81 -344 99 -317 q 22 -379 58 -379 q -32 -318 -32 -379 q 40 -54 -32 -279 q 151 244 99 128 q 129 225 142 236 l 94 192 q -1 110 75 172 l -1 221 q 213 406 146 335 l 229 458 l 326 464 z "},"q":{"ha":572,"x_min":-6,"x_max":574,"o":"m 475 321 l 250 -194 q 231 -254 231 -239 q 249 -274 231 -274 q 331 -167 276 -274 q 388 72 385 -61 q 467 136 411 89 q 574 225 497 161 l 574 113 q 472 25 508 60 q 435 -181 468 -90 q 213 -375 363 -375 q 139 -349 167 -375 q 111 -279 111 -322 q 142 -176 111 -250 l 225 25 q 133 -14 182 -14 q 32 33 69 -14 q -6 161 -6 81 q 106 384 -6 294 q 382 474 217 474 q 519 446 460 474 l 524 339 q 375 381 439 381 q 182 307 269 381 q 114 171 114 250 q 160 103 114 103 q 386 321 271 103 l 475 321 z "},"r":{"ha":476,"x_min":-3,"x_max":479,"o":"m 275 364 l 240 364 q 135 231 210 310 q -3 110 60 153 l -3 221 q 154 413 85 296 q 136 468 136 443 q 157 524 136 503 q 211 544 178 544 q 259 526 240 544 q 276 479 278 508 l 275 457 l 338 457 q 424 393 424 457 q 401 321 424 367 l 317 147 q 311 131 311 131 q 321 121 311 121 q 479 224 344 121 l 479 113 q 232 -14 321 -14 q 163 51 163 -14 q 189 142 163 88 l 283 333 q 292 353 292 350 q 275 364 292 364 z "},"s":{"ha":443,"x_min":-3,"x_max":444,"o":"m 444 224 l 444 113 q 207 4 303 4 q 176 7 207 4 q 114 -14 149 -14 q 44 9 74 -14 q 15 63 15 32 q 43 92 15 92 q 64 90 51 92 q 104 88 88 88 q 151 90 104 88 q 189 173 174 115 q 204 286 204 231 q 206 301 204 293 q -3 110 90 181 l -3 221 q 222 461 128 332 q 248 574 225 542 q 308 606 271 606 q 363 547 363 606 q 328 461 363 504 q 338 342 338 378 q 289 122 338 215 q 444 224 342 143 z "},"t":{"ha":379,"x_min":-3,"x_max":468,"o":"m 58 99 l 89 175 q -3 110 47 149 l -3 221 q 176 396 97 296 l 229 524 l 128 524 l 157 618 l 265 618 q 415 881 325 881 q 454 836 454 881 q 379 618 454 789 l 468 618 l 446 524 l 346 524 l 186 136 q 181 115 181 122 q 193 101 181 101 q 351 201 214 101 q 381 224 360 208 l 381 113 q 213 12 268 38 q 107 -14 158 -14 q 46 39 46 -14 q 58 99 46 68 z "},"u":{"ha":643,"x_min":-3,"x_max":646,"o":"m 385 190 l 176 31 q 68 -14 118 -14 q 11 31 11 -14 q 22 79 11 53 l 49 143 q -3 110 22 128 l -3 221 q 149 369 128 325 l 186 449 l 307 454 l 176 149 l 263 221 q 514 451 414 346 l 624 457 l 490 157 q 483 136 483 142 q 490 128 483 128 q 646 224 515 128 l 646 113 q 393 -14 465 -14 q 338 39 338 -14 q 354 111 338 68 l 385 190 z "},"v":{"ha":572,"x_min":-3,"x_max":574,"o":"m 574 224 l 574 113 q 468 69 518 69 q 378 103 426 69 q 314 40 344 67 q 163 -14 251 -14 q 76 13 108 -14 q 44 88 44 40 q 57 153 44 110 q -3 110 40 142 l -3 221 q 156 372 107 308 l 190 442 l 304 447 l 175 154 q 160 106 160 119 q 185 81 160 81 q 339 211 235 81 q 396 386 346 294 q 483 463 438 463 q 525 404 525 463 q 501 291 525 353 q 442 190 476 229 q 475 178 456 178 q 574 224 519 178 z "},"w":{"ha":793,"x_min":-3,"x_max":794,"o":"m 794 224 l 794 113 q 688 78 740 78 q 607 100 640 78 q 403 -14 513 -14 q 311 85 321 -14 q 128 -14 222 -14 q 31 72 31 -14 q 49 146 31 100 q -3 110 32 135 l -3 221 q 139 354 50 256 l 178 442 l 293 447 l 156 122 q 149 99 149 106 q 161 86 149 86 q 257 157 188 86 q 394 354 339 240 q 463 418 425 418 q 506 383 506 418 q 499 354 506 375 l 421 125 q 417 101 417 103 q 431 89 417 89 q 496 126 454 89 q 568 213 538 164 q 625 389 581 314 q 717 464 669 464 q 761 413 761 464 q 737 300 761 363 q 675 193 713 238 q 700 179 682 179 q 794 224 738 179 z "},"x":{"ha":593,"x_min":-3,"x_max":610,"o":"m 271 135 l 139 0 l 14 0 l 271 258 l 271 321 q 260 335 271 335 q 157 250 244 335 q -3 110 92 188 l -3 221 q 122 339 24 243 q 319 461 249 461 q 379 383 379 461 l 379 346 l 486 451 l 610 451 l 379 222 l 379 147 q 388 97 379 106 q 399 93 390 93 q 594 224 446 93 l 594 113 q 357 -14 451 -14 q 290 19 310 -14 q 271 135 271 53 z "},"y":{"ha":617,"x_min":-3,"x_max":619,"o":"m 365 199 l 208 61 q 115 -3 158 18 q 68 -14 94 -14 q 14 32 14 -14 q 29 90 14 50 l 50 144 q -3 110 36 136 l -3 221 q 158 372 90 296 l 188 449 l 307 454 l 179 158 l 494 449 l 600 454 l 450 104 q 619 224 493 149 l 619 113 q 461 3 510 43 q 351 -110 413 -37 q 258 -325 293 -271 q 175 -379 222 -379 q 114 -318 114 -379 q 263 -37 114 -217 l 365 199 z "},"z":{"ha":563,"x_min":-51,"x_max":564,"o":"m 49 268 l 161 374 q 339 461 254 461 q 436 426 397 461 q 475 336 475 390 q 431 214 475 276 q 314 106 388 151 q 329 43 325 74 q 564 225 426 117 l 564 114 l 336 -71 q 240 -269 285 -212 q 49 -392 146 -392 q -24 -364 4 -392 q -51 -292 -51 -336 q 215 -29 -51 -171 q 219 14 219 -3 q 218 46 219 32 q 150 35 172 35 q 92 75 92 35 q 129 135 92 107 q 208 163 167 163 q 247 158 218 163 q 356 313 356 243 q 310 364 356 364 q 242 328 286 364 q 40 147 199 293 q -3 110 29 138 l -3 221 q 49 268 19 242 m 178 -150 q 84 -219 133 -172 q 35 -286 35 -265 q 53 -307 35 -307 q 117 -269 78 -307 q 189 -144 161 -226 q 183 -147 188 -146 l 178 -150 z "},"{":{"ha":694,"x_min":190,"x_max":767,"o":"m 564 849 l 493 626 q 438 501 464 533 q 357 463 413 469 q 403 372 403 428 q 389 296 403 340 l 321 81 q 304 11 304 28 q 417 -39 304 -39 l 385 -139 l 354 -139 q 235 -100 281 -139 q 190 3 190 -61 q 200 64 190 32 l 271 292 q 285 358 285 336 q 233 419 285 404 l 264 514 q 338 549 314 525 q 381 633 361 572 l 456 872 q 540 1029 493 993 q 707 1065 588 1065 q 767 1064 740 1065 l 735 964 q 624 949 649 964 q 564 849 589 929 z "},"|":{"ha":694,"x_min":322,"x_max":446,"o":"m 322 926 l 446 926 l 446 -232 l 322 -232 l 322 926 z "},"}":{"ha":694,"x_min":51,"x_max":628,"o":"m 254 78 l 325 300 q 380 424 354 393 q 461 464 406 456 q 415 554 415 499 q 429 629 415 585 l 497 844 q 514 915 514 897 q 401 964 514 965 l 433 1064 q 463 1065 444 1065 q 583 1026 538 1065 q 628 924 628 988 q 618 861 628 892 l 546 635 q 533 567 533 596 q 585 507 533 522 l 554 413 q 481 377 504 401 q 438 293 457 353 l 361 53 q 276 -103 324 -67 q 111 -139 229 -139 q 51 -137 78 -139 l 83 -39 q 201 -18 172 -37 q 254 78 229 1 z "},"~":{"ha":926,"x_min":168,"x_max":835,"o":"m 232 800 l 168 851 q 360 1013 242 1013 q 519 960 413 1013 q 646 915 610 915 q 769 1015 714 915 l 835 964 q 632 806 763 806 q 467 865 590 806 q 354 901 392 901 q 232 800 290 901 z "}," ":{"ha":417,"x_min":0,"x_max":0,"o":""},"¡":{"ha":349,"x_min":-17,"x_max":385,"o":"m 303 568 l 124 0 l -17 0 l 211 568 l 303 568 m 308 822 q 385 742 385 822 q 356 670 385 699 q 286 642 328 642 q 211 719 211 642 q 240 792 211 763 q 308 822 268 822 z "},"¢":{"ha":694,"x_min":146,"x_max":613,"o":"m 613 363 l 611 246 q 353 119 514 146 l 276 -122 l 188 -100 l 267 119 q 146 272 146 146 q 224 465 146 378 q 428 586 303 551 l 499 790 l 571 772 l 510 586 q 592 519 592 569 q 572 450 592 497 l 550 396 l 426 396 l 443 429 q 464 483 464 471 q 443 499 464 499 q 342 435 403 499 q 271 281 271 360 q 332 217 271 217 q 613 363 447 217 z "},"£":{"ha":694,"x_min":-25,"x_max":690,"o":"m 131 258 l 167 353 l 289 353 q 400 611 353 543 q 583 728 481 728 q 658 695 626 728 q 690 619 690 663 q 647 456 690 567 l 521 428 q 539 468 529 444 q 586 597 586 568 q 561 628 586 628 q 397 353 492 628 l 521 353 l 482 258 l 363 258 q 276 99 328 167 q 350 92 317 92 q 597 121 446 92 l 563 11 q 339 -10 428 -10 q 196 17 250 -10 q 75 -14 131 -14 q -25 54 -25 -14 q 82 122 -25 122 q 167 113 118 122 q 250 258 226 194 l 131 258 z "},"¤":{"ha":746,"x_min":96,"x_max":729,"o":"m 404 475 l 618 475 l 564 383 l 358 383 q 340 328 353 365 l 533 328 l 479 236 l 322 236 q 321 210 321 225 q 342 129 321 160 q 396 99 363 99 q 528 171 460 99 l 485 6 q 385 -14 431 -14 q 251 50 303 -14 q 199 214 199 114 l 199 236 l 96 236 l 150 328 l 213 328 q 228 383 218 360 l 135 383 l 189 475 l 265 475 q 410 660 325 593 q 588 726 496 726 q 729 664 671 726 l 653 532 q 575 610 640 610 q 404 475 492 610 z "},"¥":{"ha":694,"x_min":26,"x_max":701,"o":"m 701 418 l 669 343 l 586 343 l 558 278 l 651 278 l 619 203 l 525 203 l 457 49 q 271 -196 349 -196 q 225 -164 225 -196 q 249 -110 225 -150 l 293 -33 q 351 86 293 -33 l 408 203 q 288 82 365 158 q 133 -8 190 -8 q 90 10 108 -8 q 72 54 72 28 q 119 203 72 92 l 26 203 l 57 278 l 153 278 l 181 343 l 76 343 l 107 418 l 214 418 l 261 526 q 300 632 300 615 q 275 656 300 656 q 151 483 207 656 l 50 468 q 161 688 97 625 q 301 750 225 750 q 383 724 353 750 q 414 653 414 697 q 367 500 414 604 l 183 96 q 354 264 310 215 q 518 463 394 308 l 572 564 q 619 610 597 610 l 664 610 q 689 588 689 610 q 683 565 689 575 l 619 418 l 701 418 z "},"¦":{"ha":694,"x_min":322,"x_max":446,"o":"m 322 926 l 446 926 l 446 458 l 322 458 l 322 926 m 322 213 l 446 213 l 446 -232 l 322 -232 l 322 213 z "},"§":{"ha":874,"x_min":50,"x_max":896,"o":"m 896 908 l 849 811 q 694 829 764 829 q 524 751 524 829 q 583 663 524 708 l 649 613 q 733 469 733 547 q 649 333 733 390 q 550 286 614 311 q 601 174 601 225 q 539 56 601 104 q 285 -6 461 -6 q 50 18 164 -6 l 92 107 q 271 93 189 93 q 471 179 471 93 q 413 261 471 213 l 329 331 q 247 476 247 399 q 326 611 247 569 q 438 654 360 629 q 393 763 393 714 q 508 904 393 867 q 708 931 589 931 q 896 908 799 931 m 535 572 q 365 479 365 569 q 456 367 365 415 q 617 468 617 369 q 601 519 617 499 q 535 572 585 539 z "},"¨":{"ha":694,"x_min":226,"x_max":578,"o":"m 310 685 q 372 619 372 685 q 349 558 372 583 q 290 533 325 533 q 226 601 226 533 q 251 661 226 638 q 310 685 275 685 m 515 685 q 578 619 578 685 q 554 558 578 583 q 496 533 531 533 q 432 601 432 533 q 456 661 432 638 q 515 685 481 685 z "},"©":{"ha":1075,"x_min":146,"x_max":1106,"o":"m 710 357 l 788 321 q 714 235 750 264 q 544 176 643 176 q 414 221 464 176 q 364 336 364 265 q 510 622 364 481 q 749 740 632 740 q 839 714 806 740 q 872 643 872 688 q 761 463 872 546 q 592 382 703 418 l 614 478 q 733 549 693 508 q 783 633 783 597 q 742 667 783 667 q 558 551 661 667 q 454 344 454 435 q 483 281 454 306 q 554 256 511 256 q 710 357 644 256 m 633 944 q 966 802 826 944 q 1106 463 1106 660 q 965 123 1106 264 q 626 -18 825 -18 q 288 124 429 -18 q 146 463 146 265 q 288 804 146 664 q 633 944 429 944 m 632 883 q 334 761 456 883 q 213 463 213 639 q 334 166 213 289 q 626 43 456 43 q 918 166 797 43 q 1039 463 1039 289 q 919 759 1039 635 q 632 883 799 883 z "},"ª":{"ha":463,"x_min":160,"x_max":597,"o":"m 597 739 l 597 646 q 517 586 521 589 q 424 551 463 551 q 378 594 386 551 q 278 551 343 551 q 164 647 183 551 q 160 686 160 668 q 164 731 160 701 q 486 918 224 918 q 543 914 504 918 l 543 832 q 481 839 507 839 q 326 794 390 839 q 263 686 263 750 q 290 643 263 643 q 367 691 321 643 q 440 801 413 739 l 538 801 l 479 669 q 476 663 478 665 q 481 658 478 658 q 578 725 485 658 l 597 739 z "},"«":{"ha":651,"x_min":63,"x_max":633,"o":"m 633 439 l 413 232 l 544 24 l 447 24 l 293 240 l 513 439 l 633 439 m 403 439 l 182 232 l 315 24 l 218 24 l 63 240 l 282 439 l 403 439 z "},"¬":{"ha":694,"x_min":83,"x_max":685,"o":"m 565 0 l 565 279 l 83 279 l 83 388 l 685 388 l 685 0 l 565 0 z "},"­":{"ha":351,"x_min":0,"x_max":351,"o":"m 351 290 l 306 174 l 0 174 l 57 290 l 351 290 z "},"®":{"ha":1075,"x_min":146,"x_max":1106,"o":"m 786 232 l 711 179 q 593 331 664 256 q 549 403 549 378 q 583 450 549 426 q 683 540 665 506 q 704 638 704 581 q 665 701 704 701 q 606 649 632 701 q 531 442 592 619 q 496 271 524 338 q 432 204 468 204 q 406 244 406 204 q 472 514 406 308 q 564 721 522 669 q 676 779 611 779 q 758 740 728 779 q 789 635 789 700 q 739 469 789 529 q 654 400 699 421 q 650 397 653 400 q 703 339 650 396 q 786 232 763 275 m 633 944 q 966 802 826 944 q 1106 463 1106 660 q 965 123 1106 264 q 626 -18 825 -18 q 288 124 429 -18 q 146 463 146 265 q 288 804 146 664 q 633 944 429 944 m 632 883 q 334 761 456 883 q 213 463 213 639 q 334 166 213 289 q 626 43 456 43 q 918 166 797 43 q 1039 463 1039 289 q 919 759 1039 635 q 632 883 799 883 z "},"¯":{"ha":694,"x_min":38,"x_max":732,"o":"m 38 1189 l 732 1189 l 732 1113 l 38 1113 l 38 1189 z "},"°":{"ha":694,"x_min":250,"x_max":667,"o":"m 461 946 q 606 885 546 946 q 667 743 667 825 q 606 599 667 658 q 458 539 544 539 q 311 599 372 539 q 250 742 250 658 q 311 887 250 828 q 461 946 372 946 m 460 878 q 363 838 403 878 q 324 742 324 799 q 363 647 324 686 q 458 607 403 607 q 553 647 514 607 q 592 742 592 686 q 553 838 592 797 q 460 878 514 878 z "},"±":{"ha":694,"x_min":-10,"x_max":724,"o":"m 204 510 l 404 510 l 492 707 l 611 707 l 524 510 l 724 510 l 675 400 l 475 400 l 386 204 l 268 204 l 356 400 l 156 400 l 204 510 m 39 140 l 558 140 l 510 31 l -10 31 l 39 140 z "},"²":{"ha":461,"x_min":76,"x_max":508,"o":"m 508 381 l 486 292 q 418 278 454 278 q 271 318 361 278 q 161 275 210 275 q 76 346 76 275 q 102 401 76 381 q 168 422 128 422 q 260 401 210 422 q 365 523 319 457 q 410 622 410 589 q 378 650 410 650 q 256 554 325 650 l 188 592 q 278 698 233 667 q 386 729 324 729 q 469 703 438 729 q 501 636 501 678 q 458 510 501 582 q 342 375 414 439 q 406 361 378 361 q 508 381 431 361 m 199 353 q 192 354 196 353 q 171 360 181 360 q 146 349 146 360 q 161 338 146 338 q 199 353 176 338 z "},"³":{"ha":461,"x_min":125,"x_max":511,"o":"m 278 578 l 218 617 q 403 729 306 729 q 481 704 451 729 q 511 636 511 679 q 431 518 511 568 q 463 447 463 485 q 402 327 463 378 q 258 276 342 276 q 125 394 125 276 q 128 435 125 396 l 213 435 q 210 403 210 401 q 260 354 210 354 q 334 380 301 354 q 367 439 367 406 q 353 476 367 461 q 301 467 322 467 q 242 508 242 467 q 265 547 242 532 q 322 561 288 561 q 354 558 339 561 q 414 629 414 593 q 388 651 414 651 q 345 639 364 651 q 278 578 326 626 z "},"´":{"ha":694,"x_min":329,"x_max":558,"o":"m 421 696 l 558 696 l 421 526 l 329 526 l 421 696 z "},"µ":{"ha":644,"x_min":-97,"x_max":643,"o":"m 383 190 l 176 31 q 93 -11 131 -6 q 39 -224 53 -132 q 10 -344 24 -321 q -44 -379 -11 -379 q -82 -362 -67 -379 q -97 -318 -97 -344 q -26 -54 -97 -275 q 58 183 25 104 q 186 449 90 258 l 307 454 l 176 149 l 263 221 q 514 451 418 351 l 624 457 l 489 157 q 483 136 483 144 q 490 128 483 128 q 643 222 511 128 l 643 111 q 393 -14 464 -14 q 338 39 338 -14 q 353 111 338 71 l 383 190 z "},"¶":{"ha":828,"x_min":199,"x_max":1011,"o":"m 199 -135 l 407 439 l 388 439 q 253 480 303 439 q 204 592 204 521 q 244 736 204 663 q 349 854 285 810 q 621 926 451 926 l 1011 926 l 978 836 l 892 836 l 538 -135 l 439 -135 l 792 836 l 651 836 l 299 -135 l 199 -135 z "},"·":{"ha":336,"x_min":65,"x_max":239,"o":"m 164 321 q 239 243 239 321 q 210 171 239 200 q 142 142 182 142 q 65 222 65 142 q 94 292 65 264 q 164 321 122 321 z "},"¸":{"ha":694,"x_min":103,"x_max":343,"o":"m 215 0 l 290 0 l 240 -74 q 276 -67 257 -67 q 343 -140 343 -67 q 301 -236 343 -196 q 203 -276 260 -276 q 103 -183 115 -276 l 176 -183 q 206 -211 176 -211 q 251 -192 232 -211 q 269 -144 269 -172 q 243 -117 269 -117 q 199 -137 221 -117 l 122 -137 l 215 0 z "},"¹":{"ha":461,"x_min":185,"x_max":507,"o":"m 249 501 l 260 582 q 394 668 336 613 q 461 732 418 732 q 507 690 507 732 q 472 629 507 663 q 294 278 396 453 l 185 278 l 213 321 q 328 529 274 415 q 249 501 296 515 z "},"º":{"ha":463,"x_min":204,"x_max":597,"o":"m 597 740 l 597 646 q 529 624 564 624 q 486 631 513 624 q 331 551 432 551 q 208 647 232 551 q 204 688 204 675 q 208 732 204 701 q 228 794 217 771 q 308 890 254 854 q 422 926 361 926 q 510 897 474 926 q 546 826 546 868 q 521 774 546 804 q 528 742 528 761 q 522 708 528 725 l 533 707 q 597 740 554 707 m 443 794 q 446 804 446 803 q 417 832 446 832 q 342 789 375 832 q 310 690 310 746 q 354 640 310 640 q 389 658 369 640 q 410 674 390 660 q 396 714 396 693 q 443 794 396 765 z "},"»":{"ha":651,"x_min":-1,"x_max":569,"o":"m -1 24 l 219 231 l 86 439 l 183 439 l 339 222 l 119 24 l -1 24 m 229 24 l 450 231 l 317 439 l 414 439 l 569 222 l 350 24 l 229 24 z "},"¼":{"ha":1032,"x_min":185,"x_max":968,"o":"m 249 501 l 260 582 q 394 668 336 613 q 461 732 418 732 q 507 690 507 732 q 472 629 507 663 q 294 278 396 453 l 185 278 l 213 321 q 328 529 274 415 q 249 501 296 515 m 781 713 l 401 0 l 333 0 l 706 713 l 781 713 m 968 175 l 932 96 l 840 96 q 788 -28 825 60 l 694 -28 q 747 101 719 49 q 675 108 725 103 q 599 64 636 64 q 558 103 558 64 q 624 174 558 144 q 757 439 704 272 l 860 439 l 846 411 q 790 294 832 383 q 726 182 763 235 q 790 176 743 181 q 875 332 829 254 q 933 378 901 378 q 968 351 968 378 q 953 314 968 342 q 899 213 946 301 q 878 174 893 201 l 914 174 q 968 175 944 174 z "},"½":{"ha":1032,"x_min":185,"x_max":969,"o":"m 249 501 l 260 582 q 394 668 336 613 q 461 732 418 732 q 507 690 507 732 q 472 629 507 663 q 294 278 396 453 l 185 278 l 213 321 q 328 529 274 415 q 249 501 296 515 m 781 713 l 401 0 l 333 0 l 706 713 l 781 713 m 969 96 l 947 6 q 879 -8 918 -8 q 732 32 824 -8 q 622 -10 671 -10 q 561 10 585 -10 q 538 60 538 29 q 563 115 538 94 q 628 136 588 136 q 721 117 669 136 q 826 238 781 171 q 871 338 871 304 q 839 365 871 365 q 717 268 786 365 l 649 306 q 740 413 696 382 q 847 444 785 444 q 931 419 899 444 q 963 351 963 393 q 803 89 963 233 q 867 75 839 75 q 969 96 892 75 m 660 67 q 632 72 642 72 q 607 63 607 72 q 622 54 607 54 q 660 67 635 54 z "},"¾":{"ha":1032,"x_min":125,"x_max":968,"o":"m 278 578 l 218 617 q 403 729 306 729 q 481 704 451 729 q 511 636 511 679 q 431 518 511 568 q 463 447 463 485 q 402 327 463 378 q 258 276 342 276 q 125 394 125 276 q 128 435 125 396 l 213 435 q 210 403 210 401 q 260 354 210 354 q 334 380 301 354 q 367 439 367 406 q 353 476 367 461 q 301 467 322 467 q 242 508 242 467 q 265 547 242 532 q 322 561 288 561 q 354 558 339 561 q 414 629 414 593 q 388 651 414 651 q 345 639 364 651 q 278 578 326 626 m 779 713 l 401 0 l 333 0 l 706 713 l 779 713 m 967 175 l 931 96 l 840 96 l 788 -28 l 693 -28 q 747 101 731 72 q 674 108 724 103 q 599 64 638 64 q 558 104 558 64 q 624 174 558 144 q 757 439 706 276 l 858 439 l 844 411 l 790 294 q 726 182 763 236 q 790 176 726 182 q 875 332 819 235 q 933 378 901 378 q 968 351 968 378 q 953 314 968 340 q 899 213 939 288 q 878 174 893 201 l 914 174 q 967 175 943 174 z "},"¿":{"ha":440,"x_min":-1,"x_max":454,"o":"m 339 229 l 421 161 q 174 -10 321 -10 q 47 34 94 -10 q -1 149 -1 78 q 54 281 -1 221 q 168 368 75 304 q 262 453 235 414 q 297 554 289 493 l 385 554 q 345 424 381 482 q 228 299 310 365 q 145 219 167 249 q 124 151 124 189 q 183 92 124 92 q 339 229 265 92 m 378 807 q 454 726 454 807 q 426 655 454 683 q 356 626 397 626 q 281 704 281 626 q 309 777 281 747 q 378 807 338 807 z "},"À":{"ha":818,"x_min":-29,"x_max":881,"o":"m 99 0 l -29 0 q 108 275 4 81 q -17 258 76 272 l 19 375 q 164 393 71 385 q 781 926 496 926 q 881 849 881 926 q 865 763 881 817 l 690 143 q 703 86 703 111 q 681 24 703 47 q 624 0 660 0 q 546 86 546 0 q 558 153 546 114 q 426 249 510 214 q 244 283 342 285 q 99 0 206 218 m 590 281 l 735 772 q 740 794 740 790 q 728 810 740 810 q 665 781 713 810 q 581 721 617 753 q 303 390 435 596 q 590 281 465 375 m 828 1160 l 872 990 l 771 990 l 681 1160 l 828 1160 z "},"Á":{"ha":818,"x_min":-29,"x_max":1010,"o":"m 99 0 l -29 0 q 108 275 4 81 q -17 258 76 272 l 19 375 q 164 393 71 385 q 781 926 496 926 q 881 849 881 926 q 865 763 881 817 l 690 143 q 703 86 703 111 q 681 24 703 47 q 624 0 660 0 q 546 86 546 0 q 558 153 546 114 q 426 249 510 214 q 244 283 342 285 q 99 0 206 218 m 590 281 l 735 772 q 740 794 740 790 q 728 810 740 810 q 665 781 713 810 q 581 721 617 753 q 303 390 435 596 q 590 281 465 375 m 853 1158 l 1010 1158 l 871 990 l 761 990 l 853 1158 z "},"Â":{"ha":818,"x_min":-29,"x_max":994,"o":"m 99 0 l -29 0 q 108 275 4 81 q -17 258 76 272 l 19 375 q 164 393 71 385 q 781 926 496 926 q 881 849 881 926 q 865 763 881 817 l 690 143 q 703 86 703 111 q 681 24 703 47 q 624 0 660 0 q 546 86 546 0 q 558 153 546 114 q 426 249 510 214 q 244 283 342 285 q 99 0 206 218 m 590 281 l 735 772 q 740 794 740 790 q 728 810 740 810 q 665 781 713 810 q 581 721 617 753 q 303 390 435 596 q 590 281 465 375 m 760 1158 l 868 1158 l 994 990 l 865 990 l 800 1081 l 711 990 l 585 990 l 760 1158 z "},"Ã":{"ha":818,"x_min":-29,"x_max":1050,"o":"m 99 0 l -29 0 q 108 275 4 81 q -17 258 76 272 l 19 375 q 164 393 71 385 q 781 926 496 926 q 881 849 881 926 q 865 763 881 817 l 690 143 q 703 86 703 111 q 681 24 703 47 q 624 0 660 0 q 546 86 546 0 q 558 153 546 114 q 426 249 510 214 q 244 283 342 285 q 99 0 206 218 m 590 281 l 735 772 q 740 794 740 790 q 728 810 740 810 q 665 781 713 810 q 581 721 617 753 q 303 390 435 596 q 590 281 465 375 m 954 1124 l 1050 1124 q 999 1028 1033 1057 q 904 990 954 990 q 838 1003 863 990 q 782 1024 819 1010 q 749 1032 761 1032 q 714 997 726 1032 l 615 997 q 754 1131 654 1131 q 847 1101 778 1131 q 906 1085 889 1085 q 954 1124 940 1085 z "},"Ä":{"ha":818,"x_min":-29,"x_max":993,"o":"m 99 0 l -29 0 q 108 275 4 81 q -17 258 76 272 l 19 375 q 164 393 71 385 q 781 926 496 926 q 881 849 881 926 q 865 763 881 817 l 690 143 q 703 86 703 111 q 681 24 703 47 q 624 0 660 0 q 546 86 546 0 q 558 153 546 114 q 426 249 510 214 q 244 283 342 285 q 99 0 206 218 m 590 281 l 735 772 q 740 794 740 790 q 728 810 740 810 q 665 781 713 810 q 581 721 617 753 q 303 390 435 596 q 590 281 465 375 m 725 1140 q 788 1075 788 1140 q 764 1014 788 1039 q 706 989 740 989 q 642 1057 642 989 q 666 1117 642 1093 q 725 1140 690 1140 m 931 1140 q 993 1075 993 1140 q 969 1014 993 1039 q 911 989 946 989 q 847 1057 847 989 q 872 1117 847 1093 q 931 1140 896 1140 z "},"Å":{"ha":818,"x_min":-29,"x_max":960,"o":"m 99 0 l -29 0 q 108 275 4 81 q -17 258 76 272 l 19 375 q 164 393 71 385 q 781 926 496 926 q 881 849 881 926 q 865 763 881 817 l 690 143 q 703 86 703 111 q 681 24 703 47 q 624 0 660 0 q 546 86 546 0 q 558 153 546 114 q 426 249 510 214 q 244 283 342 285 q 99 0 206 218 m 590 281 l 735 772 q 740 794 740 790 q 728 810 740 810 q 665 781 713 810 q 581 721 617 753 q 303 390 435 596 q 590 281 465 375 m 844 1206 q 926 1171 892 1206 q 960 1089 960 1136 q 926 1007 960 1042 q 843 972 892 972 q 761 1007 796 972 q 726 1089 726 1042 q 761 1172 726 1138 q 844 1206 796 1206 m 844 1147 q 803 1130 821 1147 q 785 1089 785 1113 q 803 1049 785 1067 q 844 1031 821 1031 q 884 1048 867 1031 q 901 1089 901 1065 q 884 1130 901 1113 q 844 1147 867 1147 z "},"Æ":{"ha":1118,"x_min":-29,"x_max":1200,"o":"m 1015 307 l 1154 307 q 969 80 1093 174 q 674 -14 844 -14 q 535 28 586 -14 q 485 140 485 69 q 496 204 485 172 q 482 214 490 208 q 378 269 422 256 q 244 283 335 282 q 99 0 207 221 l -29 0 q 108 275 4 81 q -17 260 50 271 l 19 375 q 164 394 85 388 q 781 926 494 926 q 872 883 847 926 q 1056 926 963 926 q 1200 829 1200 926 q 1143 701 1200 783 l 1007 507 l 915 586 l 1042 760 q 1063 797 1063 789 q 1028 817 1063 817 q 852 720 943 817 q 761 533 761 624 q 811 410 761 474 q 831 369 831 385 q 792 324 831 343 q 617 163 617 235 q 696 108 617 108 q 917 196 806 108 q 1015 307 968 236 m 557 304 q 640 371 597 349 q 674 399 674 389 q 660 432 674 406 q 633 535 633 482 q 718 757 633 656 q 740 794 740 783 q 726 810 740 810 q 664 781 711 810 q 581 721 617 751 q 303 390 438 597 q 557 304 450 376 z "},"Ç":{"ha":754,"x_min":90,"x_max":869,"o":"m 626 264 l 735 208 q 542 21 646 71 q 364 -24 449 -24 q 344 -22 353 -24 l 297 -90 q 353 -78 329 -78 q 425 -158 425 -78 q 377 -268 425 -222 q 264 -314 329 -314 q 153 -214 168 -314 l 231 -214 q 268 -246 231 -246 q 324 -222 301 -246 q 347 -164 347 -199 q 311 -128 347 -128 q 258 -151 286 -128 l 179 -151 l 275 -11 q 90 239 90 50 q 151 479 90 350 q 317 718 213 608 q 683 917 507 917 q 819 874 769 917 q 869 760 869 832 q 824 604 869 685 q 700 460 778 524 q 449 329 608 385 l 481 472 q 664 594 596 522 q 744 743 744 679 q 672 808 744 808 q 371 594 536 808 q 217 253 217 396 q 263 139 217 183 q 379 94 308 94 q 547 158 476 94 q 626 264 582 190 z "},"È":{"ha":700,"x_min":67,"x_max":782,"o":"m 597 307 l 736 307 q 551 79 675 172 q 256 -14 426 -14 q 118 28 169 -14 q 67 139 67 69 q 113 271 67 203 q 224 371 160 339 q 256 399 256 386 q 242 432 256 406 q 215 532 215 482 q 344 807 215 688 q 638 926 472 926 q 782 829 782 926 q 725 701 782 783 l 589 507 l 497 586 l 624 760 q 644 797 644 789 q 610 817 644 817 q 434 720 525 817 q 343 533 343 624 q 393 410 343 474 q 413 369 413 385 q 374 324 413 343 q 199 163 199 235 q 278 108 199 108 q 499 196 389 108 q 597 307 547 235 m 697 1160 l 742 990 l 640 990 l 550 1160 l 697 1160 z "},"É":{"ha":700,"x_min":67,"x_max":853,"o":"m 597 307 l 736 307 q 551 79 675 172 q 256 -14 426 -14 q 118 28 169 -14 q 67 139 67 69 q 113 271 67 203 q 224 371 160 339 q 256 399 256 386 q 242 432 256 406 q 215 532 215 482 q 344 807 215 688 q 638 926 472 926 q 782 829 782 926 q 725 701 782 783 l 589 507 l 497 586 l 624 760 q 644 797 644 789 q 610 817 644 817 q 434 720 525 817 q 343 533 343 624 q 393 410 343 474 q 413 369 413 385 q 374 324 413 343 q 199 163 199 235 q 278 108 199 108 q 499 196 389 108 q 597 307 547 235 m 696 1158 l 853 1158 l 714 990 l 604 990 l 696 1158 z "},"Ê":{"ha":700,"x_min":67,"x_max":863,"o":"m 597 307 l 736 307 q 551 79 675 172 q 256 -14 426 -14 q 118 28 169 -14 q 67 139 67 69 q 113 271 67 203 q 224 371 160 339 q 256 399 256 386 q 242 432 256 406 q 215 532 215 482 q 344 807 215 688 q 638 926 472 926 q 782 829 782 926 q 725 701 782 783 l 589 507 l 497 586 l 624 760 q 644 797 644 789 q 610 817 644 817 q 434 720 525 817 q 343 533 343 624 q 393 410 343 474 q 413 369 413 385 q 374 324 413 343 q 199 163 199 235 q 278 108 199 108 q 499 196 389 108 q 597 307 547 235 m 628 1158 l 736 1158 l 863 990 l 733 990 l 668 1081 l 579 990 l 453 990 l 628 1158 z "},"Ë":{"ha":700,"x_min":67,"x_max":864,"o":"m 597 307 l 736 307 q 551 79 675 172 q 256 -14 426 -14 q 118 28 169 -14 q 67 139 67 69 q 113 271 67 203 q 224 371 160 339 q 256 399 256 386 q 242 432 256 406 q 215 532 215 482 q 344 807 215 688 q 638 926 472 926 q 782 829 782 926 q 725 701 782 783 l 589 507 l 497 586 l 624 760 q 644 797 644 789 q 610 817 644 817 q 434 720 525 817 q 343 533 343 624 q 393 410 343 474 q 413 369 413 385 q 374 324 413 343 q 199 163 199 235 q 278 108 199 108 q 499 196 389 108 q 597 307 547 235 m 596 1140 q 658 1075 658 1140 q 635 1014 658 1039 q 576 989 611 989 q 513 1057 513 989 q 537 1117 513 1093 q 596 1140 561 1140 m 801 1140 q 864 1075 864 1140 q 840 1014 864 1039 q 782 989 817 989 q 718 1057 718 989 q 742 1117 718 1093 q 801 1140 767 1140 z "},"Ì":{"ha":561,"x_min":-56,"x_max":622,"o":"m -56 17 l 17 129 q 81 113 56 113 q 214 182 139 113 q 342 353 289 251 q 444 592 394 454 q 494 778 494 731 q 472 801 494 801 q 364 701 424 801 q 288 490 304 601 l 142 411 q 247 738 146 572 q 370 876 300 825 q 508 926 440 926 q 591 893 560 926 q 622 803 622 860 q 567 531 622 689 q 424 236 511 374 q 63 -14 264 -14 q -56 17 0 -14 m 564 1160 l 608 990 l 507 990 l 417 1160 l 564 1160 z "},"Í":{"ha":561,"x_min":-56,"x_max":732,"o":"m -56 17 l 17 129 q 81 113 56 113 q 214 182 139 113 q 342 353 289 251 q 444 592 394 454 q 494 778 494 731 q 472 801 494 801 q 364 701 424 801 q 288 490 304 601 l 142 411 q 247 738 146 572 q 370 876 300 825 q 508 926 440 926 q 591 893 560 926 q 622 803 622 860 q 567 531 622 689 q 424 236 511 374 q 63 -14 264 -14 q -56 17 0 -14 m 575 1158 l 732 1158 l 593 990 l 483 990 l 575 1158 z "},"Î":{"ha":561,"x_min":-56,"x_max":739,"o":"m -56 17 l 17 129 q 81 113 56 113 q 214 182 139 113 q 342 353 289 251 q 444 592 394 454 q 494 778 494 731 q 472 801 494 801 q 364 701 424 801 q 288 490 304 601 l 142 411 q 247 738 146 572 q 370 876 300 825 q 508 926 440 926 q 591 893 560 926 q 622 803 622 860 q 567 531 622 689 q 424 236 511 374 q 63 -14 264 -14 q -56 17 0 -14 m 504 1158 l 613 1158 l 739 990 l 610 990 l 544 1081 l 456 990 l 329 990 l 504 1158 z "},"Ï":{"ha":561,"x_min":-56,"x_max":694,"o":"m -56 17 l 17 129 q 81 113 56 113 q 214 182 139 113 q 342 353 289 251 q 444 592 394 454 q 494 778 494 731 q 472 801 494 801 q 364 701 424 801 q 288 490 304 601 l 142 411 q 247 738 146 572 q 370 876 300 825 q 508 926 440 926 q 591 893 560 926 q 622 803 622 860 q 567 531 622 689 q 424 236 511 374 q 63 -14 264 -14 q -56 17 0 -14 m 449 1136 q 507 1075 507 1136 q 485 1017 507 1040 q 431 993 463 993 q 371 1057 371 993 q 393 1113 371 1090 q 449 1136 415 1136 m 636 1136 q 694 1075 694 1136 q 672 1017 694 1040 q 618 993 650 993 q 558 1057 558 993 q 581 1113 558 1090 q 636 1136 603 1136 z "},"Ð":{"ha":957,"x_min":-62,"x_max":907,"o":"m 379 267 l 233 267 l 281 383 l 438 383 q 489 517 447 410 q 554 651 519 594 q 381 772 439 743 q 260 810 306 810 q 222 775 222 810 q 244 722 222 754 q 308 653 281 672 q 354 608 354 622 q 294 517 354 581 q 140 658 185 596 q 96 796 96 721 q 133 891 96 856 q 235 926 171 926 q 453 865 332 926 q 619 761 514 835 l 667 829 l 758 761 l 711 685 q 811 568 782 607 q 907 296 907 442 q 872 147 907 215 q 776 44 838 79 q 539 -10 683 -10 q 303 28 415 -10 q 119 -10 231 -10 q -12 15 39 -10 q -62 79 -62 39 q 94 161 -62 161 q 275 142 172 161 q 379 267 333 189 m 650 267 l 524 267 q 428 121 481 188 q 535 110 496 110 q 712 160 649 110 q 775 304 775 211 q 649 564 775 433 q 596 433 625 517 q 578 383 592 422 l 686 383 l 650 267 z "},"Ñ":{"ha":746,"x_min":-74,"x_max":960,"o":"m 83 -36 l -74 -36 q 185 422 79 172 l 356 826 q 467 926 397 926 q 539 880 525 926 q 553 667 553 833 l 553 324 l 621 500 q 814 863 724 767 l 849 703 q 719 418 776 575 l 603 94 q 493 -6 567 -6 q 428 110 428 -6 l 426 688 l 243 260 q 83 -36 188 131 m 864 1124 l 960 1124 q 908 1028 943 1057 q 814 990 864 990 q 747 1003 772 990 q 692 1024 729 1010 q 658 1032 671 1032 q 624 997 636 1032 l 525 997 q 664 1131 564 1131 q 757 1101 688 1131 q 815 1085 799 1085 q 864 1124 850 1085 z "},"Ò":{"ha":824,"x_min":113,"x_max":878,"o":"m 568 450 l 426 389 q 514 639 428 529 q 724 757 606 757 q 835 713 793 757 q 878 597 878 669 q 826 380 878 506 q 701 169 774 254 q 350 -14 543 -14 q 176 52 239 -14 q 113 236 113 118 q 184 509 113 360 q 363 761 256 658 q 534 880 438 833 q 703 926 631 926 q 774 872 774 926 q 757 831 774 849 q 672 800 746 818 q 336 533 475 751 q 242 242 242 386 q 274 138 242 176 q 360 100 306 100 q 534 173 451 100 q 682 374 617 246 q 747 596 747 503 q 708 642 747 642 q 604 564 647 642 q 568 450 579 518 m 771 1160 l 815 990 l 714 990 l 624 1160 l 771 1160 z "},"Ó":{"ha":824,"x_min":90,"x_max":900,"o":"m 546 450 l 404 389 q 492 639 406 529 q 701 757 583 757 q 813 713 771 757 q 856 597 856 669 q 803 380 856 506 q 679 169 751 254 q 328 -14 521 -14 q 153 52 217 -14 q 90 236 90 118 q 162 509 90 360 q 340 761 233 658 q 512 880 415 833 q 681 926 608 926 q 751 872 751 926 q 735 831 751 849 q 650 800 724 818 q 314 533 453 751 q 219 242 219 386 q 251 138 219 176 q 338 100 283 100 q 512 173 429 100 q 660 374 594 246 q 725 596 725 503 q 686 642 725 642 q 582 564 625 642 q 546 450 557 518 m 743 1158 l 900 1158 l 761 990 l 651 990 l 743 1158 z "},"Ô":{"ha":824,"x_min":90,"x_max":914,"o":"m 546 450 l 404 389 q 492 639 406 529 q 701 757 583 757 q 813 713 771 757 q 856 597 856 669 q 803 380 856 506 q 679 169 751 254 q 328 -14 521 -14 q 153 52 217 -14 q 90 236 90 118 q 162 509 90 360 q 340 761 233 658 q 512 880 415 833 q 681 926 608 926 q 751 872 751 926 q 735 831 751 849 q 650 800 724 818 q 314 533 453 751 q 219 242 219 386 q 251 138 219 176 q 338 100 283 100 q 512 173 429 100 q 660 374 594 246 q 725 596 725 503 q 686 642 725 642 q 582 564 625 642 q 546 450 557 518 m 679 1158 l 788 1158 l 914 990 l 785 990 l 719 1081 l 631 990 l 504 990 l 679 1158 z "},"Õ":{"ha":824,"x_min":90,"x_max":940,"o":"m 546 450 l 404 389 q 492 639 406 529 q 701 757 583 757 q 813 713 771 757 q 856 597 856 669 q 803 380 856 506 q 679 169 751 254 q 328 -14 521 -14 q 153 52 217 -14 q 90 236 90 118 q 162 509 90 360 q 340 761 233 658 q 512 880 415 833 q 681 926 608 926 q 751 872 751 926 q 735 831 751 849 q 650 800 724 818 q 314 533 453 751 q 219 242 219 386 q 251 138 219 176 q 338 100 283 100 q 512 173 429 100 q 660 374 594 246 q 725 596 725 503 q 686 642 725 642 q 582 564 625 642 q 546 450 557 518 m 844 1124 l 940 1124 q 889 1028 924 1057 q 794 990 844 990 q 728 1003 753 990 q 672 1024 710 1010 q 639 1032 651 1032 q 604 997 617 1032 l 506 997 q 644 1131 544 1131 q 738 1101 668 1131 q 796 1085 779 1085 q 844 1124 831 1085 z "},"Ö":{"ha":824,"x_min":90,"x_max":900,"o":"m 546 450 l 404 389 q 492 639 406 529 q 701 757 583 757 q 813 713 771 757 q 856 597 856 669 q 803 380 856 506 q 679 169 751 254 q 328 -14 521 -14 q 153 52 217 -14 q 90 236 90 118 q 162 509 90 360 q 340 761 233 658 q 512 880 415 833 q 681 926 608 926 q 751 872 751 926 q 735 831 751 849 q 650 800 724 818 q 314 533 453 751 q 219 242 219 386 q 251 138 219 176 q 338 100 283 100 q 512 173 429 100 q 660 374 594 246 q 725 596 725 503 q 686 642 725 642 q 582 564 625 642 q 546 450 557 518 m 632 1140 q 694 1075 694 1140 q 671 1014 694 1039 q 613 989 647 989 q 549 1057 549 989 q 573 1117 549 1093 q 632 1140 597 1140 m 838 1140 q 900 1075 900 1140 q 876 1014 900 1039 q 818 989 853 989 q 754 1057 754 989 q 778 1117 754 1093 q 838 1140 803 1140 z "},"×":{"ha":694,"x_min":71,"x_max":668,"o":"m 71 218 l 289 378 l 174 536 l 263 601 l 378 442 l 604 606 l 668 518 l 442 354 l 558 193 l 472 131 l 356 292 l 135 131 l 71 218 z "},"Ø":{"ha":824,"x_min":-22,"x_max":1008,"o":"m 753 749 l 911 901 l 1008 860 l 833 689 q 856 597 856 649 q 803 380 856 506 q 679 169 751 254 q 329 -14 521 -14 q 231 3 285 -14 q 186 -54 215 -15 q 147 -108 175 -69 l 121 -144 q 31 -204 78 -204 q -22 -151 -22 -204 q 18 -64 -22 -115 q 138 71 25 -56 q 90 238 90 140 q 162 510 90 361 q 340 761 233 660 q 513 880 417 833 q 681 926 608 926 q 751 872 751 926 q 735 831 751 849 q 650 800 724 818 q 314 533 453 751 q 219 242 219 386 q 251 138 219 176 q 338 100 283 100 q 512 172 429 100 q 660 374 594 244 q 725 596 725 503 q 686 642 725 642 q 582 564 625 642 q 546 450 557 518 l 404 389 q 492 639 406 531 q 703 757 585 757 q 753 749 726 757 z "},"Ù":{"ha":903,"x_min":56,"x_max":1042,"o":"m 200 479 l 56 417 q 153 715 89 596 q 442 926 265 926 q 543 888 504 926 q 582 788 582 850 q 546 654 582 731 l 303 143 l 840 704 l 897 804 l 1042 844 l 851 444 q 731 17 732 194 l 592 -14 q 676 339 599 149 l 390 58 q 249 -10 321 -10 q 161 72 161 -10 q 222 253 161 117 l 428 708 q 446 776 446 749 q 414 808 446 808 q 276 692 343 808 q 200 479 247 642 m 794 1160 l 839 990 l 738 990 l 647 1160 l 794 1160 z "},"Ú":{"ha":903,"x_min":56,"x_max":1042,"o":"m 200 479 l 56 417 q 153 715 89 596 q 442 926 265 926 q 543 888 504 926 q 582 788 582 850 q 546 654 582 731 l 303 143 l 840 704 l 897 804 l 1042 844 l 851 444 q 731 17 732 194 l 592 -14 q 676 339 599 149 l 390 58 q 249 -10 321 -10 q 161 72 161 -10 q 222 253 161 117 l 428 708 q 446 776 446 749 q 414 808 446 808 q 276 692 343 808 q 200 479 247 642 m 844 1158 l 1001 1158 l 863 990 l 753 990 l 844 1158 z "},"Û":{"ha":903,"x_min":56,"x_max":1042,"o":"m 200 479 l 56 417 q 153 715 89 596 q 442 926 265 926 q 543 888 504 926 q 582 788 582 850 q 546 654 582 731 l 303 143 l 840 704 l 897 804 l 1042 844 l 851 444 q 731 17 732 194 l 592 -14 q 676 339 599 149 l 390 58 q 249 -10 321 -10 q 161 72 161 -10 q 222 253 161 117 l 428 708 q 446 776 446 749 q 414 808 446 808 q 276 692 343 808 q 200 479 247 642 m 778 1158 l 886 1158 l 1013 990 l 883 990 l 818 1081 l 729 990 l 603 990 l 778 1158 z "},"Ü":{"ha":903,"x_min":56,"x_max":1042,"o":"m 200 479 l 56 417 q 153 715 89 596 q 442 926 265 926 q 543 888 504 926 q 582 788 582 850 q 546 654 582 731 l 303 143 l 840 704 l 897 804 l 1042 844 l 851 444 q 731 17 732 194 l 592 -14 q 676 339 599 149 l 390 58 q 249 -10 321 -10 q 161 72 161 -10 q 222 253 161 117 l 428 708 q 446 776 446 749 q 414 808 446 808 q 276 692 343 808 q 200 479 247 642 m 726 1140 q 789 1075 789 1140 q 765 1014 789 1039 q 707 989 742 989 q 643 1057 643 989 q 667 1117 643 1093 q 726 1140 692 1140 m 932 1140 q 994 1075 994 1140 q 971 1014 994 1039 q 913 989 947 989 q 849 1057 849 989 q 873 1117 849 1093 q 932 1140 897 1140 z "},"Ý":{"ha":893,"x_min":65,"x_max":1010,"o":"m 210 489 l 65 417 q 163 739 78 585 q 440 926 265 926 q 542 897 507 926 q 583 806 583 863 q 525 617 583 746 l 294 108 q 775 571 501 272 l 840 697 q 868 744 860 736 q 893 753 876 753 l 949 753 q 979 725 979 753 q 974 699 979 711 l 693 60 q 525 -256 603 -146 q 425 -333 469 -333 q 371 -293 371 -333 q 400 -226 371 -278 q 569 107 449 -140 l 647 267 q 405 41 474 92 q 272 -10 336 -10 q 197 12 226 -10 q 168 68 168 33 q 233 271 168 122 l 400 650 q 442 743 421 696 q 449 781 449 761 q 418 810 449 810 q 298 723 354 810 q 210 489 242 636 m 853 1158 l 1010 1158 l 871 990 l 761 990 l 853 1158 z "},"Þ":{"ha":667,"x_min":61,"x_max":714,"o":"m 553 883 l 493 792 q 531 793 507 793 q 714 551 714 793 q 617 293 714 406 q 394 181 521 181 q 328 242 328 181 q 353 292 328 276 q 413 310 364 297 q 582 553 582 354 q 511 682 582 682 q 361 551 433 682 q 265 313 319 476 q 239 125 261 224 q 190 -21 217 26 q 110 -83 156 -83 q 61 -21 61 -83 q 92 144 61 19 q 160 379 122 268 q 344 785 239 615 q 442 922 411 892 q 472 938 453 938 l 528 938 q 558 907 558 938 q 553 883 558 894 z "},"ß":{"ha":693,"x_min":-86,"x_max":722,"o":"m 696 224 l 696 113 q 453 -1 547 -1 q 375 18 407 -1 q 282 -14 321 -14 q 204 51 204 -14 q 224 94 204 78 q 274 111 243 111 q 328 100 292 111 q 501 350 501 208 q 453 419 501 404 q 443 414 449 418 q 408 404 419 404 q 358 451 358 404 q 432 514 358 506 q 457 542 451 536 q 568 679 536 625 q 608 800 608 747 q 572 842 608 842 q 466 768 525 842 q 364 582 407 694 l 96 -115 q 61 -242 78 -161 q 27 -347 44 -322 q -31 -372 10 -372 q -86 -306 -86 -372 q -7 -65 -86 -264 l 96 193 l -1 110 l -1 221 q 172 386 94 304 l 269 640 q 429 882 322 779 q 578 950 500 950 q 684 915 646 950 q 722 817 722 879 q 535 490 722 656 q 619 339 619 447 q 569 189 619 257 q 494 106 551 164 q 696 224 576 136 z "},"à":{"ha":557,"x_min":-4,"x_max":560,"o":"m 363 313 l 478 313 l 404 142 q 400 128 400 132 q 410 118 400 118 q 560 224 425 118 l 560 113 l 536 94 q 414 8 451 31 q 338 -14 372 -14 q 282 54 286 -14 q 147 -14 232 -14 q 31 38 65 -14 q -4 158 -4 89 q 113 383 -4 296 q 417 469 231 469 q 488 465 438 469 l 488 368 q 413 375 444 375 q 205 313 290 375 q 119 161 119 250 q 163 97 119 97 q 263 161 204 97 q 363 313 322 225 m 424 706 l 467 536 l 385 536 l 294 706 l 424 706 z "},"á":{"ha":557,"x_min":-4,"x_max":560,"o":"m 363 313 l 478 313 l 404 142 q 400 128 400 132 q 410 118 400 118 q 560 224 425 118 l 560 113 l 536 94 q 414 8 451 31 q 338 -14 372 -14 q 282 54 286 -14 q 147 -14 232 -14 q 31 38 65 -14 q -4 158 -4 89 q 113 383 -4 296 q 417 469 231 469 q 488 465 438 469 l 488 368 q 413 375 444 375 q 205 313 290 375 q 119 161 119 250 q 163 97 119 97 q 263 161 204 97 q 363 313 322 225 m 406 706 l 543 706 l 406 536 l 314 536 l 406 706 z "},"â":{"ha":557,"x_min":-4,"x_max":578,"o":"m 363 313 l 478 313 l 404 142 q 400 128 400 132 q 410 118 400 118 q 560 224 425 118 l 560 113 l 536 94 q 414 8 451 31 q 338 -14 372 -14 q 282 54 286 -14 q 147 -14 232 -14 q 31 38 65 -14 q -4 158 -4 89 q 113 383 -4 296 q 417 469 231 469 q 488 465 438 469 l 488 368 q 413 375 444 375 q 205 313 290 375 q 119 161 119 250 q 163 97 119 97 q 263 161 204 97 q 363 313 322 225 m 382 706 l 478 706 l 578 536 l 463 536 l 411 628 l 324 536 l 210 536 l 382 706 z "},"ã":{"ha":557,"x_min":-4,"x_max":619,"o":"m 363 313 l 478 313 l 404 142 q 400 128 400 132 q 410 118 400 118 q 560 224 425 118 l 560 113 l 536 94 q 414 8 451 31 q 338 -14 372 -14 q 282 54 286 -14 q 147 -14 232 -14 q 31 38 65 -14 q -4 158 -4 89 q 113 383 -4 296 q 417 469 231 469 q 488 465 438 469 l 488 368 q 413 375 444 375 q 205 313 290 375 q 119 161 119 250 q 163 97 119 97 q 263 161 204 97 q 363 313 322 225 m 532 683 l 619 683 q 565 588 600 618 q 479 550 524 550 q 419 563 444 550 q 372 583 408 568 q 342 592 353 592 q 308 557 321 592 l 219 557 q 353 690 261 690 q 443 658 371 690 q 486 644 472 644 q 532 683 518 644 z "},"ä":{"ha":557,"x_min":-4,"x_max":569,"o":"m 363 313 l 478 313 l 404 142 q 400 128 400 132 q 410 118 400 118 q 560 224 425 118 l 560 113 l 536 94 q 414 8 451 31 q 338 -14 372 -14 q 282 54 286 -14 q 147 -14 232 -14 q 31 38 65 -14 q -4 158 -4 89 q 113 383 -4 296 q 417 469 231 469 q 488 465 438 469 l 488 368 q 413 375 444 375 q 205 313 290 375 q 119 161 119 250 q 163 97 119 97 q 263 161 204 97 q 363 313 322 225 m 301 679 q 364 614 364 679 q 340 553 364 578 q 282 528 317 528 q 218 596 218 528 q 242 656 218 632 q 301 679 267 679 m 507 679 q 569 614 569 679 q 546 553 569 578 q 488 528 522 528 q 424 596 424 528 q 448 656 424 632 q 507 679 472 679 z "},"å":{"ha":557,"x_min":-4,"x_max":560,"o":"m 363 313 l 478 313 l 404 142 q 400 128 400 132 q 410 118 400 118 q 560 224 425 118 l 560 113 l 536 94 q 414 8 451 31 q 338 -14 372 -14 q 282 54 286 -14 q 147 -14 232 -14 q 31 38 65 -14 q -4 158 -4 89 q 113 383 -4 296 q 417 469 231 469 q 488 465 438 469 l 488 368 q 413 375 444 375 q 205 313 290 375 q 119 161 119 250 q 163 97 119 97 q 263 161 204 97 q 363 313 322 225 m 417 738 q 490 706 460 738 q 521 632 521 675 q 490 558 521 589 q 415 526 458 526 q 342 558 374 526 q 311 632 311 589 q 342 707 311 676 q 417 738 374 738 m 417 685 q 380 669 396 685 q 364 632 364 653 q 380 595 364 611 q 417 579 396 579 q 453 595 438 579 q 468 632 468 611 q 453 669 468 653 q 417 685 438 685 z "},"æ":{"ha":774,"x_min":-6,"x_max":776,"o":"m 776 224 l 775 113 q 468 -14 624 -14 q 329 72 374 -14 q 146 -14 235 -14 q 26 40 57 -14 q -6 165 -6 94 q 106 378 -6 296 q 386 467 226 467 q 517 439 443 467 q 633 464 582 464 q 718 437 686 464 q 750 367 750 410 q 626 197 750 267 q 446 142 563 161 q 510 92 461 92 q 669 147 585 92 q 776 224 706 171 m 397 365 q 224 319 310 365 q 115 161 115 263 q 158 97 115 97 q 235 138 189 97 q 319 238 281 178 q 397 365 338 308 m 451 232 q 572 276 518 242 q 626 342 626 310 q 599 368 626 368 q 503 318 553 368 q 451 232 469 285 z "},"ç":{"ha":461,"x_min":-6,"x_max":464,"o":"m 185 -14 l 143 -74 q 179 -67 160 -67 q 246 -140 246 -67 q 204 -236 246 -196 q 106 -276 163 -276 q 6 -183 18 -276 l 79 -183 q 108 -211 79 -211 q 153 -192 135 -211 q 172 -144 172 -172 q 146 -117 172 -117 q 101 -137 124 -117 l 25 -137 l 114 -7 q -6 164 -6 31 q 57 346 -6 264 q 317 465 147 465 q 450 390 450 465 q 440 350 450 371 l 406 274 l 289 274 l 318 332 q 325 356 325 346 q 294 379 325 379 q 215 346 260 379 q 129 178 129 281 q 196 93 129 93 q 464 224 296 93 l 464 113 q 308 16 367 43 q 185 -14 249 -11 z "},"è":{"ha":458,"x_min":-6,"x_max":460,"o":"m 460 224 l 460 113 q 154 -14 296 -14 q 38 34 81 -14 q -6 165 -6 82 q 89 371 -6 288 q 321 464 194 464 q 403 437 371 464 q 435 367 435 410 q 311 197 435 268 q 131 142 250 163 q 197 92 146 92 q 460 224 288 92 m 136 232 q 257 276 203 242 q 311 342 311 310 q 283 368 311 368 q 188 318 239 368 q 136 232 154 285 m 349 706 l 392 536 l 310 536 l 219 706 l 349 706 z "},"é":{"ha":458,"x_min":-6,"x_max":526,"o":"m 460 224 l 460 113 q 154 -14 296 -14 q 38 34 81 -14 q -6 165 -6 82 q 89 371 -6 288 q 321 464 194 464 q 403 437 371 464 q 435 367 435 410 q 311 197 435 268 q 131 142 250 163 q 197 92 146 92 q 460 224 288 92 m 136 232 q 257 276 203 242 q 311 342 311 310 q 283 368 311 368 q 188 318 239 368 q 136 232 154 285 m 389 706 l 526 706 l 389 536 l 297 536 l 389 706 z "},"ê":{"ha":458,"x_min":-6,"x_max":513,"o":"m 460 224 l 460 113 q 154 -14 296 -14 q 38 34 81 -14 q -6 165 -6 82 q 89 371 -6 288 q 321 464 194 464 q 403 437 371 464 q 435 367 435 410 q 311 197 435 268 q 131 142 250 163 q 197 92 146 92 q 460 224 288 92 m 136 232 q 257 276 203 242 q 311 342 311 310 q 283 368 311 368 q 188 318 239 368 q 136 232 154 285 m 317 706 l 413 706 l 513 536 l 397 536 l 346 628 l 258 536 l 144 536 l 317 706 z "},"ë":{"ha":458,"x_min":-6,"x_max":518,"o":"m 460 224 l 460 113 q 154 -14 296 -14 q 38 34 81 -14 q -6 165 -6 82 q 89 371 -6 288 q 321 464 194 464 q 403 437 371 464 q 435 367 435 410 q 311 197 435 268 q 131 142 250 163 q 197 92 146 92 q 460 224 288 92 m 136 232 q 257 276 203 242 q 311 342 311 310 q 283 368 311 368 q 188 318 239 368 q 136 232 154 285 m 250 679 q 313 614 313 679 q 289 553 313 578 q 231 528 265 528 q 167 596 167 528 q 191 656 167 632 q 250 679 215 679 m 456 679 q 518 614 518 679 q 494 553 518 578 q 436 528 471 528 q 372 596 372 528 q 397 656 372 632 q 456 679 421 679 z "},"ì":{"ha":343,"x_min":-3,"x_max":344,"o":"m 46 125 l 56 153 q -3 110 39 142 l -3 221 q 169 390 107 308 l 193 453 l 326 458 l 193 153 q 186 131 186 138 q 192 124 186 124 q 207 129 196 124 q 257 161 208 131 q 344 224 275 172 l 344 113 q 93 -14 190 -14 q 29 43 29 -14 q 46 125 29 78 m 286 706 l 329 536 l 247 536 l 157 706 l 286 706 z "},"í":{"ha":343,"x_min":-3,"x_max":474,"o":"m 46 125 l 56 153 q -3 110 39 142 l -3 221 q 169 390 107 308 l 193 453 l 326 458 l 193 153 q 186 131 186 138 q 192 124 186 124 q 207 129 196 124 q 257 161 208 131 q 344 224 275 172 l 344 113 q 93 -14 190 -14 q 29 43 29 -14 q 46 125 29 78 m 336 706 l 474 706 l 336 536 l 244 536 l 336 706 z "},"î":{"ha":343,"x_min":-3,"x_max":475,"o":"m 46 125 l 56 153 q -3 110 39 142 l -3 221 q 169 390 107 308 l 193 453 l 326 458 l 193 153 q 186 131 186 138 q 192 124 186 124 q 207 129 196 124 q 257 161 208 131 q 344 224 275 172 l 344 113 q 93 -14 190 -14 q 29 43 29 -14 q 46 125 29 78 m 279 706 l 375 706 l 475 536 l 360 536 l 308 628 l 221 536 l 107 536 l 279 706 z "},"ï":{"ha":343,"x_min":-3,"x_max":471,"o":"m 203 681 q 265 615 265 681 q 242 553 265 579 q 183 528 218 528 q 119 596 119 528 q 144 656 119 632 q 203 681 168 681 m 408 681 q 471 615 471 681 q 447 553 471 579 q 389 528 424 528 q 325 596 325 528 q 349 656 325 632 q 408 681 374 681 m 46 125 l 56 153 q -3 110 39 142 l -3 221 q 169 390 107 308 l 193 453 l 326 458 l 193 153 q 186 131 186 138 q 192 124 186 124 q 207 129 196 124 q 257 161 208 131 q 344 224 275 172 l 344 113 q 93 -14 190 -14 q 29 43 29 -14 q 46 125 29 78 z "},"ð":{"ha":490,"x_min":-6,"x_max":521,"o":"m 315 643 l 235 608 l 201 685 l 313 733 l 306 879 l 393 879 l 403 772 l 489 810 l 521 733 l 411 685 l 432 436 q 435 390 435 403 q 401 192 435 306 q 421 186 413 186 q 492 224 447 186 l 492 113 q 411 86 444 86 q 360 96 399 86 q 158 -14 283 -14 q 24 51 63 -14 q -6 164 -6 100 q 75 386 -6 294 q 166 455 111 428 q 269 482 221 482 q 322 475 288 482 l 315 643 m 308 304 q 311 322 311 321 q 297 352 311 339 q 268 365 283 365 q 167 306 211 365 q 122 169 122 246 q 185 94 122 94 q 236 119 210 94 q 267 143 249 132 q 246 200 246 174 q 308 304 246 267 z "},"ñ":{"ha":642,"x_min":-3,"x_max":704,"o":"m 313 456 l 225 265 l 438 421 q 546 468 501 468 q 603 424 603 468 q 582 365 603 413 l 492 163 q 481 135 481 138 q 490 128 481 128 q 643 224 518 128 l 643 113 q 485 10 533 35 q 393 -14 438 -14 q 332 43 332 -14 q 347 107 332 72 l 425 285 l 126 32 q 51 -14 72 -14 q 13 29 13 -14 q 26 90 13 54 l 50 151 q -3 110 36 140 l -3 221 q 158 378 103 304 l 193 450 l 313 456 m 617 683 l 704 683 q 650 588 685 618 q 564 550 608 550 q 504 563 529 550 q 457 583 493 568 q 426 592 438 592 q 393 557 406 592 l 304 557 q 438 690 346 690 q 528 658 456 690 q 571 644 557 644 q 617 683 603 644 z "},"ò":{"ha":499,"x_min":-6,"x_max":501,"o":"m 501 224 l 501 113 q 417 83 457 83 q 357 93 397 83 q 156 -14 285 -14 q -6 164 -6 -14 q 25 307 -6 238 q 127 435 60 388 q 275 482 194 482 q 385 444 340 482 q 431 351 431 407 q 399 281 431 324 q 407 236 407 258 q 399 189 407 213 q 417 183 408 183 q 501 224 447 183 m 308 306 q 311 322 311 319 q 297 352 311 339 q 268 365 283 365 q 167 306 211 365 q 122 169 122 246 q 185 94 122 94 q 236 119 208 94 q 267 143 251 133 q 246 199 246 174 q 308 306 246 267 m 331 706 l 374 536 l 292 536 l 201 706 l 331 706 z "},"ó":{"ha":499,"x_min":-6,"x_max":501,"o":"m 501 224 l 501 113 q 417 83 457 83 q 357 93 397 83 q 156 -14 285 -14 q -6 164 -6 -14 q 25 307 -6 238 q 127 435 60 388 q 275 482 194 482 q 385 444 340 482 q 431 351 431 407 q 399 281 431 324 q 407 236 407 258 q 399 189 407 213 q 417 183 408 183 q 501 224 447 183 m 308 306 q 311 322 311 319 q 297 352 311 339 q 268 365 283 365 q 167 306 211 365 q 122 169 122 246 q 185 94 122 94 q 236 119 208 94 q 267 143 251 133 q 246 199 246 174 q 308 306 246 267 m 347 706 l 485 706 l 347 536 l 256 536 l 347 706 z "},"ô":{"ha":499,"x_min":-6,"x_max":501,"o":"m 501 224 l 501 113 q 417 83 457 83 q 357 93 397 83 q 156 -14 285 -14 q -6 164 -6 -14 q 25 307 -6 238 q 127 435 60 388 q 275 482 194 482 q 385 444 340 482 q 431 351 431 407 q 399 281 431 324 q 407 236 407 258 q 399 189 407 213 q 417 183 408 183 q 501 224 447 183 m 308 306 q 311 322 311 319 q 297 352 311 339 q 268 365 283 365 q 167 306 211 365 q 122 169 122 246 q 185 94 122 94 q 236 119 208 94 q 267 143 251 133 q 246 199 246 174 q 308 306 246 267 m 290 706 l 386 706 l 486 536 l 371 536 l 319 628 l 232 536 l 118 536 l 290 706 z "},"õ":{"ha":499,"x_min":-6,"x_max":558,"o":"m 501 224 l 501 113 q 417 83 457 83 q 357 93 397 83 q 156 -14 285 -14 q -6 164 -6 -14 q 25 307 -6 238 q 127 435 60 388 q 275 482 194 482 q 385 444 340 482 q 431 351 431 407 q 399 281 431 324 q 407 236 407 258 q 399 189 407 213 q 417 183 408 183 q 501 224 447 183 m 308 306 q 311 322 311 319 q 297 352 311 339 q 268 365 283 365 q 167 306 211 365 q 122 169 122 246 q 185 94 122 94 q 236 119 208 94 q 267 143 251 133 q 246 199 246 174 q 308 306 246 267 m 471 683 l 558 683 q 504 588 539 618 q 418 550 463 550 q 358 563 383 550 q 311 583 347 568 q 281 592 292 592 q 247 557 260 592 l 158 557 q 292 690 200 690 q 382 658 310 690 q 425 644 411 644 q 471 683 457 644 z "},"ö":{"ha":499,"x_min":-6,"x_max":501,"o":"m 501 224 l 501 113 q 417 83 457 83 q 357 93 397 83 q 156 -14 285 -14 q -6 164 -6 -14 q 25 307 -6 238 q 127 435 60 388 q 275 482 194 482 q 385 444 340 482 q 431 351 431 407 q 399 281 431 324 q 407 236 407 258 q 399 189 407 213 q 417 183 408 183 q 501 224 447 183 m 308 306 q 311 322 311 319 q 297 352 311 339 q 268 365 283 365 q 167 306 211 365 q 122 169 122 246 q 185 94 122 94 q 236 119 208 94 q 267 143 251 133 q 246 199 246 174 q 308 306 246 267 m 217 679 q 279 614 279 679 q 256 553 279 578 q 197 528 232 528 q 133 596 133 528 q 158 656 133 632 q 217 679 182 679 m 422 679 q 485 614 485 679 q 461 553 485 578 q 403 528 438 528 q 339 596 339 528 q 363 656 339 632 q 422 679 388 679 z "},"÷":{"ha":694,"x_min":90,"x_max":647,"o":"m 126 413 l 647 413 l 610 313 l 90 313 l 126 413 m 429 615 q 481 593 460 615 q 503 540 503 571 q 481 488 503 510 q 428 465 460 465 q 375 488 397 465 q 353 540 353 510 q 375 594 353 572 q 429 615 397 615 m 318 261 q 370 239 349 261 q 392 186 392 217 q 370 133 392 156 q 317 111 349 111 q 264 133 286 111 q 242 186 242 156 q 264 240 242 218 q 318 261 286 261 z "},"ø":{"ha":490,"x_min":-79,"x_max":515,"o":"m 322 476 l 428 607 l 515 569 l 399 432 q 432 353 432 394 q 399 281 432 324 q 408 236 408 260 q 399 189 408 217 q 417 183 410 183 q 493 224 440 183 l 493 113 q 408 83 450 83 q 358 93 392 83 q 157 -14 283 -14 q 115 -10 143 -14 l 106 -24 q 88 -47 99 -33 q 50 -103 78 -61 q -31 -156 14 -156 q -79 -108 -79 -156 q 1 21 -79 -67 q 24 46 8 28 q -6 167 -6 96 q 77 389 -6 296 q 274 482 160 482 q 322 476 296 482 m 308 306 q 311 322 311 319 q 297 352 311 339 q 268 365 283 365 q 167 306 211 365 q 122 168 122 246 q 185 94 122 94 q 236 119 208 94 q 268 143 249 131 q 247 200 247 174 q 308 306 247 265 z "},"ù":{"ha":644,"x_min":-3,"x_max":646,"o":"m 385 190 l 176 31 q 68 -14 118 -14 q 11 31 11 -14 q 22 79 11 53 l 49 143 q -3 110 22 128 l -3 221 q 149 369 128 325 l 186 449 l 307 454 l 176 149 l 263 221 q 514 451 414 346 l 624 457 l 490 157 q 483 136 483 142 q 490 128 483 128 q 646 224 515 128 l 646 113 q 393 -14 465 -14 q 338 39 338 -14 q 354 111 338 68 l 385 190 m 454 706 l 497 536 l 415 536 l 325 706 l 454 706 z "},"ú":{"ha":644,"x_min":-3,"x_max":646,"o":"m 385 190 l 176 31 q 68 -14 118 -14 q 11 31 11 -14 q 22 79 11 53 l 49 143 q -3 110 22 128 l -3 221 q 149 369 128 325 l 186 449 l 307 454 l 176 149 l 263 221 q 514 451 414 346 l 624 457 l 490 157 q 483 136 483 142 q 490 128 483 128 q 646 224 515 128 l 646 113 q 393 -14 465 -14 q 338 39 338 -14 q 354 111 338 68 l 385 190 m 492 706 l 629 706 l 492 536 l 400 536 l 492 706 z "},"û":{"ha":644,"x_min":-3,"x_max":646,"o":"m 385 190 l 176 31 q 68 -14 118 -14 q 11 31 11 -14 q 22 79 11 53 l 49 143 q -3 110 22 128 l -3 221 q 149 369 128 325 l 186 449 l 307 454 l 176 149 l 263 221 q 514 451 414 346 l 624 457 l 490 157 q 483 136 483 142 q 490 128 483 128 q 646 224 515 128 l 646 113 q 393 -14 465 -14 q 338 39 338 -14 q 354 111 338 68 l 385 190 m 429 706 l 525 706 l 625 536 l 510 536 l 458 628 l 371 536 l 257 536 l 429 706 z "},"ü":{"ha":644,"x_min":-3,"x_max":646,"o":"m 385 190 l 176 31 q 68 -14 118 -14 q 11 31 11 -14 q 22 79 11 53 l 49 143 q -3 110 22 128 l -3 221 q 149 369 128 325 l 186 449 l 307 454 l 176 149 l 263 221 q 514 451 414 346 l 624 457 l 490 157 q 483 136 483 142 q 490 128 483 128 q 646 224 515 128 l 646 113 q 393 -14 465 -14 q 338 39 338 -14 q 354 111 338 68 l 385 190 m 367 679 q 429 614 429 679 q 406 553 429 578 q 347 528 382 528 q 283 596 283 528 q 308 656 283 632 q 367 679 332 679 m 572 679 q 635 614 635 679 q 611 553 635 578 q 553 528 588 528 q 489 596 489 528 q 513 656 489 632 q 572 679 538 679 z "},"ý":{"ha":617,"x_min":-3,"x_max":619,"o":"m 365 199 l 208 61 q 115 -3 158 18 q 68 -14 94 -14 q 14 32 14 -14 q 29 90 14 50 l 50 144 q -3 110 36 136 l -3 221 q 158 372 90 296 l 188 449 l 307 454 l 179 158 l 494 449 l 600 454 l 450 104 q 619 224 493 149 l 619 113 q 461 3 510 43 q 351 -110 413 -37 q 258 -325 293 -271 q 175 -379 222 -379 q 114 -318 114 -379 q 263 -37 114 -217 l 365 199 m 479 706 l 617 706 l 479 536 l 388 536 l 479 706 z "},"þ":{"ha":697,"x_min":-32,"x_max":699,"o":"m 501 881 l 286 344 q 489 471 375 471 q 573 434 538 471 q 608 347 608 397 q 494 111 608 236 q 699 224 579 126 l 699 113 q 453 0 561 0 q 392 13 428 0 q 310 -10 353 -10 q 253 13 278 -10 q 229 65 229 35 q 285 99 229 99 q 336 96 315 99 q 439 217 394 147 q 483 329 483 286 q 460 360 483 360 q 369 306 429 360 q 260 181 308 251 q 175 -1 218 119 q 114 -224 132 -121 q 81 -344 97 -319 q 22 -379 57 -379 q -32 -318 -32 -379 q 40 -54 -32 -278 q 151 244 100 132 q -1 110 101 199 l -1 221 l 22 242 q 103 310 50 264 q 197 406 151 353 l 376 875 l 501 881 z "},"ÿ":{"ha":617,"x_min":-3,"x_max":632,"o":"m 365 199 l 208 61 q 115 -3 158 18 q 68 -14 94 -14 q 14 32 14 -14 q 29 90 14 50 l 50 144 q -3 110 36 136 l -3 221 q 158 372 90 296 l 188 449 l 307 454 l 179 158 l 494 449 l 600 454 l 450 104 q 619 224 493 149 l 619 113 q 461 3 510 43 q 351 -110 413 -37 q 258 -325 293 -271 q 175 -379 222 -379 q 114 -318 114 -379 q 263 -37 114 -217 l 365 199 m 364 679 q 426 614 426 679 q 403 553 426 578 q 344 528 379 528 q 281 596 281 528 q 305 656 281 632 q 364 679 329 679 m 569 679 q 632 614 632 679 q 608 553 632 578 q 550 528 585 528 q 486 596 486 528 q 510 656 486 632 q 569 679 535 679 z "},"Ā":{"ha":818,"x_min":-29,"x_max":1028,"o":"m 99 0 l -29 0 q 108 275 4 81 q -17 258 76 272 l 19 375 q 164 393 71 385 q 781 926 496 926 q 881 849 881 926 q 865 763 881 817 l 690 143 q 703 86 703 111 q 681 24 703 47 q 624 0 660 0 q 546 86 546 0 q 558 153 546 114 q 426 249 510 214 q 244 283 342 285 q 99 0 206 218 m 590 281 l 735 772 q 740 794 740 790 q 728 810 740 810 q 665 781 713 810 q 581 721 617 753 q 303 390 435 596 q 590 281 465 375 m 1028 1096 l 992 1017 l 613 1017 l 647 1096 l 1028 1096 z "},"ā":{"ha":557,"x_min":-4,"x_max":588,"o":"m 363 313 l 478 313 l 404 142 q 400 128 400 132 q 410 118 400 118 q 560 224 425 118 l 560 113 l 536 94 q 414 8 451 31 q 338 -14 372 -14 q 282 54 286 -14 q 147 -14 232 -14 q 31 38 65 -14 q -4 158 -4 89 q 113 383 -4 296 q 417 469 231 469 q 488 465 438 469 l 488 368 q 413 375 444 375 q 205 313 290 375 q 119 161 119 250 q 163 97 119 97 q 263 161 204 97 q 363 313 322 225 m 588 647 l 551 568 l 214 568 l 249 647 l 588 647 z "},"Ă":{"ha":818,"x_min":-29,"x_max":1050,"o":"m 99 0 l -29 0 q 108 275 4 81 q -17 258 76 272 l 19 375 q 164 393 71 385 q 781 926 496 926 q 881 849 881 926 q 865 763 881 817 l 690 143 q 703 86 703 111 q 681 24 703 47 q 624 0 660 0 q 546 86 546 0 q 558 153 546 114 q 426 249 510 214 q 244 283 342 285 q 99 0 206 218 m 590 281 l 735 772 q 740 794 740 790 q 728 810 740 810 q 665 781 713 810 q 581 721 617 753 q 303 390 435 596 q 590 281 465 375 m 626 1138 l 700 1138 q 825 1058 704 1058 q 922 1076 889 1058 q 975 1138 954 1093 l 1050 1138 q 821 969 1010 969 q 657 1024 704 969 q 626 1138 626 1060 z "},"ă":{"ha":557,"x_min":-4,"x_max":638,"o":"m 363 313 l 478 313 l 404 142 q 400 128 400 132 q 410 118 400 118 q 560 224 425 118 l 560 113 l 536 94 q 414 8 451 31 q 338 -14 372 -14 q 282 54 286 -14 q 147 -14 232 -14 q 31 38 65 -14 q -4 158 -4 89 q 113 383 -4 296 q 417 469 231 469 q 488 465 438 469 l 488 368 q 413 375 444 375 q 205 313 290 375 q 119 161 119 250 q 163 97 119 97 q 263 161 204 97 q 363 313 322 225 m 247 693 l 319 693 q 335 646 322 661 q 429 615 360 615 q 564 693 538 615 l 638 693 q 419 528 590 528 q 250 642 268 528 q 247 693 247 658 z "},"Ą":{"ha":818,"x_min":-29,"x_max":881,"o":"m 865 763 l 690 143 q 703 86 703 111 q 681 24 703 47 q 624 0 660 0 q 606 1 614 0 q 517 -64 574 -21 q 446 -172 446 -119 q 488 -208 446 -208 q 564 -161 525 -208 l 613 -206 q 475 -276 540 -276 q 398 -250 428 -276 q 368 -183 368 -224 q 432 -58 368 -121 q 561 31 463 -28 q 546 86 546 54 q 558 153 546 114 q 426 249 510 214 q 244 283 342 285 q 99 0 200 207 l -29 0 q 108 275 1 75 q -17 258 76 272 l 19 375 q 164 393 71 385 q 781 926 496 926 q 881 849 881 926 q 865 763 881 817 m 590 281 l 735 772 q 740 794 740 790 q 728 810 740 810 q 665 781 713 810 q 581 721 617 753 q 303 390 435 596 q 590 281 465 375 z "},"ą":{"ha":557,"x_min":-4,"x_max":560,"o":"m 560 224 l 560 113 q 407 6 450 28 q 278 -94 306 -65 q 250 -153 250 -122 q 282 -179 250 -179 q 347 -136 313 -179 l 394 -179 q 272 -244 328 -244 q 203 -221 231 -244 q 176 -161 176 -197 q 306 -6 176 -81 q 282 54 283 13 q 147 -14 232 -14 q 31 38 65 -14 q -4 158 -4 89 q 113 383 -4 296 q 417 469 231 469 q 488 465 438 469 l 488 368 q 413 375 444 375 q 205 313 290 375 q 119 161 119 250 q 163 97 119 97 q 263 161 204 97 q 363 313 322 225 l 478 313 l 404 142 q 400 128 400 132 q 410 118 400 118 q 560 224 424 118 z "},"Ć":{"ha":754,"x_min":90,"x_max":888,"o":"m 626 274 l 735 218 q 626 83 678 126 q 367 -14 511 -14 q 167 58 243 -14 q 90 249 90 131 q 151 489 90 360 q 317 728 213 618 q 683 926 506 926 q 819 884 769 926 q 869 768 869 842 q 824 614 869 694 q 700 469 778 533 q 449 339 608 394 l 481 482 q 664 604 597 533 q 744 753 744 690 q 672 818 744 818 q 371 604 536 818 q 217 263 217 406 q 263 149 217 193 q 379 104 308 104 q 547 168 478 104 q 626 274 583 201 m 740 1150 l 888 1150 l 750 982 l 649 982 l 740 1150 z "},"ć":{"ha":461,"x_min":-6,"x_max":508,"o":"m 406 274 l 289 274 l 318 332 q 325 356 325 346 q 294 379 325 379 q 215 346 260 379 q 129 178 129 281 q 196 93 129 93 q 464 224 294 93 l 464 113 q 299 13 361 39 q 169 -14 238 -14 q 42 34 89 -14 q -6 164 -6 82 q 57 346 -6 264 q 317 465 147 465 q 450 390 450 465 q 440 350 450 371 l 406 274 m 379 696 l 508 696 l 371 526 l 289 526 l 379 696 z "},"Ĉ":{"ha":754,"x_min":90,"x_max":936,"o":"m 626 274 l 735 218 q 626 83 678 126 q 367 -14 511 -14 q 167 58 243 -14 q 90 249 90 131 q 151 489 90 360 q 317 728 213 618 q 683 926 506 926 q 819 884 769 926 q 869 768 869 842 q 824 614 869 694 q 700 469 778 533 q 449 339 608 394 l 481 482 q 664 604 597 533 q 744 753 744 690 q 672 818 744 818 q 371 604 536 818 q 217 263 217 406 q 263 149 217 193 q 379 104 308 104 q 547 168 478 104 q 626 274 583 201 m 701 1150 l 810 1150 l 936 982 l 807 982 l 742 1072 l 653 982 l 526 982 l 701 1150 z "},"Ċ":{"ha":754,"x_min":90,"x_max":869,"o":"m 626 274 l 735 218 q 626 83 678 126 q 367 -14 511 -14 q 167 58 243 -14 q 90 249 90 131 q 151 489 90 360 q 317 728 213 618 q 683 926 506 926 q 819 884 769 926 q 869 768 869 842 q 824 614 869 694 q 700 469 778 533 q 449 339 608 394 l 481 482 q 664 604 597 533 q 744 753 744 690 q 672 818 744 818 q 371 604 536 818 q 217 263 217 406 q 263 149 217 193 q 379 104 308 104 q 547 168 478 104 q 626 274 583 201 m 768 1140 q 831 1075 831 1140 q 807 1014 831 1039 q 749 989 783 989 q 685 1057 685 989 q 709 1117 685 1093 q 768 1140 733 1140 z "},"ċ":{"ha":461,"x_min":-6,"x_max":464,"o":"m 371 685 q 433 619 433 685 q 410 558 433 583 q 351 533 386 533 q 288 601 288 533 q 312 661 288 638 q 371 685 336 685 m 406 274 l 289 274 l 318 332 q 325 356 325 346 q 294 379 325 379 q 215 346 260 379 q 129 178 129 281 q 196 93 129 93 q 464 224 294 93 l 464 113 q 299 13 361 39 q 169 -14 238 -14 q 42 34 89 -14 q -6 164 -6 82 q 57 346 -6 264 q 317 465 147 465 q 450 390 450 465 q 440 350 450 371 l 406 274 z "},"Č":{"ha":754,"x_min":90,"x_max":939,"o":"m 626 274 l 735 218 q 626 83 678 126 q 367 -14 511 -14 q 167 58 243 -14 q 90 249 90 131 q 151 489 90 360 q 317 728 213 618 q 683 926 506 926 q 819 884 769 926 q 869 768 869 842 q 824 614 869 694 q 700 469 778 533 q 449 339 608 394 l 481 482 q 664 604 597 533 q 744 753 744 690 q 672 818 744 818 q 371 604 536 818 q 217 263 217 406 q 263 149 217 193 q 379 104 308 104 q 547 168 478 104 q 626 274 583 201 m 764 982 l 656 982 l 529 1150 l 658 1150 l 724 1060 l 813 1150 l 939 1150 l 764 982 z "},"č":{"ha":461,"x_min":-6,"x_max":554,"o":"m 406 274 l 289 274 l 318 332 q 325 356 325 346 q 294 379 325 379 q 215 346 260 379 q 129 178 129 281 q 196 93 129 93 q 464 224 294 93 l 464 113 q 299 13 361 39 q 169 -14 238 -14 q 42 34 89 -14 q -6 164 -6 82 q 57 346 -6 264 q 317 465 147 465 q 450 390 450 465 q 440 350 450 371 l 406 274 m 383 526 l 286 526 l 186 696 l 303 696 l 354 604 l 442 696 l 554 696 l 383 526 z "},"Ď":{"ha":957,"x_min":-62,"x_max":913,"o":"m 408 581 l 358 476 q 192 597 250 540 q 96 793 96 690 q 133 890 96 854 q 235 926 171 926 q 453 865 333 926 q 619 761 513 835 l 667 829 l 758 761 l 711 685 q 811 567 778 611 q 907 296 907 439 q 872 147 907 214 q 776 44 838 79 q 539 -10 682 -10 q 303 26 418 -10 q 119 -10 231 -10 q -12 15 39 -10 q -62 79 -62 39 q 94 161 -62 161 q 275 142 172 161 q 385 274 340 197 q 489 515 429 351 q 554 651 513 582 q 381 772 440 742 q 260 810 307 810 q 222 775 222 810 q 288 672 222 739 q 408 581 326 633 m 428 121 q 535 110 496 110 q 712 160 649 110 q 775 303 775 211 q 649 564 775 432 q 596 433 624 511 q 428 121 532 249 m 738 982 l 629 982 l 503 1150 l 632 1150 l 697 1060 l 786 1150 l 913 1150 l 738 982 z "},"ď":{"ha":829,"x_min":-6,"x_max":979,"o":"m 979 926 l 758 610 l 692 610 l 810 926 l 979 926 m 607 224 l 607 113 q 364 -14 449 -14 q 279 51 313 -14 q 133 -18 203 -18 q 32 31 69 -18 q -6 163 -6 81 q 81 367 -6 282 q 283 458 174 458 q 339 451 304 458 q 486 800 410 669 q 625 938 567 938 q 676 818 676 938 q 595 456 676 646 q 389 144 514 265 q 385 119 385 124 q 404 97 385 97 q 607 224 439 97 m 315 363 q 292 367 303 367 q 204 333 249 367 q 124 167 124 274 q 167 97 124 97 q 274 157 210 97 q 315 363 285 263 m 400 310 q 519 533 454 363 q 596 826 583 703 q 415 364 513 721 q 400 310 415 365 z "},"Đ":{"ha":957,"x_min":-62,"x_max":907,"o":"m 379 267 l 233 267 l 281 383 l 438 383 q 489 517 447 410 q 554 651 519 594 q 381 772 439 743 q 260 810 306 810 q 222 775 222 810 q 244 722 222 754 q 308 653 281 672 q 354 608 354 622 q 294 517 354 581 q 140 658 185 596 q 96 796 96 721 q 133 891 96 856 q 235 926 171 926 q 453 865 332 926 q 619 761 514 835 l 667 829 l 758 761 l 711 685 q 811 568 782 607 q 907 296 907 442 q 872 147 907 215 q 776 44 838 79 q 539 -10 683 -10 q 303 28 415 -10 q 119 -10 231 -10 q -12 15 39 -10 q -62 79 -62 39 q 94 161 -62 161 q 275 142 172 161 q 379 267 333 189 m 650 267 l 524 267 q 428 121 481 188 q 535 110 496 110 q 712 160 649 110 q 775 304 775 211 q 649 564 775 433 q 596 433 625 517 q 578 383 592 422 l 686 383 l 650 267 z "},"đ":{"ha":604,"x_min":-6,"x_max":769,"o":"m 404 636 l 271 636 l 308 733 l 449 733 q 525 860 490 814 q 625 938 585 938 q 676 821 676 938 q 671 733 676 796 l 769 733 l 743 636 l 654 636 q 550 363 624 500 q 389 144 476 225 q 385 119 385 124 q 404 97 385 97 q 607 224 439 97 l 607 113 q 364 -14 449 -14 q 279 51 314 -14 q 135 -18 203 -18 q 34 33 74 -18 q -6 164 -6 85 q 78 364 -6 281 q 283 458 172 458 q 339 451 304 458 q 404 636 376 569 m 315 363 q 292 367 303 367 q 204 333 249 367 q 124 167 124 274 q 167 97 124 97 q 274 157 208 97 q 315 363 285 258 m 400 310 q 519 533 454 363 q 596 826 585 704 q 415 364 511 721 q 400 310 411 350 z "},"Ē":{"ha":700,"x_min":67,"x_max":907,"o":"m 597 307 l 736 307 q 551 79 675 172 q 256 -14 426 -14 q 118 28 169 -14 q 67 139 67 69 q 113 271 67 203 q 224 371 160 339 q 256 399 256 386 q 242 432 256 406 q 215 532 215 482 q 344 807 215 688 q 638 926 472 926 q 782 829 782 926 q 725 701 782 783 l 589 507 l 497 586 l 624 760 q 644 797 644 789 q 610 817 644 817 q 434 720 525 817 q 343 533 343 624 q 393 410 343 474 q 413 369 413 385 q 374 324 413 343 q 199 163 199 235 q 278 108 199 108 q 499 196 389 108 q 597 307 547 235 m 907 1096 l 871 1017 l 492 1017 l 526 1096 l 907 1096 z "},"ē":{"ha":458,"x_min":-6,"x_max":542,"o":"m 542 647 l 507 568 l 169 568 l 204 647 l 542 647 m 460 224 l 460 113 q 154 -14 296 -14 q 38 34 81 -14 q -6 165 -6 82 q 89 371 -6 288 q 321 464 194 464 q 403 437 371 464 q 435 367 435 410 q 311 197 435 268 q 131 142 250 163 q 197 92 146 92 q 460 224 288 92 m 136 232 q 257 276 203 242 q 311 342 311 310 q 283 368 311 368 q 188 318 239 368 q 136 232 154 285 z "},"Ĕ":{"ha":700,"x_min":67,"x_max":903,"o":"m 597 307 l 736 307 q 551 79 675 172 q 256 -14 426 -14 q 118 28 169 -14 q 67 139 67 69 q 113 271 67 203 q 224 371 160 339 q 256 399 256 386 q 242 432 256 406 q 215 532 215 482 q 344 807 215 688 q 638 926 472 926 q 782 829 782 926 q 725 701 782 783 l 589 507 l 497 586 l 624 760 q 644 797 644 789 q 610 817 644 817 q 434 720 525 817 q 343 533 343 624 q 393 410 343 474 q 413 369 413 385 q 374 324 413 343 q 199 163 199 235 q 278 108 199 108 q 499 196 389 108 q 597 307 547 235 m 479 1138 l 553 1138 q 678 1058 557 1058 q 774 1076 742 1058 q 828 1138 807 1093 l 903 1138 q 672 969 863 969 q 501 1035 546 969 q 479 1138 479 1067 z "},"ĕ":{"ha":458,"x_min":-6,"x_max":553,"o":"m 460 224 l 460 113 q 154 -14 296 -14 q 38 34 81 -14 q -6 165 -6 82 q 89 371 -6 288 q 321 464 194 464 q 403 437 371 464 q 435 367 435 410 q 311 197 435 268 q 131 142 250 163 q 197 92 146 92 q 460 224 288 92 m 136 232 q 257 276 203 242 q 311 342 311 310 q 283 368 311 368 q 188 318 239 368 q 136 232 154 285 m 163 693 l 236 693 q 250 646 238 661 q 344 615 275 615 q 479 693 456 615 l 553 693 q 335 528 508 528 q 190 581 232 528 q 163 686 163 615 l 163 693 z "},"Ė":{"ha":700,"x_min":67,"x_max":782,"o":"m 597 307 l 736 307 q 551 79 675 172 q 256 -14 426 -14 q 118 28 169 -14 q 67 139 67 69 q 113 271 67 203 q 224 371 160 339 q 256 399 256 386 q 242 432 256 406 q 215 532 215 482 q 344 807 215 688 q 638 926 472 926 q 782 829 782 926 q 725 701 782 783 l 589 507 l 497 586 l 624 760 q 644 797 644 789 q 610 817 644 817 q 434 720 525 817 q 343 533 343 624 q 393 410 343 474 q 413 369 413 385 q 374 324 413 343 q 199 163 199 235 q 278 108 199 108 q 499 196 389 108 q 597 307 547 235 m 694 1140 q 757 1075 757 1140 q 733 1014 757 1039 q 675 989 710 989 q 611 1057 611 989 q 635 1117 611 1093 q 694 1140 660 1140 z "},"ė":{"ha":458,"x_min":-6,"x_max":460,"o":"m 460 224 l 460 113 q 154 -14 296 -14 q 38 34 81 -14 q -6 165 -6 82 q 89 371 -6 288 q 321 464 194 464 q 403 437 371 464 q 435 367 435 410 q 311 197 435 268 q 131 142 250 163 q 197 92 146 92 q 460 224 288 92 m 136 232 q 257 276 203 242 q 311 342 311 310 q 283 368 311 368 q 188 318 239 368 q 136 232 154 285 m 363 685 q 425 619 425 685 q 401 558 425 583 q 343 533 378 533 q 279 601 279 533 q 303 661 279 638 q 363 685 328 685 z "},"Ę":{"ha":700,"x_min":67,"x_max":782,"o":"m 597 307 l 736 307 q 504 49 672 150 q 463 21 486 38 q 338 -68 381 -32 q 275 -174 275 -121 q 317 -208 275 -208 q 393 -161 354 -208 l 442 -206 q 304 -276 369 -276 q 227 -250 257 -276 q 197 -182 197 -224 q 315 -10 197 -94 q 258 -14 282 -14 q 118 27 169 -14 q 67 139 67 68 q 113 271 67 203 q 224 371 160 339 q 256 399 256 386 q 242 432 256 406 q 215 532 215 482 q 344 807 215 688 q 638 926 472 926 q 782 829 782 926 q 725 701 782 783 l 589 507 l 497 586 l 624 760 q 644 797 644 789 q 610 817 644 817 q 434 720 525 817 q 343 533 343 624 q 393 410 343 474 q 413 369 413 385 q 374 324 413 343 q 199 163 199 235 q 278 108 199 108 q 499 196 389 108 q 597 307 547 235 z "},"ę":{"ha":458,"x_min":-6,"x_max":460,"o":"m 460 224 l 460 113 q 374 53 425 86 q 332 25 356 42 q 218 -58 244 -35 q 164 -151 164 -106 q 196 -179 164 -179 q 261 -136 226 -179 l 308 -179 q 186 -244 242 -244 q 117 -221 143 -244 q 90 -158 90 -197 q 178 -12 90 -83 q 154 -14 164 -14 q 38 35 81 -14 q -6 167 -6 83 q 89 371 -6 288 q 321 464 194 464 q 403 437 371 464 q 435 367 435 410 q 311 197 435 268 q 131 142 250 163 q 197 92 146 92 q 460 224 288 92 m 136 232 q 149 235 139 233 q 199 249 175 240 q 311 342 311 292 q 283 368 311 368 q 188 318 239 368 q 136 232 154 285 z "},"Ě":{"ha":700,"x_min":67,"x_max":889,"o":"m 597 307 l 736 307 q 551 79 675 172 q 256 -14 426 -14 q 118 28 169 -14 q 67 139 67 69 q 113 271 67 203 q 224 371 160 339 q 256 399 256 386 q 242 432 256 406 q 215 532 215 482 q 344 807 215 688 q 638 926 472 926 q 782 829 782 926 q 725 701 782 783 l 589 507 l 497 586 l 624 760 q 644 797 644 789 q 610 817 644 817 q 434 720 525 817 q 343 533 343 624 q 393 410 343 474 q 413 369 413 385 q 374 324 413 343 q 199 163 199 235 q 278 108 199 108 q 499 196 389 108 q 597 307 547 235 m 714 982 l 606 982 l 479 1150 l 608 1150 l 674 1060 l 763 1150 l 889 1150 l 714 982 z "},"ě":{"ha":458,"x_min":-6,"x_max":556,"o":"m 460 224 l 460 113 q 154 -14 296 -14 q 38 34 81 -14 q -6 165 -6 82 q 89 371 -6 288 q 321 464 194 464 q 403 437 371 464 q 435 367 435 410 q 311 197 435 268 q 131 142 250 163 q 197 92 146 92 q 460 224 288 92 m 136 232 q 257 276 203 242 q 311 342 311 310 q 283 368 311 368 q 188 318 239 368 q 136 232 154 285 m 385 526 l 288 526 l 188 696 l 304 696 l 356 604 l 443 696 l 556 696 l 385 526 z "},"Ĝ":{"ha":747,"x_min":99,"x_max":872,"o":"m 606 488 l 606 624 q 701 746 701 682 q 632 808 701 808 q 484 740 563 808 q 338 550 406 671 q 229 210 229 357 q 311 107 229 107 q 569 304 431 107 q 624 421 601 392 q 682 450 647 450 q 742 388 742 450 q 678 258 742 339 q 583 -6 642 133 q 474 -219 524 -144 q 368 -337 396 -337 q 351 -321 350 -337 l 353 -304 q 356 -258 356 -271 q 353 -183 356 -214 q 479 56 443 -50 q 290 -14 392 -14 q 150 47 201 -14 q 99 210 99 107 q 160 481 99 335 q 326 749 222 628 q 647 926 479 926 q 776 878 725 926 q 828 758 828 831 q 733 567 828 658 q 606 488 682 517 m 638 1150 l 746 1150 l 872 982 l 743 982 l 678 1072 l 589 982 l 463 982 l 638 1150 z "},"ĝ":{"ha":564,"x_min":-6,"x_max":567,"o":"m 364 696 l 461 696 l 561 526 l 446 526 l 394 618 l 307 526 l 193 526 l 364 696 m 483 314 l 399 104 q 413 115 407 111 q 532 197 438 135 q 567 224 535 199 l 567 113 q 408 -3 454 36 q 297 -112 361 -43 l 239 -251 q 121 -379 185 -379 q 63 -317 63 -379 q 219 -28 63 -214 l 238 21 q 138 -14 188 -14 q 33 35 72 -14 q -6 165 -6 83 q 57 338 -6 260 q 197 440 115 408 q 410 471 279 471 q 483 465 444 471 l 493 367 q 399 378 438 378 q 202 319 281 378 q 124 171 124 260 q 167 101 124 101 q 372 314 249 101 l 483 314 z "},"Ğ":{"ha":747,"x_min":99,"x_max":919,"o":"m 606 488 l 606 624 q 701 746 701 682 q 632 808 701 808 q 484 740 563 808 q 338 550 406 671 q 229 210 229 357 q 311 107 229 107 q 569 304 431 107 q 624 421 601 392 q 682 450 647 450 q 742 388 742 450 q 678 258 742 339 q 583 -6 642 133 q 474 -219 524 -144 q 368 -337 396 -337 q 351 -321 350 -337 l 353 -304 q 356 -258 356 -271 q 353 -183 356 -214 q 479 56 443 -50 q 290 -14 392 -14 q 150 47 201 -14 q 99 210 99 107 q 160 481 99 335 q 326 749 222 628 q 647 926 479 926 q 776 878 725 926 q 828 758 828 831 q 733 567 828 658 q 606 488 682 517 m 496 1138 l 569 1138 q 694 1058 574 1058 q 791 1076 758 1058 q 844 1138 824 1093 l 919 1138 q 690 969 879 969 q 526 1024 574 969 q 496 1138 496 1060 z "},"ğ":{"ha":564,"x_min":-6,"x_max":608,"o":"m 218 693 l 290 693 q 306 646 293 661 q 400 615 331 615 q 535 693 508 615 l 608 693 q 390 528 561 528 q 221 642 239 528 q 218 693 218 658 m 483 314 l 399 104 q 413 115 407 111 q 532 197 438 135 q 567 224 535 199 l 567 113 q 408 -3 454 36 q 297 -112 361 -43 l 239 -251 q 121 -379 185 -379 q 63 -317 63 -379 q 219 -28 63 -214 l 238 21 q 138 -14 188 -14 q 33 35 72 -14 q -6 165 -6 83 q 57 338 -6 260 q 197 440 115 408 q 410 471 279 471 q 483 465 444 471 l 493 367 q 399 378 438 378 q 202 319 281 378 q 124 171 124 260 q 167 101 124 101 q 372 314 249 101 l 483 314 z "},"Ġ":{"ha":747,"x_min":99,"x_max":828,"o":"m 606 488 l 606 624 q 701 746 701 682 q 632 808 701 808 q 484 740 563 808 q 338 550 406 671 q 229 210 229 357 q 311 107 229 107 q 569 304 431 107 q 624 421 601 392 q 682 450 647 450 q 742 388 742 450 q 678 258 742 339 q 583 -6 642 133 q 474 -219 524 -144 q 368 -337 396 -337 q 351 -321 350 -337 l 353 -304 q 356 -258 356 -271 q 353 -183 356 -214 q 479 56 443 -50 q 290 -14 392 -14 q 150 47 201 -14 q 99 210 99 107 q 160 481 99 335 q 326 749 222 628 q 647 926 479 926 q 776 878 725 926 q 828 758 828 831 q 733 567 828 658 q 606 488 682 517 m 711 1140 q 774 1075 774 1140 q 750 1014 774 1039 q 692 989 726 989 q 628 1057 628 989 q 652 1117 628 1093 q 711 1140 676 1140 z "},"ġ":{"ha":564,"x_min":-6,"x_max":567,"o":"m 404 685 q 467 619 467 685 q 443 558 467 583 q 385 533 419 533 q 321 601 321 533 q 345 661 321 638 q 404 685 369 685 m 483 314 l 399 104 q 413 115 407 111 q 532 197 438 135 q 567 224 535 199 l 567 113 q 408 -3 454 36 q 297 -112 361 -43 l 239 -251 q 121 -379 185 -379 q 63 -317 63 -379 q 219 -28 63 -214 l 238 21 q 138 -14 188 -14 q 33 35 72 -14 q -6 165 -6 83 q 57 338 -6 260 q 197 440 115 408 q 410 471 279 471 q 483 465 444 471 l 493 367 q 399 378 438 378 q 202 319 281 378 q 124 171 124 260 q 167 101 124 101 q 372 314 249 101 l 483 314 z "},"Ģ":{"ha":747,"x_min":97,"x_max":828,"o":"m 606 488 l 606 624 q 701 746 701 682 q 632 808 701 808 q 484 740 563 808 q 338 550 406 671 q 229 211 229 357 q 311 107 229 107 q 569 304 431 107 q 624 421 601 392 q 682 450 647 450 q 742 388 742 450 q 678 258 742 336 q 583 -3 643 136 q 474 -219 524 -143 q 368 -337 396 -337 q 351 -321 350 -337 l 353 -304 q 356 -256 356 -271 q 353 -183 356 -212 q 479 56 447 -42 q 290 -14 392 -14 q 150 47 201 -14 q 99 210 99 107 q 160 481 99 335 q 326 749 222 628 q 647 926 479 926 q 776 878 725 926 q 828 758 828 831 q 733 567 828 658 q 606 488 682 517 m 339 -51 l 189 -199 l 97 -199 l 185 -51 l 339 -51 z "},"ģ":{"ha":564,"x_min":-6,"x_max":567,"o":"m 483 314 l 399 104 q 413 115 407 111 q 532 197 438 135 q 567 224 535 199 l 567 113 q 408 -3 454 36 q 297 -112 361 -43 l 239 -251 q 121 -379 185 -379 q 63 -317 63 -379 q 219 -28 63 -214 l 238 21 q 138 -14 188 -14 q 33 35 72 -14 q -6 165 -6 83 q 57 338 -6 260 q 197 440 115 408 q 410 471 279 471 q 483 465 444 471 l 493 367 q 399 378 438 378 q 202 319 281 378 q 124 171 124 260 q 167 101 124 101 q 372 314 249 101 l 483 314 m 338 561 l 510 810 l 563 810 l 469 561 l 338 561 z "},"Ĥ":{"ha":972,"x_min":-101,"x_max":1083,"o":"m 949 417 l 981 304 q 825 260 926 285 q 756 4 776 108 l 618 4 q 685 236 657 163 q 510 221 624 229 q 372 83 422 124 q 75 -14 254 -14 q -101 115 -101 -14 q 3 257 -101 197 q 179 318 79 300 q 438 336 271 335 q 618 810 581 579 l 747 833 q 693 586 740 732 q 590 347 646 440 q 722 361 649 350 l 832 664 q 978 900 904 840 q 1063 940 1028 940 q 1079 929 1079 940 q 1068 899 1079 924 q 872 393 932 600 l 949 417 m 344 215 q 129 186 207 207 q 26 119 26 158 q 83 92 26 92 q 344 215 215 92 m 849 1150 l 956 1150 l 1083 982 l 954 982 l 888 1072 l 799 982 l 674 982 l 849 1150 z "},"Ħ":{"ha":972,"x_min":-101,"x_max":1086,"o":"m 519 492 l 264 492 l 300 571 l 553 571 q 618 810 599 693 l 747 833 q 688 571 739 719 l 797 571 q 901 808 851 726 q 982 903 936 865 q 1063 940 1028 940 q 1079 929 1079 940 q 1068 899 1079 922 q 929 571 975 696 l 1086 571 l 1051 492 l 903 492 l 890 456 l 885 435 q 872 392 882 426 l 949 417 l 981 304 q 825 260 913 281 q 756 4 775 104 l 618 4 q 685 236 658 161 q 510 221 624 229 q 372 83 422 125 q 75 -14 254 -14 q -101 115 -101 -14 q -28 236 -101 181 q 164 315 46 292 q 438 336 261 335 q 519 492 483 413 m 769 492 l 660 492 q 590 347 632 421 q 722 361 651 350 l 739 406 q 769 492 749 435 m 344 215 q 129 186 207 207 q 26 119 26 158 q 83 92 26 92 q 344 215 215 92 z "},"ħ":{"ha":651,"x_min":-3,"x_max":653,"o":"m 264 647 l 189 647 l 224 726 l 296 726 l 338 828 q 381 911 363 890 q 428 932 400 932 q 475 868 475 932 q 438 726 475 821 l 619 726 l 585 647 l 403 647 q 299 456 350 536 l 203 215 l 432 396 q 553 461 515 461 q 607 419 607 461 q 586 349 607 393 l 496 156 q 485 125 485 132 q 492 115 485 115 q 653 224 514 115 l 653 113 q 390 -19 489 -19 q 351 -3 367 -19 q 336 39 336 14 q 358 111 336 60 l 432 283 l 163 56 q 83 -6 103 4 q 51 -14 71 -14 q 13 18 13 -14 q 32 85 13 33 l 57 151 q -3 110 40 140 l -3 221 q 143 349 56 264 l 264 647 z "},"Ī":{"ha":561,"x_min":-56,"x_max":744,"o":"m -56 17 l 17 129 q 81 113 56 113 q 214 182 139 113 q 342 353 289 251 q 444 592 394 454 q 494 778 494 731 q 472 801 494 801 q 364 701 424 801 q 288 490 304 601 l 142 411 q 247 738 146 572 q 370 876 300 825 q 508 926 440 926 q 591 893 560 926 q 622 803 622 860 q 567 531 622 689 q 424 236 511 374 q 63 -14 264 -14 q -56 17 0 -14 m 744 1096 l 708 1017 l 329 1017 l 364 1096 l 744 1096 z "},"ī":{"ha":343,"x_min":-3,"x_max":488,"o":"m 46 125 l 56 153 q -3 110 39 142 l -3 221 q 169 390 107 308 l 193 453 l 326 458 l 193 153 q 186 131 186 138 q 192 124 186 124 q 207 129 196 124 q 257 161 208 131 q 344 224 275 172 l 344 113 q 93 -14 190 -14 q 29 43 29 -14 q 46 125 29 78 m 488 647 l 453 568 l 153 568 l 188 647 l 488 647 z "},"ĭ":{"ha":343,"x_min":-3,"x_max":524,"o":"m 135 693 l 207 693 q 221 646 211 658 q 315 615 246 615 q 451 693 425 615 l 524 693 q 307 528 479 528 q 147 603 188 528 q 135 686 135 625 l 135 693 m 46 125 l 56 153 q -3 110 39 142 l -3 221 q 169 390 107 308 l 193 453 l 326 458 l 193 153 q 186 131 186 138 q 192 124 186 124 q 207 129 196 124 q 257 161 208 131 q 344 224 275 172 l 344 113 q 93 -14 190 -14 q 29 43 29 -14 q 46 125 29 78 z "},"Į":{"ha":561,"x_min":-56,"x_max":622,"o":"m 288 490 l 142 411 q 247 738 146 572 q 370 876 300 825 q 508 926 440 926 q 591 893 560 926 q 622 803 622 860 q 567 532 622 689 q 424 236 513 375 q 260 54 350 119 q 138 -42 190 3 q 56 -172 56 -111 q 97 -208 56 -208 q 174 -161 135 -208 l 222 -206 q 85 -276 150 -276 q 8 -250 38 -276 q -22 -182 -22 -224 q 72 -14 -22 -92 l 64 -14 q -56 17 -4 -14 l 17 129 q 81 113 56 113 q 214 182 139 113 q 342 353 289 251 q 444 592 394 454 q 494 778 494 731 q 472 801 494 801 q 364 701 424 801 q 288 490 304 601 z "},"į":{"ha":343,"x_min":-49,"x_max":392,"o":"m 346 224 l 346 114 q 226 33 308 82 q 188 8 210 22 q 78 -67 144 -19 q 25 -153 25 -110 q 57 -179 25 -179 q 122 -136 88 -179 l 169 -179 q 47 -244 104 -244 q -22 -221 6 -244 q -49 -160 -49 -197 q 63 -8 -49 -78 q 29 43 29 4 q 47 125 29 74 l 57 153 q -1 110 40 142 l -1 221 q 171 390 107 310 l 194 453 l 328 458 l 194 153 q 188 131 188 138 q 193 124 188 124 q 346 224 210 124 m 329 681 q 392 615 392 681 q 368 553 392 579 q 310 528 344 528 q 246 596 246 528 q 270 656 246 632 q 329 681 294 681 z "},"İ":{"ha":561,"x_min":-56,"x_max":636,"o":"m -56 17 l 17 129 q 81 113 56 113 q 214 182 139 113 q 342 353 289 251 q 444 592 394 454 q 494 778 494 731 q 472 801 494 801 q 364 701 424 801 q 288 490 304 601 l 142 411 q 247 738 146 572 q 370 876 300 825 q 508 926 440 926 q 591 893 560 926 q 622 803 622 860 q 567 531 622 689 q 424 236 511 374 q 63 -14 264 -14 q -56 17 0 -14 m 574 1140 q 636 1075 636 1140 q 613 1014 636 1039 q 554 989 589 989 q 490 1057 490 989 q 515 1117 490 1093 q 574 1140 539 1140 z "},"ı":{"ha":343,"x_min":-3,"x_max":344,"o":"m 46 125 l 56 153 q -3 110 39 142 l -3 221 q 169 390 107 308 l 193 453 l 326 458 l 193 153 q 186 131 186 138 q 192 124 186 124 q 207 129 196 124 q 257 161 208 131 q 344 224 275 172 l 344 113 q 93 -14 190 -14 q 29 43 29 -14 q 46 125 29 78 z "},"Ĳ":{"ha":1135,"x_min":-56,"x_max":1232,"o":"m -56 17 l 17 129 q 81 113 56 113 q 214 182 139 113 q 342 353 289 251 q 444 592 394 454 q 494 778 494 731 q 472 801 494 801 q 364 701 424 801 q 288 490 304 601 l 142 411 q 247 738 146 572 q 370 876 300 825 q 508 926 440 926 q 591 893 560 926 q 622 803 622 860 q 567 531 622 689 q 424 236 511 374 q 63 -14 264 -14 q -56 17 0 -14 m 875 446 l 740 347 q 738 385 738 386 q 786 611 738 483 q 900 814 835 739 q 1113 926 999 926 q 1200 896 1168 926 q 1232 811 1232 865 q 1090 367 1232 692 q 882 -75 985 125 q 740 -286 797 -239 q 624 -333 683 -333 q 527 -298 563 -333 q 492 -203 492 -262 q 672 146 492 -40 q 938 347 763 239 q 1042 599 965 400 q 1100 783 1100 751 q 1078 804 1100 804 q 958 688 1025 804 q 875 446 906 596 m 850 154 q 776 86 811 125 q 663 -68 711 14 q 614 -186 614 -150 q 635 -212 614 -212 q 663 -197 651 -212 q 835 125 697 -149 q 850 154 836 128 z "},"ĳ":{"ha":714,"x_min":-3,"x_max":739,"o":"m 193 453 l 326 458 l 193 153 q 188 131 188 136 q 194 124 188 124 q 263 164 204 124 q 363 239 322 204 q 581 454 471 331 l 682 458 l 543 85 l 715 224 l 715 113 q 693 94 699 100 q 531 -54 626 33 l 494 -87 q 472 -110 489 -93 l 422 -246 q 372 -347 396 -319 q 317 -375 349 -375 q 260 -304 260 -375 q 292 -174 260 -247 q 378 -43 325 -101 l 476 229 q 450 204 465 219 q 281 65 339 104 q 93 -14 160 -14 q 29 43 29 -14 q 46 125 29 78 l 56 153 q -3 110 50 149 l -3 221 q 169 390 107 308 l 193 453 m 328 681 q 390 615 390 681 q 367 553 390 579 q 308 528 343 528 q 244 596 244 528 q 269 656 244 632 q 328 681 293 681 m 675 681 q 739 615 739 681 q 715 553 739 579 q 657 528 692 528 q 592 596 592 528 q 616 656 592 632 q 675 681 640 681 z "},"Ķ":{"ha":697,"x_min":14,"x_max":860,"o":"m 14 0 l 203 404 q 194 419 201 407 q 178 464 178 449 q 213 518 178 492 q 269 553 240 535 l 432 913 l 572 913 l 439 624 q 728 913 619 753 l 860 913 q 691 686 783 775 q 388 461 599 597 q 351 428 351 438 q 413 328 351 415 q 572 128 504 196 q 738 0 639 61 l 518 0 q 290 296 449 65 l 157 0 l 14 0 m 351 -51 l 201 -199 l 110 -199 l 197 -51 l 351 -51 z "},"ķ":{"ha":644,"x_min":-3,"x_max":647,"o":"m 304 457 l 261 353 q 374 440 326 415 q 479 464 421 464 q 571 435 535 464 q 607 361 607 406 q 547 235 607 296 q 394 146 486 174 q 381 110 381 122 q 396 97 381 97 q 647 224 465 97 l 647 113 q 346 -14 468 -14 q 254 78 254 -14 q 304 222 254 133 q 442 293 400 249 q 469 344 469 324 q 450 363 469 363 q 328 286 413 363 q 250 206 279 243 q 136 43 221 168 q 50 -14 97 -14 q 13 19 13 -14 q 51 150 13 31 l -3 110 l -1 221 q 140 353 72 283 l 335 829 q 380 916 361 894 q 426 938 399 938 q 465 922 450 938 q 481 882 481 906 q 428 706 481 832 q 304 457 375 579 m 261 -51 l 111 -199 l 19 -199 l 107 -51 l 261 -51 z "},"ĸ":{"ha":690,"x_min":-25,"x_max":772,"o":"m 772 668 l 399 397 l 593 0 l 457 0 l 299 322 l 160 224 l 89 0 l -25 0 l 186 668 l 300 668 l 197 344 l 639 668 l 772 668 z "},"Ĺ":{"ha":732,"x_min":-112,"x_max":839,"o":"m 689 158 l 646 33 q 351 -4 464 -4 q 151 24 247 -4 q 8 -10 81 -10 q -112 67 -112 -10 q 29 151 -112 151 q 129 143 63 151 q 204 249 174 186 q 295 478 235 311 q 392 720 356 646 q 472 842 428 794 q 651 926 553 926 q 758 887 715 926 q 801 789 801 847 q 669 439 801 676 l 500 401 q 669 771 669 688 q 636 810 669 810 q 547 738 590 810 q 488 619 511 676 q 396 365 465 561 q 271 125 350 235 q 358 119 326 119 q 689 158 461 119 m 692 1150 l 839 1150 l 700 982 l 600 982 l 692 1150 z "},"ĺ":{"ha":340,"x_min":-3,"x_max":600,"o":"m 342 224 l 342 113 q 301 81 315 93 q 215 14 238 28 q 115 -14 168 -14 q 39 42 39 -14 q 49 104 39 71 l 65 161 q -3 110 49 147 l -3 221 q 132 350 79 285 l 286 817 q 375 933 325 933 q 414 871 414 933 q 274 442 414 721 l 174 142 q 168 117 168 125 q 182 100 168 100 q 342 224 200 100 m 453 1150 l 600 1150 l 461 982 l 361 982 l 453 1150 z "},"Ļ":{"ha":732,"x_min":-112,"x_max":801,"o":"m 689 158 l 646 33 q 351 -4 464 -4 q 151 24 247 -4 q 8 -10 81 -10 q -112 67 -112 -10 q 29 151 -112 151 q 129 143 63 151 q 204 249 174 186 q 295 478 235 311 q 392 720 356 646 q 472 842 428 794 q 651 926 553 926 q 758 887 715 926 q 801 789 801 847 q 669 439 801 676 l 500 401 q 669 771 669 688 q 636 810 669 810 q 547 738 590 810 q 488 619 511 676 q 396 365 465 561 q 271 125 350 235 q 358 119 326 119 q 689 158 461 119 m 356 -51 l 206 -199 l 114 -199 l 201 -51 l 356 -51 z "},"ļ":{"ha":340,"x_min":-75,"x_max":415,"o":"m 343 224 l 343 113 l 301 81 q 215 14 238 28 q 115 -14 168 -14 q 39 42 39 -14 q 49 104 39 71 l 65 161 q -3 110 33 136 l -3 221 q 132 350 79 285 l 286 817 q 376 933 325 933 q 415 871 415 933 q 274 442 415 719 l 174 142 q 168 117 168 125 q 182 100 168 100 q 343 224 201 100 m 167 -51 l 17 -199 l -75 -199 l 13 -51 l 167 -51 z "},"Ľ":{"ha":797,"x_min":-112,"x_max":1076,"o":"m 689 158 l 646 33 q 351 -4 464 -4 q 151 24 247 -4 q 8 -10 81 -10 q -112 67 -112 -10 q 29 151 -112 151 q 129 143 63 151 q 204 249 174 186 q 295 478 235 311 q 392 720 356 646 q 472 842 428 794 q 651 926 553 926 q 758 887 715 926 q 801 789 801 847 q 669 439 801 676 l 500 401 q 669 771 669 688 q 636 810 669 810 q 547 738 590 810 q 488 619 511 676 q 396 365 465 561 q 271 125 350 235 q 358 119 326 119 q 689 158 461 119 m 1076 926 l 878 640 l 818 640 l 924 926 l 1076 926 z "},"ľ":{"ha":553,"x_min":-3,"x_max":700,"o":"m 700 926 l 501 640 l 443 640 l 549 926 l 700 926 m 342 224 l 342 113 q 301 81 315 93 q 215 14 238 28 q 115 -14 168 -14 q 39 42 39 -14 q 49 104 39 71 l 65 161 q -3 110 49 147 l -3 221 q 132 350 79 285 l 286 817 q 375 933 325 933 q 414 871 414 933 q 274 442 414 721 l 174 142 q 168 117 168 125 q 182 100 168 100 q 342 224 200 100 z "},"Ŀ":{"ha":732,"x_min":-112,"x_max":801,"o":"m 689 158 l 646 33 q 351 -4 464 -4 q 151 24 247 -4 q 8 -10 81 -10 q -112 67 -112 -10 q 29 151 -112 151 q 129 143 63 151 q 204 249 174 186 q 295 478 235 311 q 392 720 356 646 q 472 842 428 794 q 651 926 553 926 q 758 887 715 926 q 801 789 801 847 q 669 439 801 676 l 500 401 q 669 771 669 688 q 636 810 669 810 q 547 738 590 810 q 488 619 511 676 q 396 365 465 561 q 271 125 350 235 q 358 119 326 119 q 689 158 461 119 m 586 372 q 669 288 669 372 q 638 208 669 240 q 563 175 607 175 q 501 199 524 175 q 478 263 478 222 q 509 341 478 310 q 586 372 540 372 z "},"ŀ":{"ha":531,"x_min":-3,"x_max":588,"o":"m 506 547 q 588 463 588 547 q 557 383 588 415 q 482 350 526 350 q 420 374 443 350 q 397 438 397 397 q 428 516 397 485 q 506 547 460 547 m 342 224 l 342 113 q 301 81 315 93 q 215 14 238 28 q 115 -14 168 -14 q 39 42 39 -14 q 49 104 39 71 l 65 161 q -3 110 49 147 l -3 221 q 132 350 79 285 l 286 817 q 375 933 325 933 q 414 871 414 933 q 274 442 414 721 l 174 142 q 168 117 168 125 q 182 100 168 100 q 342 224 200 100 z "},"Ł":{"ha":732,"x_min":-112,"x_max":801,"o":"m 689 158 l 646 33 q 351 -4 464 -4 q 151 24 247 -4 q 8 -10 81 -10 q -112 67 -112 -10 q 29 151 -112 151 q 129 143 63 151 q 203 246 165 179 q 88 224 164 238 l 33 325 l 74 333 q 156 347 108 339 q 254 367 186 353 l 294 476 q 394 727 363 660 q 472 842 426 794 q 651 926 553 926 q 758 887 715 926 q 801 790 801 847 q 726 547 801 701 l 568 524 q 669 771 669 718 q 638 810 669 810 q 543 730 590 810 q 432 465 496 650 q 413 411 428 453 q 526 454 465 426 l 578 357 q 363 283 463 307 q 271 125 325 204 q 358 119 326 119 q 689 158 461 119 z "},"ł":{"ha":340,"x_min":-3,"x_max":415,"o":"m 415 565 l 415 454 q 396 436 397 436 q 289 329 360 400 q 213 257 268 310 l 174 142 q 168 117 168 125 q 182 100 168 100 q 342 224 200 100 l 342 113 q 301 81 315 93 q 215 14 238 28 q 115 -14 168 -14 q 39 42 39 -14 q 49 104 39 71 l 65 161 q -3 110 49 147 l -3 221 q 132 350 79 285 l 286 817 q 375 933 325 933 q 414 871 414 933 q 274 442 414 721 l 267 421 l 344 497 q 415 565 351 504 z "},"Ņ":{"ha":746,"x_min":-74,"x_max":849,"o":"m 83 -36 l -74 -36 q 185 422 79 172 l 356 826 q 467 926 397 926 q 539 880 525 926 q 553 667 553 833 l 553 324 l 621 500 q 814 863 724 767 l 849 703 q 719 418 776 575 l 603 94 q 493 -6 567 -6 q 428 110 428 -6 l 426 688 l 243 260 q 83 -36 188 131 m 353 -51 l 203 -199 l 111 -199 l 199 -51 l 353 -51 z "},"ņ":{"ha":642,"x_min":-3,"x_max":643,"o":"m 313 456 l 225 265 l 438 421 q 546 468 501 468 q 603 424 603 468 q 582 365 603 413 l 492 163 q 481 135 481 138 q 490 128 481 128 q 643 224 518 128 l 643 113 q 485 10 533 35 q 393 -14 438 -14 q 332 43 332 -14 q 347 107 332 72 l 425 285 l 126 32 q 51 -14 72 -14 q 13 29 13 -14 q 26 90 13 54 l 50 151 q -3 110 36 140 l -3 221 q 158 378 103 304 l 193 450 l 313 456 m 290 -51 l 140 -199 l 49 -199 l 136 -51 l 290 -51 z "},"Ň":{"ha":746,"x_min":-74,"x_max":910,"o":"m 83 -36 l -74 -36 q 185 422 79 172 l 356 826 q 467 926 397 926 q 539 880 525 926 q 553 667 553 833 l 553 324 l 621 500 q 814 863 724 767 l 849 703 q 719 418 776 575 l 603 94 q 493 -6 567 -6 q 428 110 428 -6 l 426 688 l 243 260 q 83 -36 188 131 m 735 982 l 626 982 l 500 1150 l 629 1150 l 694 1060 l 783 1150 l 910 1150 l 735 982 z "},"ň":{"ha":642,"x_min":-3,"x_max":664,"o":"m 313 456 l 225 265 l 438 421 q 546 468 501 468 q 603 424 603 468 q 582 365 603 413 l 492 163 q 481 135 481 138 q 490 128 481 128 q 643 224 518 128 l 643 113 q 485 10 533 35 q 393 -14 438 -14 q 332 43 332 -14 q 347 107 332 72 l 425 285 l 126 32 q 51 -14 72 -14 q 13 29 13 -14 q 26 90 13 54 l 50 151 q -3 110 36 140 l -3 221 q 158 378 103 304 l 193 450 l 313 456 m 493 526 l 396 526 l 296 696 l 413 696 l 464 604 l 551 696 l 664 696 l 493 526 z "},"ŉ":{"ha":958,"x_min":193,"x_max":958,"o":"m 451 926 l 253 640 l 193 640 l 299 926 l 451 926 m 958 222 l 958 111 q 803 10 851 35 q 711 -14 756 -14 q 650 43 650 -14 q 664 107 650 76 l 743 285 l 443 32 q 368 -14 389 -14 q 329 29 329 -14 q 344 90 329 49 l 367 151 q 317 111 354 140 l 317 222 q 475 378 418 301 l 511 450 l 629 456 l 542 265 l 754 421 q 863 468 818 468 q 919 424 919 468 q 899 365 919 413 l 808 163 q 799 135 799 140 q 808 128 799 128 q 958 222 836 128 z "},"Ō":{"ha":824,"x_min":90,"x_max":933,"o":"m 546 450 l 404 389 q 492 639 406 529 q 701 757 583 757 q 813 713 771 757 q 856 597 856 669 q 803 380 856 506 q 679 169 751 254 q 328 -14 521 -14 q 153 52 217 -14 q 90 236 90 118 q 162 509 90 360 q 340 761 233 658 q 512 880 415 833 q 681 926 608 926 q 751 872 751 926 q 735 831 751 849 q 650 800 724 818 q 314 533 453 751 q 219 242 219 386 q 251 138 219 176 q 338 100 283 100 q 512 173 429 100 q 660 374 594 246 q 725 596 725 503 q 686 642 725 642 q 582 564 625 642 q 546 450 557 518 m 933 1096 l 899 1017 l 518 1017 l 554 1096 l 933 1096 z "},"ō":{"ha":499,"x_min":-6,"x_max":535,"o":"m 535 647 l 499 568 l 161 568 l 196 647 l 535 647 m 501 224 l 501 113 q 417 83 457 83 q 357 93 397 83 q 156 -14 285 -14 q -6 164 -6 -14 q 25 307 -6 238 q 127 435 60 388 q 275 482 194 482 q 385 444 340 482 q 431 351 431 407 q 399 281 431 324 q 407 236 407 258 q 399 189 407 213 q 417 183 408 183 q 501 224 447 183 m 308 306 q 311 322 311 319 q 297 352 311 339 q 268 365 283 365 q 167 306 211 365 q 122 169 122 246 q 185 94 122 94 q 236 119 208 94 q 267 143 251 133 q 246 199 246 174 q 308 306 246 267 z "},"Ő":{"ha":824,"x_min":90,"x_max":1017,"o":"m 546 450 l 404 389 q 492 639 406 529 q 701 757 583 757 q 813 713 771 757 q 856 597 856 669 q 803 380 856 506 q 679 169 751 254 q 328 -14 521 -14 q 153 52 217 -14 q 90 236 90 118 q 162 509 90 360 q 340 761 233 658 q 512 880 415 833 q 681 926 608 926 q 751 872 751 926 q 735 831 751 849 q 650 800 724 818 q 314 533 453 751 q 219 242 219 386 q 251 138 219 176 q 338 100 283 100 q 512 173 429 100 q 660 374 594 246 q 725 596 725 503 q 686 642 725 642 q 582 564 625 642 q 546 450 557 518 m 665 1150 l 814 1150 l 675 982 l 575 982 l 665 1150 m 869 1150 l 1017 1150 l 879 982 l 778 982 l 869 1150 z "},"ő":{"ha":499,"x_min":-6,"x_max":576,"o":"m 263 696 l 390 696 l 253 526 l 171 526 l 263 696 m 447 696 l 576 696 l 438 526 l 356 526 l 447 696 m 501 224 l 501 113 q 417 83 457 83 q 357 93 397 83 q 156 -14 285 -14 q -6 164 -6 -14 q 25 307 -6 238 q 127 435 60 388 q 275 482 194 482 q 385 444 340 482 q 431 351 431 407 q 399 281 431 324 q 407 236 407 258 q 399 189 407 213 q 417 183 408 183 q 501 224 447 183 m 308 306 q 311 322 311 319 q 297 352 311 339 q 268 365 283 365 q 167 306 211 365 q 122 169 122 246 q 185 94 122 94 q 236 119 208 94 q 267 143 251 133 q 246 199 246 174 q 308 306 246 267 z "},"Œ":{"ha":1150,"x_min":113,"x_max":1231,"o":"m 1046 307 l 1185 307 q 999 80 1124 174 q 704 -14 875 -14 q 550 44 604 -14 q 353 -14 449 -14 q 176 52 239 -14 q 113 236 113 118 q 184 509 113 360 q 363 761 256 658 q 534 880 438 833 q 703 926 631 926 q 774 872 774 926 q 759 833 774 847 q 672 800 744 818 q 336 533 475 751 q 242 243 242 386 q 274 140 242 178 q 363 101 307 101 q 517 163 419 101 q 568 279 522 217 q 672 371 614 342 q 704 399 704 388 q 690 432 704 406 q 664 532 664 482 q 792 807 664 688 q 1086 926 919 926 q 1231 829 1231 926 q 1174 701 1231 783 l 1038 507 l 946 586 l 1072 760 q 1093 797 1093 789 q 1058 817 1093 817 q 883 720 974 817 q 792 533 792 624 q 850 399 792 482 q 861 369 861 382 q 822 324 861 343 q 647 163 647 233 q 726 108 647 108 q 947 196 836 108 q 1046 307 999 236 z "},"œ":{"ha":732,"x_min":-6,"x_max":735,"o":"m 735 224 l 735 113 q 428 -14 581 -14 q 308 38 351 -14 q 157 -14 238 -14 q -6 163 -6 -14 q 77 381 -6 290 q 276 472 160 472 q 411 414 361 472 q 593 474 507 474 q 677 444 644 474 q 710 368 710 415 q 585 197 710 269 q 404 142 522 161 q 468 92 419 92 q 629 147 543 92 q 735 224 651 161 m 271 138 q 268 169 268 165 q 332 344 268 263 q 272 365 314 365 q 167 306 213 365 q 122 171 122 247 q 181 96 122 96 q 271 138 225 96 m 411 232 q 532 276 478 243 q 586 342 586 310 q 558 368 586 368 q 461 318 513 368 q 411 232 429 288 z "},"Ŗ":{"ha":731,"x_min":107,"x_max":733,"o":"m 726 21 l 610 -58 q 417 189 536 63 q 344 306 344 265 q 399 379 344 343 q 520 467 492 442 q 569 532 549 493 q 604 697 604 599 q 533 808 604 808 q 428 718 471 808 q 389 626 404 669 q 303 372 374 583 q 236 69 289 185 q 146 -19 196 -19 q 107 42 107 -19 q 218 489 107 150 q 369 832 304 751 q 553 926 446 926 q 689 857 644 926 q 733 692 733 788 q 707 531 733 626 q 510 307 672 403 q 500 296 500 301 q 592 194 500 292 q 726 21 683 97 m 435 -51 l 285 -199 l 193 -199 l 281 -51 l 435 -51 z "},"ŗ":{"ha":476,"x_min":-3,"x_max":479,"o":"m 275 364 l 240 364 q 135 231 210 310 q -3 110 60 153 l -3 221 q 154 413 85 296 q 136 468 136 443 q 157 524 136 503 q 211 544 178 544 q 259 526 240 544 q 276 479 278 508 l 275 457 l 338 457 q 424 393 424 457 q 401 321 424 367 l 317 147 q 311 131 311 131 q 321 121 311 121 q 479 224 344 121 l 479 113 q 232 -14 321 -14 q 163 51 163 -14 q 189 142 163 88 l 283 333 q 292 353 292 350 q 275 364 292 364 m 288 -51 l 139 -199 l 47 -199 l 133 -51 l 288 -51 z "},"Ř":{"ha":731,"x_min":107,"x_max":821,"o":"m 726 21 l 610 -58 q 417 189 535 65 q 344 306 344 265 q 399 379 344 343 q 520 467 492 442 q 569 532 549 493 q 604 697 604 599 q 533 808 604 808 q 428 718 471 808 q 344 494 399 657 q 303 372 331 454 q 236 69 289 185 q 146 -19 196 -19 q 107 42 107 -19 q 219 489 107 147 q 369 832 307 756 q 553 926 446 926 q 689 856 644 926 q 733 696 733 786 q 707 531 733 625 q 510 307 671 404 q 500 296 500 301 q 592 194 500 292 q 726 21 683 97 m 646 982 l 538 982 l 411 1150 l 540 1150 l 606 1060 l 694 1150 l 821 1150 l 646 982 z "},"ř":{"ha":476,"x_min":-3,"x_max":578,"o":"m 406 574 l 308 574 l 208 742 l 325 742 l 376 651 l 464 742 l 578 742 l 406 574 m 275 364 l 240 364 q 135 231 210 310 q -3 110 60 153 l -3 221 q 154 413 85 296 q 136 468 136 443 q 157 524 136 503 q 211 544 178 544 q 259 526 240 544 q 276 479 278 508 l 275 457 l 338 457 q 424 393 424 457 q 401 321 424 367 l 317 147 q 311 131 311 131 q 321 121 311 121 q 479 224 344 121 l 479 113 q 232 -14 321 -14 q 163 51 163 -14 q 189 142 163 88 l 283 333 q 292 353 292 350 q 275 364 292 364 z "},"Ś":{"ha":761,"x_min":0,"x_max":879,"o":"m 483 550 l 504 672 q 638 722 579 686 q 697 793 697 758 q 661 815 697 815 q 486 760 574 815 q 358 592 358 679 q 421 504 358 543 q 574 432 449 486 q 717 260 717 369 q 678 136 717 196 q 578 46 639 76 q 279 -14 457 -14 q 0 144 0 -14 q 80 274 0 225 q 288 324 160 324 q 388 314 338 324 l 361 199 l 339 199 l 307 200 q 276 201 275 201 q 174 188 214 201 q 133 153 133 174 q 267 113 133 113 q 497 148 411 113 q 582 243 582 183 q 540 307 582 281 q 451 349 524 318 q 308 433 368 385 q 235 576 235 494 q 339 793 235 696 q 669 926 482 926 q 777 894 738 926 q 817 806 817 863 q 703 631 817 710 q 483 550 594 556 m 722 1150 l 879 1150 l 740 982 l 631 982 l 722 1150 z "},"ś":{"ha":443,"x_min":-3,"x_max":521,"o":"m 382 789 l 521 789 l 383 619 l 292 619 l 382 789 m 444 224 l 444 113 q 207 4 303 4 q 176 7 207 4 q 114 -14 149 -14 q 44 9 74 -14 q 15 63 15 32 q 43 92 15 92 q 64 90 51 92 q 104 88 88 88 q 151 90 104 88 q 189 173 174 115 q 204 286 204 231 q 206 301 204 293 q -3 110 90 181 l -3 221 q 222 461 128 332 q 248 574 225 542 q 308 606 271 606 q 363 547 363 606 q 328 461 363 504 q 338 342 338 378 q 289 122 338 215 q 444 224 342 143 z "},"Ŝ":{"ha":761,"x_min":0,"x_max":889,"o":"m 483 550 l 504 672 q 638 722 579 686 q 697 793 697 758 q 661 815 697 815 q 486 760 574 815 q 358 592 358 679 q 421 504 358 543 q 574 432 449 486 q 717 260 717 369 q 678 136 717 196 q 578 46 639 76 q 279 -14 457 -14 q 0 144 0 -14 q 80 274 0 225 q 288 324 160 324 q 388 314 338 324 l 361 199 l 339 199 l 307 200 q 276 201 275 201 q 174 188 214 201 q 133 153 133 174 q 267 113 133 113 q 497 148 411 113 q 582 243 582 183 q 540 307 582 281 q 451 349 524 318 q 308 433 368 385 q 235 576 235 494 q 339 793 235 696 q 669 926 482 926 q 777 894 738 926 q 817 806 817 863 q 703 631 817 710 q 483 550 594 556 m 654 1150 l 763 1150 l 889 982 l 760 982 l 694 1072 l 606 982 l 479 982 l 654 1150 z "},"ŝ":{"ha":443,"x_min":-3,"x_max":506,"o":"m 308 788 l 406 788 l 506 619 l 389 619 l 338 710 l 250 619 l 136 619 l 308 788 m 444 224 l 444 113 q 207 4 303 4 q 176 7 207 4 q 114 -14 149 -14 q 44 9 74 -14 q 15 63 15 32 q 43 92 15 92 q 64 90 51 92 q 104 88 88 88 q 151 90 104 88 q 189 173 174 115 q 204 286 204 231 q 206 301 204 293 q -3 110 90 181 l -3 221 q 222 461 128 332 q 248 574 225 542 q 308 606 271 606 q 363 547 363 606 q 328 461 363 504 q 338 342 338 378 q 289 122 338 215 q 444 224 342 143 z "},"Ş":{"ha":761,"x_min":0,"x_max":817,"o":"m 311 -12 l 258 -90 q 314 -78 290 -78 q 386 -160 386 -78 q 338 -268 386 -222 q 225 -314 290 -314 q 114 -214 128 -314 l 192 -214 q 229 -246 192 -246 q 286 -222 263 -246 q 310 -164 310 -199 q 272 -128 310 -128 q 219 -151 247 -128 l 140 -151 l 235 -12 q 0 144 0 1 q 80 274 0 225 q 288 324 160 324 q 388 314 338 324 l 361 199 l 339 199 l 307 200 q 276 201 275 201 q 174 188 214 201 q 133 151 133 174 q 267 111 133 111 q 497 147 411 111 q 582 242 582 182 q 540 306 582 279 q 451 347 528 314 q 308 432 365 385 q 235 575 235 493 q 339 793 235 696 q 669 926 482 926 q 777 894 738 926 q 817 806 817 863 q 703 631 817 710 q 483 550 594 556 l 504 672 q 639 722 581 686 q 697 793 697 758 q 661 815 697 815 q 486 760 574 815 q 358 592 358 679 q 421 504 358 543 q 574 432 449 486 q 717 260 717 369 q 625 76 717 154 q 311 -12 528 -6 z "},"ş":{"ha":443,"x_min":-22,"x_max":446,"o":"m 165 -1 l 115 -74 q 151 -67 132 -67 q 218 -140 218 -67 q 176 -236 218 -196 q 78 -276 135 -276 q -22 -183 -10 -276 l 51 -183 q 81 -211 51 -211 q 126 -192 107 -211 q 144 -144 144 -172 q 118 -117 144 -117 q 74 -137 99 -117 l -1 -137 l 85 -10 q 17 63 17 14 q 44 92 17 92 q 65 90 53 92 q 106 88 89 88 q 153 90 106 88 q 190 173 175 115 q 206 286 206 231 q 207 301 206 293 q -1 110 90 179 l -1 221 q 224 461 129 332 q 249 574 226 542 q 310 606 272 606 q 364 547 364 606 q 329 461 364 504 q 339 342 339 378 q 290 122 339 215 q 446 224 343 143 l 446 113 q 208 4 304 4 q 178 7 208 4 q 165 -1 175 4 z "},"Š":{"ha":761,"x_min":0,"x_max":917,"o":"m 483 550 l 504 672 q 640 722 581 686 q 699 793 699 758 q 663 815 699 815 q 488 760 576 815 q 358 592 358 679 q 397 520 358 549 q 576 431 435 492 q 717 260 717 369 q 678 136 717 196 q 578 46 639 76 q 279 -14 457 -14 q 0 144 0 -14 q 80 274 0 225 q 288 324 160 324 q 388 314 338 324 l 361 199 l 339 199 l 307 200 q 276 201 275 201 q 174 188 214 201 q 133 153 133 174 q 267 113 133 113 q 497 148 411 113 q 582 243 582 183 q 540 307 582 281 q 451 349 524 318 q 308 433 368 385 q 235 576 235 494 q 339 793 235 696 q 671 926 482 926 q 778 894 739 926 q 818 806 818 863 q 703 631 818 710 q 483 550 594 556 m 742 990 l 633 990 l 507 1160 l 636 1160 l 701 1068 l 790 1160 l 917 1160 l 742 990 z "},"š":{"ha":443,"x_min":-3,"x_max":522,"o":"m 444 224 l 444 113 q 207 4 303 4 q 176 7 207 4 q 114 -14 149 -14 q 44 9 74 -14 q 15 63 15 32 q 43 92 15 92 q 64 90 51 92 q 104 88 88 88 q 151 90 104 88 q 206 283 206 160 l 206 301 q -3 110 85 175 l -3 221 q 222 461 165 364 q 231 479 224 475 q 286 496 256 496 q 338 339 338 496 q 289 122 338 215 q 444 224 342 143 m 351 536 l 254 536 l 154 704 l 269 704 l 321 614 l 408 704 l 522 704 l 351 536 z "},"Ţ":{"ha":725,"x_min":79,"x_max":894,"o":"m 481 -28 l 310 -28 q 679 736 476 207 q 274 626 481 704 q 247 608 247 617 q 386 521 247 592 l 296 431 q 138 523 197 472 q 79 617 79 574 q 236 740 79 686 q 724 854 400 797 q 824 926 763 926 q 894 861 894 926 q 831 769 894 810 q 481 -28 601 168 m 456 -51 l 307 -199 l 215 -199 l 301 -51 l 456 -51 z "},"ţ":{"ha":379,"x_min":-74,"x_max":469,"o":"m 60 99 l 90 175 q -1 110 49 149 l -1 221 q 178 396 99 296 l 229 524 l 129 524 l 158 618 l 265 618 q 417 881 326 881 q 456 836 456 881 q 379 618 456 788 l 469 618 l 447 524 l 346 524 l 188 136 q 182 115 182 122 q 194 101 182 101 q 351 201 218 101 q 382 224 361 208 l 382 113 q 214 12 269 38 q 108 -14 158 -14 q 46 39 46 -14 q 60 99 46 64 m 168 -51 l 18 -199 l -74 -199 l 14 -51 l 168 -51 z "},"Ť":{"ha":725,"x_min":79,"x_max":1024,"o":"m 479 -28 l 310 -28 q 679 736 479 213 q 274 626 474 703 q 247 608 247 617 q 386 521 247 593 l 296 431 q 138 523 197 472 q 79 617 79 574 q 236 740 79 686 q 724 854 400 797 q 824 926 764 926 q 894 861 894 926 q 831 769 894 811 q 622 249 693 410 q 479 -28 551 89 m 849 982 l 740 982 l 614 1150 l 743 1150 l 808 1060 l 897 1150 l 1024 1150 l 849 982 z "},"ť":{"ha":379,"x_min":-3,"x_max":667,"o":"m 381 224 l 381 113 q 213 12 268 38 q 107 -14 158 -14 q 46 39 46 -14 q 58 99 46 68 l 89 175 q -3 110 47 149 l -3 221 q 176 396 97 296 l 229 524 l 128 524 l 157 618 l 265 618 q 415 881 325 881 q 454 836 454 881 q 379 618 454 789 l 468 618 l 446 524 l 346 524 l 186 136 q 181 115 181 122 q 193 101 181 101 q 351 201 214 101 q 381 224 360 208 m 492 946 l 383 946 l 257 1114 l 386 1114 l 451 1024 l 540 1114 l 667 1114 l 492 946 z "},"ũ":{"ha":644,"x_min":-3,"x_max":674,"o":"m 588 683 l 674 683 q 621 588 656 618 q 533 550 579 550 q 475 563 500 550 q 426 583 464 568 q 397 592 406 592 q 363 557 376 592 l 275 557 q 408 690 318 690 q 485 664 431 690 q 542 644 526 644 q 588 683 574 644 m 385 190 l 176 31 q 68 -14 118 -14 q 11 31 11 -14 q 22 79 11 53 l 49 143 q -3 110 22 128 l -3 221 q 149 369 128 325 l 186 449 l 307 454 l 176 149 l 263 221 q 514 451 414 346 l 624 457 l 490 157 q 483 136 483 142 q 490 128 483 128 q 646 224 515 128 l 646 113 q 393 -14 465 -14 q 338 39 338 -14 q 354 111 338 68 l 385 190 z "},"Ū":{"ha":903,"x_min":56,"x_max":1042,"o":"m 200 479 l 56 417 q 153 715 89 596 q 442 926 265 926 q 543 888 504 926 q 582 788 582 850 q 546 654 582 731 l 303 143 l 840 704 l 897 804 l 1042 844 l 851 444 q 731 17 732 194 l 592 -14 q 676 339 599 149 l 390 58 q 249 -10 321 -10 q 161 72 161 -10 q 222 253 161 117 l 428 708 q 446 776 446 749 q 414 808 446 808 q 276 692 343 808 q 200 479 247 642 m 1024 1096 l 989 1017 l 608 1017 l 644 1096 l 1024 1096 z "},"ū":{"ha":643,"x_min":-3,"x_max":646,"o":"m 385 190 l 176 31 q 68 -14 118 -14 q 11 31 11 -14 q 22 79 11 53 l 49 143 q -3 110 22 128 l -3 221 q 149 369 128 325 l 186 449 l 307 454 l 176 149 l 263 221 q 514 451 414 346 l 624 457 l 490 157 q 483 136 483 142 q 490 128 483 128 q 646 224 515 128 l 646 113 q 393 -14 465 -14 q 338 39 338 -14 q 354 111 338 68 l 385 190 m 635 647 l 600 568 l 263 568 l 297 647 l 635 647 z "},"ŭ":{"ha":644,"x_min":-3,"x_max":660,"o":"m 271 693 l 343 693 q 357 646 347 658 q 451 615 382 615 q 588 693 561 615 l 660 693 q 443 528 615 528 q 283 603 324 528 q 271 686 271 625 l 271 693 m 385 190 l 176 31 q 68 -14 118 -14 q 11 31 11 -14 q 22 79 11 53 l 49 143 q -3 110 22 128 l -3 221 q 149 369 128 325 l 186 449 l 307 454 l 176 149 l 263 221 q 514 451 414 346 l 624 457 l 490 157 q 483 136 483 142 q 490 128 483 128 q 646 224 515 128 l 646 113 q 393 -14 465 -14 q 338 39 338 -14 q 354 111 338 68 l 385 190 z "},"Ů":{"ha":903,"x_min":56,"x_max":1042,"o":"m 200 479 l 56 417 q 153 715 89 596 q 442 926 265 926 q 543 888 504 926 q 582 788 582 850 q 546 654 582 731 l 303 143 l 840 704 l 897 804 l 1042 844 l 851 444 q 731 17 732 194 l 592 -14 q 676 339 599 149 l 390 58 q 249 -10 321 -10 q 161 72 161 -10 q 222 253 161 117 l 428 708 q 446 776 446 749 q 414 808 446 808 q 276 692 343 808 q 200 479 247 642 m 803 1206 q 884 1171 850 1206 q 918 1089 918 1136 q 884 1007 918 1042 q 801 972 850 972 q 719 1007 754 972 q 685 1089 685 1042 q 719 1172 685 1138 q 803 1206 754 1206 m 803 1147 q 761 1130 779 1147 q 743 1089 743 1113 q 761 1049 743 1067 q 803 1031 779 1031 q 842 1048 825 1031 q 860 1089 860 1065 q 842 1130 860 1113 q 803 1147 825 1147 z "},"ů":{"ha":644,"x_min":-3,"x_max":646,"o":"m 461 742 q 535 710 504 742 q 565 636 565 679 q 534 562 565 593 q 460 531 503 531 q 387 562 418 531 q 356 636 356 593 q 387 711 356 681 q 461 742 418 742 m 461 689 q 424 673 440 689 q 408 636 408 657 q 424 599 408 615 q 461 583 440 583 q 497 599 482 583 q 513 636 513 615 q 497 673 513 657 q 461 689 482 689 m 385 190 l 176 31 q 68 -14 118 -14 q 11 31 11 -14 q 22 79 11 53 l 49 143 q -3 110 22 128 l -3 221 q 149 369 128 325 l 186 449 l 307 454 l 176 149 l 263 221 q 514 451 414 346 l 624 457 l 490 157 q 483 136 483 142 q 490 128 483 128 q 646 224 515 128 l 646 113 q 393 -14 465 -14 q 338 39 338 -14 q 354 111 338 68 l 385 190 z "},"Ű":{"ha":903,"x_min":56,"x_max":1082,"o":"m 200 479 l 56 417 q 153 715 89 596 q 442 926 265 926 q 543 888 504 926 q 582 788 582 850 q 546 654 582 731 l 303 143 l 840 704 l 897 804 l 1042 844 l 851 444 q 731 17 732 194 l 592 -14 q 676 339 599 149 l 390 58 q 249 -10 321 -10 q 161 72 161 -10 q 222 253 161 117 l 428 708 q 446 776 446 749 q 414 808 446 808 q 276 692 343 808 q 200 479 247 642 m 731 1150 l 878 1150 l 740 982 l 639 982 l 731 1150 m 935 1150 l 1082 1150 l 944 982 l 843 982 l 935 1150 z "},"ű":{"ha":644,"x_min":-3,"x_max":708,"o":"m 394 696 l 524 696 l 386 526 l 304 526 l 394 696 m 581 696 l 708 696 l 571 526 l 489 526 l 581 696 m 385 190 l 176 31 q 68 -14 118 -14 q 11 31 11 -14 q 22 79 11 53 l 49 143 q -3 110 22 128 l -3 221 q 149 369 128 325 l 186 449 l 307 454 l 176 149 l 263 221 q 514 451 414 346 l 624 457 l 490 157 q 483 136 483 142 q 490 128 483 128 q 646 224 515 128 l 646 113 q 393 -14 465 -14 q 338 39 338 -14 q 354 111 338 68 l 385 190 z "},"Ų":{"ha":903,"x_min":56,"x_max":1042,"o":"m 731 17 l 722 15 q 607 -72 640 -46 q 543 -174 543 -124 q 585 -208 543 -208 q 661 -161 622 -208 l 710 -206 q 574 -276 638 -276 q 496 -250 526 -276 q 465 -183 465 -224 q 524 -67 465 -125 q 592 -14 544 -46 q 676 339 599 149 l 390 58 q 249 -10 321 -10 q 161 72 161 -10 q 222 253 161 117 l 428 708 q 446 776 446 749 q 414 808 446 808 q 276 692 343 808 q 200 479 247 642 l 56 417 q 153 715 89 596 q 442 926 265 926 q 543 888 504 926 q 582 788 582 850 q 546 654 582 731 l 303 143 l 840 704 l 897 804 l 1042 844 l 851 444 q 731 17 732 194 z "},"ų":{"ha":643,"x_min":-3,"x_max":646,"o":"m 511 25 l 507 22 q 468 -1 490 13 q 350 -79 374 -60 q 304 -153 304 -117 q 336 -179 304 -179 q 401 -136 367 -179 l 449 -179 q 326 -244 383 -244 q 258 -221 285 -244 q 231 -161 231 -197 q 364 -8 231 -81 q 338 39 338 8 q 354 111 338 68 l 385 190 l 176 31 q 68 -14 118 -14 q 11 31 11 -14 q 22 79 11 53 l 49 143 q -3 110 22 128 l -3 221 q 149 369 128 325 l 186 449 l 307 454 l 176 149 l 263 221 q 514 451 414 346 l 624 457 l 490 157 q 483 136 483 142 q 490 128 483 128 q 646 224 513 128 l 646 113 q 511 25 549 44 z "},"Ŵ":{"ha":1193,"x_min":69,"x_max":1333,"o":"m 210 494 l 69 414 q 196 769 82 606 q 342 903 257 857 q 444 926 386 926 q 553 893 513 926 q 593 803 593 860 q 547 642 593 740 l 346 208 l 775 694 q 840 749 822 749 q 900 735 872 749 q 928 706 928 721 q 904 635 928 689 l 732 242 q 699 144 699 165 q 735 111 699 111 q 975 331 822 111 q 1110 578 1046 433 q 1204 846 1175 724 l 1333 897 q 1121 331 1311 639 q 876 39 989 118 q 717 -14 801 -14 q 606 22 647 -14 q 565 122 565 58 q 613 283 565 167 l 644 363 l 365 47 q 243 -14 311 -14 q 149 64 149 -14 q 171 136 149 88 l 429 694 q 456 775 456 751 q 426 810 456 810 q 299 713 368 810 q 210 494 247 639 m 925 1150 l 1032 1150 l 1160 982 l 1031 982 l 965 1072 l 876 982 l 750 982 l 925 1150 z "},"Ŷ":{"ha":893,"x_min":65,"x_max":1022,"o":"m 210 489 l 65 417 q 163 739 78 585 q 440 926 265 926 q 542 897 507 926 q 583 806 583 863 q 525 617 583 746 l 294 108 q 775 571 501 272 l 840 697 q 868 744 860 736 q 893 753 876 753 l 949 753 q 979 725 979 753 q 974 699 979 711 l 693 60 q 525 -256 603 -146 q 425 -333 469 -333 q 371 -293 371 -333 q 400 -226 371 -278 q 569 107 449 -140 l 647 267 q 405 41 474 92 q 272 -10 336 -10 q 197 12 226 -10 q 168 68 168 33 q 233 271 168 122 l 400 650 q 442 743 421 696 q 449 781 449 761 q 418 810 449 810 q 298 723 354 810 q 210 489 242 636 m 788 1150 l 896 1150 l 1022 982 l 893 982 l 828 1072 l 739 982 l 613 982 l 788 1150 z "},"ŷ":{"ha":617,"x_min":-3,"x_max":619,"o":"m 418 696 l 515 696 l 615 526 l 499 526 l 447 618 l 360 526 l 246 526 l 418 696 m 365 199 l 208 61 q 115 -3 158 18 q 68 -14 94 -14 q 14 32 14 -14 q 29 90 14 50 l 50 144 q -3 110 36 136 l -3 221 q 158 372 90 296 l 188 449 l 307 454 l 179 158 l 494 449 l 600 454 l 450 104 q 619 224 493 149 l 619 113 q 461 3 510 43 q 351 -110 413 -37 q 258 -325 293 -271 q 175 -379 222 -379 q 114 -318 114 -379 q 263 -37 114 -217 l 365 199 z "},"Ÿ":{"ha":893,"x_min":65,"x_max":1010,"o":"m 210 489 l 65 417 q 164 739 78 585 q 440 926 268 926 q 545 894 507 926 q 583 806 583 863 q 525 617 583 746 l 294 108 q 775 571 504 274 l 840 697 q 868 744 860 736 q 893 753 876 753 l 949 753 q 979 725 979 753 q 974 699 979 711 l 693 60 q 525 -256 603 -146 q 425 -333 469 -333 q 371 -293 371 -333 q 400 -226 371 -278 q 569 107 449 -140 l 647 267 q 405 41 474 92 q 272 -10 336 -10 q 197 12 226 -10 q 168 68 168 33 q 233 271 168 122 l 400 650 q 442 743 421 696 q 449 781 449 761 q 418 810 449 810 q 298 723 354 810 q 210 489 242 636 m 740 1140 q 803 1075 803 1140 q 779 1014 803 1039 q 721 989 756 989 q 657 1057 657 989 q 681 1117 657 1093 q 740 1140 706 1140 m 946 1140 q 1010 1075 1010 1140 q 986 1014 1010 1039 q 928 989 963 989 q 863 1057 863 989 q 887 1117 863 1093 q 946 1140 911 1140 z "},"Ź":{"ha":589,"x_min":-101,"x_max":693,"o":"m 164 629 l 206 826 q 474 926 343 926 q 610 881 560 926 q 660 760 660 836 q 582 576 660 663 q 399 419 479 463 q 378 403 378 408 q 390 392 378 394 q 519 221 519 358 q 481 51 519 147 q 378 -129 442 -46 q 60 -314 238 -314 q -55 -271 -8 -314 q -101 -164 -101 -228 q -55 -29 -101 -103 q 69 110 -8 44 q 167 157 126 157 q 219 115 219 157 q 163 36 219 89 q 33 -153 33 -83 q 78 -193 33 -193 q 222 -111 135 -193 q 334 47 285 -53 q 383 214 383 147 q 349 278 383 261 q 274 303 326 289 q 204 378 204 321 q 231 440 204 414 q 335 521 239 449 q 476 652 421 585 q 532 758 532 719 q 469 810 532 810 q 319 760 403 810 q 164 629 236 711 m 546 1150 l 693 1150 l 556 982 l 454 982 l 546 1150 z "},"ź":{"ha":563,"x_min":-51,"x_max":564,"o":"m 49 268 l 161 374 q 339 461 254 461 q 436 426 397 461 q 475 336 475 390 q 431 214 475 276 q 314 106 388 151 q 329 43 325 74 q 564 225 426 117 l 564 114 l 336 -71 q 240 -269 285 -212 q 49 -392 146 -392 q -24 -364 4 -392 q -51 -292 -51 -336 q 215 -29 -51 -171 q 219 14 219 -3 q 218 46 219 32 q 150 35 172 35 q 92 75 92 35 q 129 135 92 107 q 208 163 167 163 q 247 158 218 163 q 356 313 356 243 q 310 364 356 364 q 242 328 286 364 q 40 147 199 293 q -3 110 29 138 l -3 221 q 49 268 19 242 m 178 -150 q 84 -219 133 -172 q 35 -286 35 -265 q 53 -307 35 -307 q 117 -269 78 -307 q 189 -144 161 -226 q 183 -147 188 -146 l 178 -150 m 422 696 l 551 696 l 414 526 l 332 526 l 422 696 z "},"Ż":{"ha":589,"x_min":-101,"x_max":660,"o":"m 164 629 l 206 826 q 474 926 343 926 q 610 881 560 926 q 660 760 660 836 q 582 576 660 663 q 399 419 479 463 q 378 403 378 408 q 390 392 378 394 q 519 221 519 358 q 481 51 519 147 q 378 -129 442 -46 q 60 -314 238 -314 q -55 -271 -8 -314 q -101 -164 -101 -228 q -55 -29 -101 -103 q 69 110 -8 44 q 167 157 126 157 q 219 115 219 157 q 163 36 219 89 q 33 -153 33 -83 q 78 -193 33 -193 q 222 -111 135 -193 q 334 47 285 -53 q 383 214 383 147 q 349 278 383 261 q 274 303 326 289 q 204 378 204 321 q 231 440 204 414 q 335 521 239 449 q 476 652 421 585 q 532 758 532 719 q 469 810 532 810 q 319 760 403 810 q 164 629 236 711 m 564 1140 q 626 1075 626 1140 q 603 1014 626 1039 q 544 989 579 989 q 481 1057 481 989 q 505 1117 481 1093 q 564 1140 529 1140 z "},"ż":{"ha":563,"x_min":-51,"x_max":564,"o":"m 407 685 q 471 619 471 685 q 447 558 471 583 q 389 533 424 533 q 324 601 324 533 q 348 661 324 638 q 407 685 372 685 m 49 268 l 161 374 q 339 461 254 461 q 436 426 397 461 q 475 336 475 390 q 431 214 475 276 q 314 106 388 151 q 329 43 325 74 q 564 225 426 117 l 564 114 l 336 -71 q 240 -269 285 -212 q 49 -392 146 -392 q -24 -364 4 -392 q -51 -292 -51 -336 q 215 -29 -51 -171 q 219 14 219 -3 q 218 46 219 32 q 150 35 172 35 q 92 75 92 35 q 129 135 92 107 q 208 163 167 163 q 247 158 218 163 q 356 313 356 243 q 310 364 356 364 q 242 328 286 364 q 40 147 199 293 q -3 110 29 138 l -3 221 q 49 268 19 242 m 178 -150 q 84 -219 133 -172 q 35 -286 35 -265 q 53 -307 35 -307 q 117 -269 78 -307 q 189 -144 161 -226 q 183 -147 188 -146 l 178 -150 z "},"Ž":{"ha":589,"x_min":-101,"x_max":744,"o":"m 164 629 l 206 826 q 474 926 343 926 q 610 881 560 926 q 660 760 660 836 q 582 576 660 663 q 399 419 479 463 q 378 403 378 408 q 390 392 378 394 q 519 221 519 358 q 481 51 519 147 q 378 -129 442 -46 q 60 -314 238 -314 q -55 -271 -8 -314 q -101 -164 -101 -228 q -55 -29 -101 -103 q 69 110 -8 44 q 167 157 126 157 q 219 115 219 157 q 163 36 219 89 q 33 -153 33 -83 q 78 -193 33 -193 q 222 -111 135 -193 q 334 47 285 -53 q 383 214 383 147 q 349 278 383 261 q 274 303 338 283 q 204 378 204 321 q 231 440 204 414 q 335 521 239 449 q 476 653 421 586 q 532 758 532 719 q 469 810 532 810 q 319 760 403 810 q 164 629 236 711 m 569 990 l 463 990 l 335 1160 l 464 1160 l 529 1068 l 618 1160 l 744 1160 l 569 990 z "},"ž":{"ha":563,"x_min":-51,"x_max":601,"o":"m 429 536 l 332 536 l 232 704 l 349 704 l 400 614 l 488 704 l 601 704 l 429 536 m 49 268 l 161 374 q 339 461 254 461 q 436 426 397 461 q 475 336 475 390 q 431 214 475 276 q 314 106 388 151 q 329 43 325 74 q 564 225 426 117 l 564 114 l 336 -71 q 240 -269 285 -212 q 49 -392 146 -392 q -24 -364 4 -392 q -51 -292 -51 -336 q 215 -29 -51 -171 q 219 14 219 -3 q 218 46 219 32 q 150 35 172 35 q 92 75 92 35 q 129 135 92 107 q 208 163 167 163 q 247 158 218 163 q 356 313 356 243 q 310 364 356 364 q 242 328 286 364 q 40 147 199 293 q -3 110 29 138 l -3 221 q 49 268 19 242 m 178 -150 q 84 -219 133 -172 q 35 -286 35 -265 q 53 -307 35 -307 q 117 -269 78 -307 q 189 -144 161 -226 q 183 -147 188 -146 l 178 -150 z "},"ƒ":{"ha":694,"x_min":57,"x_max":719,"o":"m 494 503 l 610 503 l 582 411 l 471 411 l 421 207 q 339 -44 371 0 q 169 -140 272 -140 q 89 -108 121 -140 q 57 -26 57 -75 q 65 76 57 -15 q 68 107 67 92 l 174 111 q 160 40 164 54 q 154 -10 154 1 q 185 -42 154 -42 q 258 10 231 -42 q 321 219 278 47 l 368 411 l 250 411 l 275 503 l 392 503 q 467 706 429 649 q 633 819 540 819 q 719 714 719 819 q 708 601 719 668 l 610 579 q 626 697 626 667 q 613 721 626 721 q 579 699 599 721 q 503 529 543 657 l 494 503 z "},"Ǎ":{"ha":818,"x_min":-29,"x_max":1042,"o":"m 99 0 l -29 0 q 108 275 4 81 q -17 258 76 272 l 19 375 q 164 393 71 385 q 781 926 496 926 q 881 849 881 926 q 865 763 881 817 l 690 143 q 703 86 703 111 q 681 24 703 47 q 624 0 660 0 q 546 86 546 0 q 558 153 546 114 q 426 249 510 214 q 244 283 342 285 q 99 0 206 218 m 590 281 l 735 772 q 740 794 740 790 q 728 810 740 810 q 665 781 713 810 q 581 721 617 753 q 303 390 435 596 q 590 281 465 375 m 867 982 l 760 982 l 633 1150 l 761 1150 l 828 1060 l 917 1150 l 1042 1150 l 867 982 z "},"ǎ":{"ha":557,"x_min":-4,"x_max":626,"o":"m 456 526 l 358 526 l 258 696 l 375 696 l 426 604 l 514 696 l 626 696 l 456 526 m 363 313 l 478 313 l 404 142 q 400 128 400 132 q 410 118 400 118 q 560 224 425 118 l 560 113 l 536 94 q 414 8 451 31 q 338 -14 372 -14 q 282 54 286 -14 q 147 -14 232 -14 q 31 38 65 -14 q -4 158 -4 89 q 113 383 -4 296 q 417 469 231 469 q 488 465 438 469 l 488 368 q 413 375 444 375 q 205 313 290 375 q 119 161 119 250 q 163 97 119 97 q 263 161 204 97 q 363 313 322 225 z "},"Ǔ":{"ha":903,"x_min":56,"x_max":1042,"o":"m 200 479 l 56 417 q 153 715 89 596 q 442 926 265 926 q 543 888 504 926 q 582 788 582 850 q 546 654 582 731 l 303 143 l 840 704 l 897 804 l 1042 844 l 851 444 q 731 17 732 194 l 592 -14 q 676 339 599 149 l 390 58 q 249 -10 321 -10 q 161 72 161 -10 q 222 253 161 117 l 428 708 q 446 776 446 749 q 414 808 446 808 q 276 692 343 808 q 200 479 247 642 m 842 982 l 733 982 l 607 1150 l 736 1150 l 801 1060 l 890 1150 l 1017 1150 l 842 982 z "},"ǔ":{"ha":643,"x_min":-3,"x_max":668,"o":"m 385 190 l 176 31 q 68 -14 118 -14 q 11 31 11 -14 q 22 79 11 53 l 49 143 q -3 110 22 128 l -3 221 q 149 369 128 325 l 186 449 l 307 454 l 176 149 l 263 221 q 514 451 414 346 l 624 457 l 490 157 q 483 136 483 142 q 490 128 483 128 q 646 224 515 128 l 646 113 q 393 -14 465 -14 q 338 39 338 -14 q 354 111 338 68 l 385 190 m 496 526 l 400 526 l 299 696 l 415 696 l 467 604 l 554 696 l 668 696 l 496 526 z "},"Ǧ":{"ha":747,"x_min":99,"x_max":906,"o":"m 606 488 l 606 624 q 701 746 701 682 q 632 808 701 808 q 484 740 563 808 q 338 550 406 671 q 229 210 229 357 q 311 107 229 107 q 569 304 431 107 q 624 421 601 392 q 682 450 647 450 q 742 388 742 450 q 678 258 742 339 q 583 -6 642 133 q 474 -219 524 -144 q 368 -337 396 -337 q 351 -321 350 -337 l 353 -304 q 356 -258 356 -271 q 353 -183 356 -214 q 479 56 443 -50 q 290 -14 392 -14 q 150 47 201 -14 q 99 210 99 107 q 160 481 99 335 q 326 749 222 628 q 647 926 479 926 q 776 878 725 926 q 828 758 828 831 q 733 567 828 658 q 606 488 682 517 m 731 982 l 624 982 l 496 1150 l 625 1150 l 692 1060 l 781 1150 l 906 1150 l 731 982 z "},"ǧ":{"ha":564,"x_min":-6,"x_max":607,"o":"m 435 526 l 338 526 l 238 696 l 354 696 l 406 604 l 493 696 l 607 696 l 435 526 m 483 314 l 399 104 q 413 115 407 111 q 532 197 438 135 q 567 224 535 199 l 567 113 q 408 -3 454 36 q 297 -112 361 -43 l 239 -251 q 121 -379 185 -379 q 63 -317 63 -379 q 219 -28 63 -214 l 238 21 q 138 -14 188 -14 q 33 35 72 -14 q -6 165 -6 83 q 57 338 -6 260 q 197 440 115 408 q 410 471 279 471 q 483 465 444 471 l 493 367 q 399 378 438 378 q 202 319 281 378 q 124 171 124 260 q 167 101 124 101 q 372 314 249 101 l 483 314 z "},"Ǵ":{"ha":747,"x_min":99,"x_max":865,"o":"m 606 488 l 606 624 q 701 746 701 682 q 632 808 701 808 q 484 740 563 808 q 338 550 406 671 q 229 210 229 357 q 311 107 229 107 q 569 304 431 107 q 624 421 601 392 q 682 450 647 450 q 742 388 742 450 q 678 258 742 339 q 583 -6 642 133 q 474 -219 524 -144 q 368 -337 396 -337 q 351 -321 350 -337 l 353 -304 q 356 -258 356 -271 q 353 -183 356 -214 q 479 56 443 -50 q 290 -14 392 -14 q 150 47 201 -14 q 99 210 99 107 q 160 481 99 335 q 326 749 222 628 q 647 926 479 926 q 776 878 725 926 q 828 758 828 831 q 733 567 828 658 q 606 488 682 517 m 708 1150 l 865 1150 l 726 982 l 617 982 l 708 1150 z "},"Ș":{"ha":761,"x_min":0,"x_max":817,"o":"m 483 550 l 504 672 q 638 722 579 686 q 697 793 697 758 q 661 815 697 815 q 486 760 574 815 q 358 592 358 679 q 421 504 358 543 q 574 432 449 486 q 717 260 717 369 q 678 136 717 196 q 578 46 639 76 q 279 -14 457 -14 q 0 144 0 -14 q 80 274 0 225 q 288 324 160 324 q 388 314 338 324 l 361 199 l 339 199 l 307 200 q 276 201 275 201 q 174 188 214 201 q 133 153 133 174 q 267 113 133 113 q 497 148 411 113 q 582 243 582 183 q 540 307 582 281 q 451 349 524 318 q 308 433 368 385 q 235 576 235 494 q 339 793 235 696 q 669 926 482 926 q 777 894 738 926 q 817 806 817 863 q 703 631 817 710 q 483 550 594 556 m 382 -51 l 233 -199 l 142 -199 l 228 -51 l 382 -51 z "},"ș":{"ha":443,"x_min":-51,"x_max":446,"o":"m 446 224 l 446 113 q 208 4 304 4 q 178 7 208 4 q 115 -14 150 -14 q 46 9 75 -14 q 17 63 17 32 q 44 92 17 92 q 65 90 53 92 q 106 88 89 88 q 153 90 106 88 q 190 173 175 115 q 206 286 206 231 q 207 301 206 293 q -1 110 90 179 l -1 221 q 224 461 129 332 q 249 574 226 542 q 310 606 272 606 q 364 547 364 606 q 329 461 364 504 q 339 342 339 378 q 290 122 339 215 q 446 224 343 143 m 190 -51 l 40 -199 l -51 -199 l 36 -51 l 190 -51 z "},"Ȧ":{"ha":818,"x_min":-29,"x_max":925,"o":"m 99 0 l -29 0 q 108 275 4 81 q -17 258 76 272 l 19 375 q 164 393 71 385 q 781 926 496 926 q 881 849 881 926 q 865 763 881 817 l 690 143 q 703 86 703 111 q 681 24 703 47 q 624 0 660 0 q 546 86 546 0 q 558 153 546 114 q 426 249 510 214 q 244 283 342 285 q 99 0 206 218 m 590 281 l 735 772 q 740 794 740 790 q 728 810 740 810 q 665 781 713 810 q 581 721 617 753 q 303 390 435 596 q 590 281 465 375 m 863 1140 q 925 1075 925 1140 q 901 1014 925 1039 q 843 989 878 989 q 779 1057 779 989 q 803 1117 779 1093 q 863 1140 828 1140 z "},"ȧ":{"ha":557,"x_min":-4,"x_max":560,"o":"m 446 685 q 508 619 508 685 q 485 558 508 583 q 426 533 461 533 q 363 601 363 533 q 387 661 363 638 q 446 685 411 685 m 363 313 l 478 313 l 404 142 q 400 128 400 132 q 410 118 400 118 q 560 224 425 118 l 560 113 l 536 94 q 414 8 451 31 q 338 -14 372 -14 q 282 54 286 -14 q 147 -14 232 -14 q 31 38 65 -14 q -4 158 -4 89 q 113 383 -4 296 q 417 469 231 469 q 488 465 438 469 l 488 368 q 413 375 444 375 q 205 313 290 375 q 119 161 119 250 q 163 97 119 97 q 263 161 204 97 q 363 313 322 225 z "},"ˆ":{"ha":694,"x_min":211,"x_max":579,"o":"m 383 696 l 479 696 l 579 526 l 464 526 l 413 618 l 325 526 l 211 526 l 383 696 z "},"ˇ":{"ha":694,"x_min":219,"x_max":588,"o":"m 417 526 l 319 526 l 219 696 l 336 696 l 388 604 l 475 696 l 588 696 l 417 526 z "},"ˉ":{"ha":694,"x_min":244,"x_max":618,"o":"m 618 647 l 582 568 l 244 568 l 279 647 l 618 647 z "},"˘":{"ha":694,"x_min":240,"x_max":631,"o":"m 240 693 l 313 693 q 328 646 315 661 q 422 615 353 615 q 557 693 531 615 l 631 693 q 413 528 583 528 q 243 642 261 528 q 240 693 240 658 z "},"˙":{"ha":694,"x_min":329,"x_max":475,"o":"m 413 685 q 475 619 475 685 q 451 558 475 583 q 393 533 428 533 q 329 601 329 533 q 353 661 329 638 q 413 685 378 685 z "},"˚":{"ha":694,"x_min":289,"x_max":499,"o":"m 394 742 q 468 710 438 742 q 499 636 499 679 q 467 562 499 593 q 393 531 436 531 q 320 562 351 531 q 289 636 289 593 q 320 711 289 681 q 394 742 351 742 m 394 689 q 358 673 374 689 q 342 636 342 657 q 358 599 342 615 q 394 583 374 583 q 431 599 415 583 q 446 636 446 615 q 431 673 446 657 q 394 689 415 689 z "},"˛":{"ha":694,"x_min":154,"x_max":372,"o":"m 279 0 l 363 0 q 251 -97 275 -71 q 228 -151 228 -124 q 260 -179 228 -179 q 325 -136 290 -179 l 372 -179 q 250 -244 306 -244 q 181 -221 208 -244 q 154 -161 154 -197 q 196 -67 154 -114 q 279 0 217 -44 z "},"˜":{"ha":694,"x_min":235,"x_max":635,"o":"m 547 683 l 635 683 q 581 588 615 618 q 494 550 539 550 q 435 563 460 550 q 388 583 424 568 q 357 592 368 592 q 324 557 336 592 l 235 557 q 368 690 276 690 q 458 658 386 690 q 501 644 488 644 q 547 683 533 644 z "},"˝":{"ha":694,"x_min":254,"x_max":660,"o":"m 346 696 l 475 696 l 336 526 l 254 526 l 346 696 m 531 696 l 660 696 l 522 526 l 439 526 l 531 696 z "},"̦":{"ha":694,"x_min":32,"x_max":274,"o":"m 274 -51 l 124 -199 l 32 -199 l 119 -51 l 274 -51 z "},"Δ":{"ha":868,"x_min":46,"x_max":896,"o":"m 46 0 l 410 926 l 531 926 l 896 0 l 46 0 m 197 103 l 743 103 l 471 801 l 197 103 z "},"Ω":{"ha":925,"x_min":72,"x_max":926,"o":"m 75 0 l 75 103 l 321 103 q 72 507 72 247 q 197 820 72 692 q 499 949 321 949 q 802 820 678 949 q 926 506 926 692 q 678 103 926 249 l 924 103 l 924 0 l 561 0 l 561 96 q 706 210 651 144 q 808 488 808 333 q 719 742 808 638 q 500 846 629 846 q 280 742 369 846 q 190 488 190 639 q 438 96 190 231 l 438 0 l 75 0 z "},"Ḑ":{"ha":957,"x_min":-62,"x_max":907,"o":"m 408 581 l 358 476 q 192 597 250 540 q 96 793 96 690 q 133 890 96 854 q 235 926 171 926 q 453 865 333 926 q 619 761 513 835 l 667 829 l 758 761 l 711 685 q 811 567 778 611 q 907 296 907 439 q 872 147 907 214 q 776 44 838 79 q 539 -10 682 -10 q 303 26 418 -10 q 119 -10 231 -10 q -12 15 39 -10 q -62 79 -62 39 q 94 161 -62 161 q 275 142 172 161 q 385 274 340 197 q 489 515 429 351 q 554 651 513 582 q 381 772 440 742 q 260 810 307 810 q 222 775 222 810 q 288 672 222 739 q 408 581 326 633 m 428 121 q 535 110 496 110 q 712 160 649 110 q 775 303 775 211 q 649 564 775 432 q 596 433 624 511 q 428 121 532 249 m 571 -51 l 421 -199 l 329 -199 l 417 -51 l 571 -51 z "},"ḑ":{"ha":604,"x_min":-21,"x_max":675,"o":"m 606 224 l 606 113 q 363 -14 447 -14 q 278 51 311 -14 q 132 -18 201 -18 q 31 31 68 -18 q -7 163 -7 81 q 79 367 -7 282 q 282 458 172 458 q 338 451 303 458 q 485 800 408 669 q 624 938 565 938 q 675 818 675 938 q 594 456 675 646 q 388 144 513 265 q 383 119 383 124 q 403 97 383 97 q 606 224 438 97 m 314 363 q 290 367 301 367 q 203 333 247 367 q 122 167 122 274 q 165 97 122 97 q 272 157 208 97 q 314 363 283 263 m 399 310 q 517 533 453 363 q 594 826 582 703 q 414 364 511 721 q 399 310 414 365 m 221 -51 l 71 -199 l -21 -199 l 67 -51 l 221 -51 z "},"Ḟ":{"ha":842,"x_min":32,"x_max":879,"o":"m 854 325 l 793 213 l 633 213 q 469 -37 533 42 l 306 -37 q 483 213 414 85 l 376 213 l 433 325 l 544 325 q 685 615 624 476 q 747 782 747 754 q 719 807 747 807 q 524 744 639 807 q 310 583 410 682 q 204 461 253 526 q 156 375 156 396 q 175 358 156 358 q 315 454 218 358 q 479 660 411 550 l 526 522 q 153 239 321 239 q 67 273 101 239 q 32 358 32 307 q 253 690 32 489 q 739 926 513 926 q 842 897 804 926 q 879 817 879 868 q 683 325 879 685 l 854 325 m 776 1140 q 839 1075 839 1140 q 815 1014 839 1039 q 757 989 792 989 q 693 1057 693 989 q 717 1117 693 1093 q 776 1140 742 1140 z "},"Ẅ":{"ha":1193,"x_min":69,"x_max":1333,"o":"m 210 494 l 69 414 q 196 769 82 606 q 342 903 257 857 q 444 926 386 926 q 553 893 513 926 q 593 803 593 860 q 547 642 593 740 l 346 208 l 775 694 q 840 749 822 749 q 900 735 872 749 q 928 706 928 721 q 904 635 928 689 l 732 242 q 699 144 699 165 q 735 111 699 111 q 975 331 822 111 q 1110 578 1046 433 q 1204 846 1175 724 l 1333 897 q 1121 331 1311 639 q 876 39 989 118 q 717 -14 801 -14 q 606 22 647 -14 q 565 122 565 58 q 613 283 565 167 l 644 363 l 365 47 q 243 -14 311 -14 q 149 64 149 -14 q 171 136 149 88 l 429 694 q 456 775 456 751 q 426 810 456 810 q 299 713 368 810 q 210 494 247 639 m 885 1140 q 947 1075 947 1140 q 924 1014 947 1039 q 865 989 900 989 q 801 1057 801 989 q 826 1117 801 1093 q 885 1140 850 1140 m 1090 1140 q 1154 1075 1154 1140 q 1131 1014 1154 1039 q 1072 989 1107 989 q 1007 1057 1007 989 q 1031 1117 1007 1093 q 1090 1140 1056 1140 z "}," ":{"ha":772,"x_min":0,"x_max":0,"o":""},"‐":{"ha":351,"x_min":0,"x_max":351,"o":"m 351 290 l 306 174 l 0 174 l 57 290 l 351 290 z "},"–":{"ha":694,"x_min":111,"x_max":582,"o":"m 582 290 l 538 174 l 111 174 l 168 290 l 582 290 z "},"—":{"ha":689,"x_min":-25,"x_max":706,"o":"m 706 290 l 661 174 l -25 174 l 32 290 l 706 290 z "},"‗":{"ha":694,"x_min":38,"x_max":732,"o":"m 38 -81 l 732 -81 l 732 -137 l 38 -137 l 38 -81 m 38 -243 l 732 -243 l 732 -300 l 38 -300 l 38 -243 z "},"‘":{"ha":317,"x_min":146,"x_max":432,"o":"m 146 610 l 367 926 l 432 926 l 314 610 l 146 610 z "},"’":{"ha":317,"x_min":193,"x_max":451,"o":"m 451 926 l 253 640 l 193 640 l 299 926 l 451 926 z "},"‚":{"ha":336,"x_min":-42,"x_max":229,"o":"m 229 143 l 19 -168 l -42 -168 l 76 143 l 229 143 z "},"“":{"ha":581,"x_min":144,"x_max":690,"o":"m 403 610 l 624 926 l 690 926 l 572 610 l 403 610 m 144 610 l 365 926 l 431 926 l 313 610 l 144 610 z "},"”":{"ha":581,"x_min":181,"x_max":726,"o":"m 467 926 l 247 610 l 181 610 l 299 926 l 467 926 m 726 926 l 506 610 l 439 610 l 557 926 l 726 926 z "},"„":{"ha":581,"x_min":-37,"x_max":508,"o":"m 249 158 l 29 -158 l -37 -158 l 81 158 l 249 158 m 508 158 l 288 -158 l 221 -158 l 339 158 l 508 158 z "},"†":{"ha":624,"x_min":142,"x_max":706,"o":"m 706 664 l 672 563 l 464 563 l 281 0 l 167 0 l 350 563 l 142 563 l 175 664 l 382 664 l 468 926 l 582 926 l 496 664 l 706 664 z "},"‡":{"ha":624,"x_min":49,"x_max":710,"o":"m 710 664 l 678 563 l 468 563 l 403 364 l 613 364 l 579 263 l 371 263 l 285 0 l 171 0 l 257 263 l 49 263 l 82 364 l 289 364 l 354 563 l 146 563 l 179 664 l 388 664 l 472 926 l 586 926 l 501 664 l 710 664 z "},"•":{"ha":926,"x_min":310,"x_max":694,"o":"m 506 663 q 638 606 582 663 q 694 471 694 549 q 638 334 694 390 q 503 278 582 278 q 367 334 424 278 q 310 469 310 390 q 367 606 310 550 q 506 663 424 663 z "},"‣":{"ha":694,"x_min":136,"x_max":699,"o":"m 136 165 l 136 767 l 699 465 l 136 165 z "},"․":{"ha":347,"x_min":38,"x_max":211,"o":"m 136 181 q 211 103 211 181 q 183 30 211 60 q 114 0 154 0 q 38 81 38 0 q 66 152 38 124 q 136 181 94 181 z "},"‥":{"ha":694,"x_min":38,"x_max":558,"o":"m 136 171 q 211 93 211 171 q 183 20 211 50 q 114 -10 154 -10 q 38 71 38 -10 q 66 142 38 114 q 136 171 94 171 m 483 171 q 558 93 558 171 q 530 20 558 50 q 461 -10 501 -10 q 385 71 385 -10 q 413 142 385 114 q 483 171 442 171 z "},"…":{"ha":1008,"x_min":32,"x_max":878,"o":"m 131 171 q 206 93 206 171 q 177 20 206 50 q 108 -10 149 -10 q 32 71 32 -10 q 60 142 32 114 q 131 171 89 171 m 467 171 q 542 93 542 171 q 513 20 542 50 q 444 -10 485 -10 q 368 71 368 -10 q 397 142 368 114 q 467 171 425 171 m 803 171 q 878 93 878 171 q 849 20 878 50 q 781 -10 821 -10 q 704 71 704 -10 q 733 142 704 114 q 803 171 761 171 z "},"‰":{"ha":1543,"x_min":83,"x_max":1476,"o":"m 253 -158 l 201 -83 l 704 660 q 469 550 596 583 q 392 335 458 417 q 229 254 326 254 q 122 300 161 254 q 83 425 83 346 q 162 633 83 544 q 346 722 240 722 q 469 617 444 722 q 771 786 626 676 l 813 703 l 253 -158 m 383 560 q 356 596 356 575 q 365 625 356 606 q 325 644 342 644 q 224 580 276 644 q 172 431 172 515 q 239 339 172 339 q 335 405 292 339 q 383 560 378 471 m 871 467 q 981 421 938 467 q 1018 301 1018 382 q 981 157 1018 231 q 890 41 944 83 q 765 -1 835 -1 q 615 163 615 -1 q 692 376 615 285 q 871 467 768 467 m 853 382 q 751 313 793 382 q 706 164 706 236 q 722 106 706 129 q 765 83 739 83 q 869 154 822 83 q 917 310 917 225 q 853 382 917 382 m 1329 467 q 1439 421 1396 467 q 1476 301 1476 382 q 1440 157 1476 231 q 1348 41 1403 83 q 1224 -1 1293 -1 q 1074 163 1074 -1 q 1150 376 1074 285 q 1329 467 1226 467 m 1311 382 q 1210 313 1251 382 q 1164 164 1164 236 q 1181 106 1164 129 q 1224 83 1197 83 q 1328 154 1281 83 q 1375 310 1375 225 q 1311 382 1375 382 z "},"′":{"ha":268,"x_min":199,"x_max":378,"o":"m 283 554 l 199 554 l 250 926 l 378 926 l 283 554 z "},"″":{"ha":478,"x_min":199,"x_max":586,"o":"m 283 554 l 199 554 l 250 926 l 378 926 l 283 554 m 493 554 l 408 554 l 460 926 l 586 926 l 493 554 z "},"‹":{"ha":422,"x_min":63,"x_max":403,"o":"m 403 439 l 182 232 l 315 24 l 218 24 l 63 240 l 282 439 l 403 439 z "},"›":{"ha":422,"x_min":-1,"x_max":339,"o":"m -1 24 l 219 231 l 86 439 l 183 439 l 339 222 l 119 24 l -1 24 z "},"‼":{"ha":563,"x_min":113,"x_max":524,"o":"m 235 926 l 235 681 l 206 265 l 143 265 l 114 679 l 114 926 l 235 926 m 238 171 l 238 0 l 113 0 l 113 171 l 238 171 m 521 926 l 521 681 l 492 265 l 429 265 l 400 679 l 400 926 l 521 926 m 524 171 l 524 0 l 399 0 l 399 171 l 524 171 z "},"‾":{"ha":694,"x_min":38,"x_max":732,"o":"m 38 1189 l 732 1189 l 732 1113 l 38 1113 l 38 1189 z "},"⁄":{"ha":111,"x_min":-126,"x_max":319,"o":"m 319 713 l -58 0 l -126 0 l 244 713 l 319 713 z "},"⁰":{"ha":461,"x_min":136,"x_max":514,"o":"m 388 724 q 479 684 444 724 q 514 578 514 644 q 453 397 514 492 q 258 276 375 276 q 170 316 204 276 q 136 417 136 356 q 193 596 136 508 q 388 724 276 724 m 382 644 q 278 569 331 647 q 225 413 225 490 q 268 354 225 354 q 372 429 321 354 q 424 582 424 504 q 382 644 424 643 z "},"⁴":{"ha":461,"x_min":97,"x_max":507,"o":"m 506 461 l 471 381 l 379 381 q 326 257 349 310 l 233 257 q 286 386 257 331 q 213 393 263 388 q 138 349 176 349 q 97 389 97 349 q 163 458 97 432 q 296 725 240 553 l 397 725 l 385 697 q 329 581 367 658 q 265 468 300 519 q 329 463 292 464 q 414 618 357 518 q 472 664 440 664 q 507 638 507 664 q 492 600 507 628 q 438 499 465 553 q 417 460 432 488 q 453 458 432 458 q 506 461 482 458 z "},"⁵":{"ha":461,"x_min":129,"x_max":535,"o":"m 213 565 l 269 685 q 325 724 288 724 l 535 724 l 508 642 l 365 642 q 342 639 347 642 q 331 618 338 636 l 321 600 q 358 603 354 603 q 444 572 410 603 q 479 493 479 540 q 402 344 479 411 q 231 278 325 278 q 129 393 129 278 l 211 404 q 242 358 214 358 q 342 408 286 358 q 385 486 385 447 q 342 521 385 521 q 272 499 310 521 q 211 460 247 460 q 181 472 194 460 q 168 501 168 485 q 213 565 168 540 z "},"⁶":{"ha":461,"x_min":139,"x_max":490,"o":"m 454 767 q 478 750 465 765 q 490 721 490 735 q 457 688 490 710 q 272 507 335 608 q 231 401 231 439 q 276 357 231 357 q 357 401 314 357 q 400 483 400 444 q 382 503 400 503 q 358 491 374 503 q 324 479 342 479 q 290 511 290 479 q 323 560 290 539 q 396 582 356 582 q 490 485 490 582 q 424 340 490 404 q 272 276 357 276 q 177 311 215 276 q 139 397 139 346 q 235 604 139 494 q 357 717 286 664 q 454 767 428 769 z "},"⁷":{"ha":461,"x_min":185,"x_max":571,"o":"m 232 679 l 240 703 q 260 731 247 724 q 310 742 278 742 q 331 724 329 742 q 369 726 349 726 q 388 724 369 726 q 447 719 407 721 l 488 718 q 522 721 500 718 q 554 724 544 724 q 571 706 571 724 q 553 678 571 696 q 396 422 503 626 q 316 279 336 307 q 275 251 296 251 q 238 265 257 251 q 219 292 219 279 q 251 351 219 306 q 326 481 272 381 q 424 642 378 575 q 361 646 382 646 q 303 636 332 646 q 297 624 297 625 q 222 557 261 557 q 185 599 185 557 q 232 679 185 632 z "},"⁸":{"ha":461,"x_min":122,"x_max":519,"o":"m 519 656 l 519 565 l 400 497 q 439 411 439 461 q 388 315 439 353 q 261 276 338 276 q 162 303 201 276 q 122 369 122 329 q 225 490 122 435 l 258 508 q 213 600 213 550 q 276 696 213 660 q 442 732 339 732 q 511 694 511 732 q 458 660 511 661 q 347 642 392 658 q 301 603 301 625 q 339 556 301 579 l 519 656 m 319 451 l 256 414 q 214 376 214 389 q 263 357 214 357 q 321 372 296 357 q 346 406 346 386 q 319 451 346 432 z "},"⁹":{"ha":461,"x_min":147,"x_max":518,"o":"m 376 651 q 294 610 333 651 q 254 524 254 568 q 272 504 254 504 q 313 522 285 504 q 332 528 321 528 q 364 494 364 528 q 331 445 364 468 q 261 422 297 422 q 190 449 217 422 q 163 519 163 476 q 229 666 163 601 q 381 731 296 731 q 480 694 442 731 q 518 599 518 657 q 314 289 518 464 q 193 210 222 210 q 163 225 179 210 q 147 254 147 240 q 159 274 147 264 q 249 344 171 285 q 374 478 321 400 q 428 604 428 556 q 413 638 428 624 q 376 651 397 651 z "},"⁺":{"ha":475,"x_min":65,"x_max":483,"o":"m 65 672 l 231 672 l 231 833 l 317 833 l 317 672 l 483 672 l 483 592 l 317 592 l 317 431 l 231 431 l 231 592 l 65 592 l 65 672 z "},"⁻":{"ha":475,"x_min":65,"x_max":482,"o":"m 65 672 l 482 672 l 482 592 l 65 592 l 65 672 z "},"⁽":{"ha":292,"x_min":133,"x_max":481,"o":"m 238 289 l 154 289 q 133 463 133 369 q 235 810 133 633 q 385 1008 292 908 l 481 1008 q 444 969 467 992 q 274 707 331 842 q 218 454 218 572 q 238 289 218 367 z "},"⁾":{"ha":292,"x_min":46,"x_max":393,"o":"m 288 1008 l 372 1008 q 393 835 393 925 q 292 488 393 661 q 142 289 232 386 l 46 289 q 81 328 47 290 q 253 592 197 458 q 308 843 308 725 q 288 1008 308 932 z "},"ⁿ":{"ha":422,"x_min":81,"x_max":490,"o":"m 490 440 l 476 429 q 332 363 393 363 q 289 400 289 363 q 297 439 289 414 l 338 528 l 169 390 q 119 363 136 363 q 90 392 90 363 q 99 429 90 408 l 107 450 q 82 432 96 442 l 81 507 q 178 600 146 558 l 201 646 l 286 649 l 238 546 l 354 628 q 424 656 393 656 q 464 625 464 656 q 451 589 464 617 l 397 471 q 392 458 393 463 q 397 456 393 456 q 490 517 408 456 l 490 440 z "},"₀":{"ha":461,"x_min":25,"x_max":403,"o":"m 276 439 q 369 399 335 439 q 403 294 403 360 q 342 113 403 207 q 147 -8 264 -8 q 59 31 93 -8 q 25 132 25 71 q 82 311 25 222 q 276 439 164 439 m 271 358 q 167 283 219 361 q 114 128 114 206 q 157 69 114 69 q 261 144 210 69 q 313 297 313 219 q 271 358 313 357 z "},"₁":{"ha":461,"x_min":74,"x_max":396,"o":"m 138 217 l 149 297 q 283 385 226 328 q 350 447 306 447 q 396 406 396 447 q 361 344 396 375 q 183 -7 288 171 l 74 -7 l 101 36 q 217 246 160 126 q 138 217 188 233 z "},"₂":{"ha":461,"x_min":-35,"x_max":397,"o":"m 397 96 l 375 6 q 307 -8 346 -8 q 160 32 251 -8 q 50 -10 99 -10 q -11 10 13 -10 q -35 60 -35 29 q -9 115 -35 94 q 57 136 17 136 q 149 117 97 136 q 253 238 208 172 q 299 338 299 304 q 268 365 299 365 q 144 268 213 365 l 76 306 q 168 413 124 382 q 275 444 213 444 q 358 419 326 444 q 390 351 390 393 q 231 89 390 231 q 294 75 267 75 q 397 96 321 75 m 88 67 q 60 74 68 74 q 35 63 35 74 q 50 53 35 53 q 88 67 64 53 z "},"₃":{"ha":461,"x_min":14,"x_max":400,"o":"m 167 292 l 107 332 q 292 444 194 444 q 370 419 340 444 q 400 351 400 394 q 319 233 400 281 q 351 161 351 197 q 290 42 351 93 q 147 -8 229 -8 q 14 110 14 -8 q 17 150 14 111 l 101 150 q 99 118 99 117 q 149 69 99 69 q 223 95 190 69 q 256 154 256 121 q 242 190 256 175 q 190 182 215 182 q 131 224 131 182 q 153 262 131 247 q 211 276 176 276 q 243 272 221 276 q 303 344 303 308 q 275 367 303 367 q 234 353 253 367 q 167 292 215 340 z "},"₄":{"ha":461,"x_min":-14,"x_max":396,"o":"m 394 175 l 360 96 l 268 96 q 215 -28 238 25 l 122 -28 q 175 101 154 65 q 101 108 151 103 q 26 64 65 64 q -14 104 -14 64 q 51 174 -14 144 q 185 439 131 274 l 286 439 l 274 411 q 218 294 261 385 q 154 182 188 231 q 218 176 171 181 q 303 332 253 247 q 361 378 329 378 q 396 351 396 378 q 381 314 396 342 q 326 213 361 279 q 306 174 321 201 l 342 174 q 394 175 371 174 z "},"₅":{"ha":461,"x_min":18,"x_max":424,"o":"m 101 281 l 158 400 q 214 439 176 439 l 424 439 l 397 357 l 254 357 q 224 343 229 357 l 219 333 l 210 315 q 247 318 243 318 q 333 287 299 318 q 368 208 368 256 q 291 59 368 126 q 119 -8 214 -8 q 18 108 18 -8 l 100 119 q 131 72 101 72 q 231 122 176 72 q 274 200 274 163 q 231 236 274 236 q 161 213 199 236 q 100 175 138 175 q 70 188 83 175 q 57 217 57 201 q 101 281 57 256 z "},"₆":{"ha":461,"x_min":28,"x_max":379,"o":"m 343 482 q 367 465 354 481 q 379 436 379 450 q 346 403 379 424 q 161 222 225 325 q 119 117 119 154 q 165 72 119 72 q 246 116 203 72 q 289 197 289 160 q 271 217 289 217 q 246 206 263 217 q 213 194 229 194 q 179 226 179 194 q 212 274 179 253 q 285 296 244 296 q 379 200 379 296 q 313 56 379 119 q 161 -8 246 -8 q 66 26 104 -8 q 28 113 28 61 q 124 319 28 210 q 246 432 175 379 q 343 482 317 485 z "},"₇":{"ha":461,"x_min":74,"x_max":458,"o":"m 121 394 l 129 418 q 149 446 136 438 q 199 457 171 457 q 219 439 218 457 q 258 442 238 442 q 277 439 258 442 q 335 435 296 436 l 375 433 q 410 436 388 433 q 442 439 432 439 q 458 421 458 439 q 442 393 458 411 q 283 138 385 332 q 204 -6 224 22 q 163 -33 185 -33 q 126 -19 144 -33 q 108 7 108 -6 q 140 67 108 21 q 215 196 161 96 q 313 357 267 290 q 250 361 271 361 q 192 351 221 361 q 186 339 186 340 q 111 272 150 272 q 74 313 74 272 q 121 394 74 347 z "},"₈":{"ha":461,"x_min":11,"x_max":408,"o":"m 408 371 l 408 281 l 289 213 q 328 126 328 176 q 277 30 328 68 q 150 -8 226 -8 q 51 18 90 -8 q 11 85 11 44 q 114 204 11 144 l 147 224 q 101 315 101 265 q 165 411 101 375 q 331 447 228 447 q 400 410 400 447 q 347 375 400 375 q 236 358 282 374 q 190 318 190 342 q 228 269 190 296 l 408 371 m 208 167 l 144 129 q 103 92 103 104 q 151 72 103 72 q 210 87 185 72 q 235 121 235 101 q 208 167 235 144 z "},"₉":{"ha":461,"x_min":36,"x_max":407,"o":"m 265 367 q 183 325 222 367 q 143 239 143 283 q 161 219 143 219 q 201 238 174 219 q 221 242 214 242 q 253 208 253 242 q 219 160 253 183 q 150 138 186 138 q 78 165 106 138 q 51 235 51 192 q 118 381 51 317 q 269 446 185 446 q 369 409 331 446 q 407 314 407 372 q 203 4 407 178 q 82 -75 110 -75 q 51 -60 67 -75 q 36 -31 36 -44 q 49 -10 36 -21 q 136 58 61 1 q 264 193 211 115 q 317 321 317 271 q 301 353 317 339 q 265 367 286 367 z "},"₣":{"ha":1179,"x_min":32,"x_max":1179,"o":"m 701 213 l 632 213 q 469 -37 533 43 l 304 -37 q 483 213 411 82 l 376 213 l 433 325 l 544 325 q 685 617 624 478 q 747 783 747 757 q 719 808 747 808 q 524 746 639 808 q 310 585 410 683 q 204 463 253 528 q 156 376 156 397 q 175 360 156 360 q 315 456 218 360 q 479 660 411 551 l 526 522 q 153 239 321 239 q 67 273 101 239 q 32 358 32 307 q 253 690 32 489 q 739 926 511 926 q 842 897 804 926 q 879 818 879 868 q 683 325 879 690 l 794 325 q 857 413 833 376 q 838 468 838 443 q 858 524 838 503 q 913 544 879 544 q 959 526 940 544 q 978 479 978 508 q 976 457 978 465 l 1040 457 q 1125 393 1125 457 q 1104 319 1125 363 l 1019 146 q 1014 131 1014 138 q 1024 121 1014 121 q 1179 222 1049 121 l 1179 111 q 933 -14 1022 -14 q 864 53 864 -14 q 890 142 864 89 l 985 332 q 993 353 993 349 q 976 364 993 364 l 942 364 q 838 233 913 311 q 701 111 763 154 l 701 213 z "},"₤":{"ha":694,"x_min":-25,"x_max":690,"o":"m 411 392 l 544 392 l 511 313 l 382 313 l 364 264 l 492 264 l 458 185 l 331 185 q 276 99 308 143 q 350 93 321 93 q 597 121 443 93 l 563 11 q 339 -10 428 -10 q 196 17 250 -10 q 75 -14 131 -14 q -25 54 -25 -14 q 82 122 -25 122 q 167 113 128 122 q 217 185 197 154 l 107 185 l 138 264 l 253 264 l 272 313 l 160 313 l 190 392 l 301 392 q 369 558 338 496 q 583 728 456 728 q 658 695 626 728 q 690 619 690 663 q 647 456 690 567 l 521 429 l 539 468 q 586 597 586 568 q 561 628 586 628 q 411 392 492 628 z "},"₧":{"ha":788,"x_min":61,"x_max":792,"o":"m 629 308 l 625 308 q 393 179 514 179 q 328 240 328 179 q 350 289 328 274 q 406 308 361 296 q 583 494 526 343 q 622 701 622 599 q 549 821 622 821 q 417 689 488 821 q 265 311 350 567 q 239 125 261 224 q 190 -21 217 26 q 110 -83 156 -83 q 61 -21 61 -83 q 112 215 61 39 q 228 560 163 392 q 386 850 306 760 q 568 940 467 940 q 706 878 657 940 q 756 700 756 815 q 732 525 756 611 q 751 529 744 529 q 779 499 779 529 q 736 374 779 468 l 792 374 l 776 308 l 713 308 l 619 83 q 617 74 617 76 q 621 69 617 69 q 714 126 631 69 q 739 144 721 132 l 739 68 q 565 -8 621 -8 q 522 28 522 -8 q 531 63 522 40 l 543 96 q 493 60 532 89 l 492 136 q 601 239 550 179 l 629 308 z "},"€":{"ha":746,"x_min":96,"x_max":729,"o":"m 404 475 l 618 475 l 564 383 l 358 383 q 340 328 353 365 l 533 328 l 479 236 l 322 236 q 321 210 321 225 q 342 129 321 160 q 396 99 363 99 q 528 171 460 99 l 485 6 q 385 -14 431 -14 q 251 50 303 -14 q 199 214 199 114 l 199 236 l 96 236 l 150 328 l 213 328 q 228 383 218 360 l 135 383 l 189 475 l 265 475 q 410 660 325 593 q 588 726 496 726 q 729 664 671 726 l 653 532 q 575 610 640 610 q 404 475 492 610 z "},"℁":{"ha":1225,"x_min":82,"x_max":1201,"o":"m 172 371 l 82 371 q 164 532 104 424 q 88 522 146 531 l 111 600 q 203 613 138 606 q 585 926 404 926 q 651 876 651 926 q 642 825 651 860 l 540 461 q 549 426 549 443 q 493 371 549 371 q 439 426 439 371 q 446 464 439 442 q 260 538 382 540 q 172 371 238 503 m 468 550 l 546 815 q 553 840 550 828 q 549 847 553 847 q 463 796 528 847 q 300 610 382 733 q 468 550 394 600 m 932 713 l 554 0 l 486 0 l 857 713 l 932 713 m 985 324 l 999 406 q 1080 433 1044 413 q 1115 471 1115 453 q 1097 481 1115 481 q 978 440 1036 481 q 919 356 919 399 q 943 315 919 332 q 1051 264 967 299 q 1144 157 1144 225 q 1119 82 1144 118 q 1056 28 1094 46 q 869 -8 979 -8 q 690 90 690 -8 q 742 169 690 139 q 874 200 793 200 q 940 194 900 200 l 924 117 l 883 119 l 865 119 q 783 96 783 119 q 863 75 783 75 q 1050 146 1050 75 q 1019 185 1050 168 q 971 206 1014 189 q 881 256 917 228 q 832 346 832 293 q 915 491 832 426 q 1104 556 999 556 q 1201 479 1201 556 q 1128 372 1201 421 q 985 324 1060 328 z "},"ℓ":{"ha":694,"x_min":154,"x_max":626,"o":"m 379 367 q 339 88 339 154 q 364 51 339 51 q 429 125 393 51 q 458 150 442 150 q 478 128 478 150 q 450 54 478 100 q 335 -25 401 -25 q 235 107 235 -25 q 247 267 235 153 q 174 206 192 206 q 154 232 154 206 q 180 270 154 246 q 257 354 206 294 q 533 936 365 936 q 601 904 576 936 q 626 819 626 872 q 538 558 626 701 q 379 367 492 485 m 392 447 q 489 576 451 513 q 568 822 568 713 q 533 872 568 872 q 464 782 494 872 q 392 447 433 692 z "},"™":{"ha":1096,"x_min":128,"x_max":1269,"o":"m 390 354 l 274 354 q 496 803 379 500 q 410 788 438 794 q 263 743 378 779 q 246 735 246 738 q 333 685 246 725 l 271 624 q 128 739 128 679 q 228 816 128 782 q 528 883 329 850 q 593 926 551 926 q 643 885 643 926 q 603 828 643 851 q 390 354 465 469 m 604 363 l 488 363 q 715 703 600 464 q 813 888 789 854 q 875 921 838 921 q 928 871 928 921 q 908 761 928 857 l 874 589 l 1026 772 q 1147 897 1090 850 q 1215 926 1182 926 q 1269 890 1269 926 q 1208 756 1269 872 q 1099 524 1125 596 q 1075 386 1074 451 l 974 371 q 994 512 972 443 q 1076 699 1015 581 l 989 596 q 869 447 911 504 q 833 401 851 424 q 785 378 815 378 q 746 414 746 378 q 763 508 746 436 l 807 701 q 695 487 733 551 q 604 363 657 422 z "},"Ω":{"ha":925,"x_min":72,"x_max":926,"o":"m 75 0 l 75 103 l 321 103 q 72 507 72 247 q 197 820 72 692 q 499 949 321 949 q 802 820 678 949 q 926 506 926 692 q 678 103 926 249 l 924 103 l 924 0 l 561 0 l 561 96 q 706 210 651 144 q 808 488 808 333 q 719 742 808 638 q 500 846 629 846 q 280 742 369 846 q 190 488 190 639 q 438 96 190 231 l 438 0 l 75 0 z "},"⅓":{"ha":1032,"x_min":185,"x_max":972,"o":"m 249 501 l 260 582 q 394 668 336 613 q 461 732 418 732 q 507 690 507 732 q 472 629 507 663 q 294 278 396 453 l 185 278 l 213 321 q 328 529 274 415 q 249 501 296 515 m 781 713 l 401 0 l 333 0 l 706 713 l 781 713 m 739 292 l 679 332 q 864 444 767 444 q 942 419 913 444 q 972 351 972 393 q 892 233 972 281 q 924 161 924 197 q 863 42 924 93 q 719 -8 801 -8 q 586 110 586 -8 q 589 150 586 111 l 674 150 q 671 118 671 133 q 721 69 671 69 q 795 95 763 69 q 828 154 828 121 q 814 190 828 175 q 763 182 788 182 q 703 224 703 182 q 725 262 703 247 q 782 276 747 276 q 814 272 793 276 q 875 344 875 306 q 847 367 875 367 q 788 339 819 367 q 739 292 783 336 z "},"⅔":{"ha":1032,"x_min":76,"x_max":972,"o":"m 508 381 l 486 292 q 418 278 454 278 q 271 318 361 278 q 161 275 210 275 q 76 346 76 275 q 102 401 76 381 q 168 422 128 422 q 260 401 210 422 q 365 523 319 457 q 410 622 410 589 q 378 650 410 650 q 256 554 325 650 l 188 592 q 278 698 233 667 q 386 729 324 729 q 469 703 438 729 q 501 636 501 678 q 458 510 501 582 q 342 375 414 439 q 406 361 378 361 q 508 381 431 361 m 199 353 q 192 354 196 353 q 171 360 181 360 q 146 349 146 360 q 161 338 146 338 q 199 353 176 338 m 826 713 l 447 0 l 379 0 l 751 713 l 826 713 m 739 292 l 679 332 q 864 444 769 444 q 942 419 913 444 q 972 351 972 394 q 892 233 972 281 q 922 161 922 199 q 861 42 922 93 q 718 -8 800 -8 q 585 110 585 -8 q 589 150 585 121 l 672 150 q 669 118 669 119 q 719 69 669 69 q 794 95 761 69 q 826 154 826 121 q 814 190 826 174 q 763 182 786 182 q 703 224 703 182 q 725 262 703 247 q 782 276 747 276 q 814 272 793 276 q 875 344 875 308 q 847 367 875 367 q 807 354 825 367 q 739 292 789 342 z "},"⅕":{"ha":1032,"x_min":185,"x_max":994,"o":"m 249 501 l 260 582 q 394 668 336 613 q 461 732 418 732 q 507 690 507 732 q 472 629 507 663 q 294 278 396 453 l 185 278 l 213 321 q 328 529 274 415 q 249 501 296 515 m 781 713 l 401 0 l 333 0 l 706 713 l 781 713 m 674 281 l 729 400 q 786 439 747 439 l 994 439 l 968 357 l 826 357 q 794 343 800 357 l 790 333 l 782 315 q 819 318 815 318 q 906 287 871 318 q 940 208 940 256 q 863 59 940 126 q 692 -8 786 -8 q 604 32 631 -8 q 590 103 590 53 l 590 108 l 672 119 q 701 72 672 72 q 803 122 747 72 q 846 200 846 161 q 803 236 846 236 q 733 213 768 236 q 672 175 707 175 q 642 188 656 175 q 629 215 629 200 q 674 281 629 257 z "},"⅖":{"ha":1032,"x_min":76,"x_max":994,"o":"m 508 381 l 486 292 q 418 278 454 278 q 271 318 361 278 q 161 275 210 275 q 76 346 76 275 q 102 401 76 381 q 168 422 128 422 q 260 401 210 422 q 365 523 319 457 q 410 622 410 589 q 378 650 410 650 q 256 554 325 650 l 188 592 q 278 698 233 667 q 386 729 324 729 q 469 703 438 729 q 501 636 501 678 q 458 510 501 582 q 342 375 414 439 q 406 361 378 361 q 508 381 431 361 m 199 353 q 192 354 196 353 q 171 360 181 360 q 146 349 146 360 q 161 338 146 338 q 199 353 176 338 m 826 713 l 447 0 l 379 0 l 751 713 l 826 713 m 674 281 l 729 400 q 785 439 747 439 l 994 439 l 968 357 l 826 357 q 802 354 807 357 q 790 333 797 351 l 781 315 q 819 318 817 318 q 904 286 869 318 q 939 208 939 254 q 862 59 939 126 q 690 -8 785 -8 q 589 103 589 -8 l 589 108 l 671 119 q 701 72 672 72 q 801 122 747 72 q 844 201 844 163 q 801 236 844 236 q 733 213 769 236 q 671 175 704 175 q 641 188 654 175 q 628 217 628 201 q 674 281 628 257 z "},"⅗":{"ha":1032,"x_min":125,"x_max":994,"o":"m 278 578 l 218 617 q 403 729 306 729 q 481 704 451 729 q 511 636 511 679 q 431 518 511 568 q 463 447 463 485 q 402 327 463 378 q 258 276 342 276 q 125 394 125 276 q 128 435 125 396 l 213 435 q 210 403 210 401 q 260 354 210 354 q 334 380 301 354 q 367 439 367 406 q 353 476 367 461 q 301 467 322 467 q 242 508 242 467 q 265 547 242 532 q 322 561 288 561 q 354 558 339 561 q 414 629 414 593 q 388 651 414 651 q 345 639 364 651 q 278 578 326 626 m 779 713 l 401 0 l 333 0 l 706 713 l 779 713 m 674 281 l 729 400 q 785 439 747 439 l 994 439 l 968 357 l 826 357 q 794 343 800 357 l 790 333 l 781 315 q 818 318 814 318 q 904 287 869 318 q 939 208 939 256 q 862 59 939 126 q 690 -8 785 -8 q 589 103 589 -8 l 589 108 l 671 119 q 701 72 672 72 q 796 116 747 72 q 844 200 844 160 q 801 236 844 236 q 733 213 768 236 q 671 175 707 175 q 641 188 654 175 q 628 217 628 201 q 674 281 628 257 z "},"⅘":{"ha":1032,"x_min":97,"x_max":994,"o":"m 506 461 l 471 381 l 379 381 q 326 257 349 310 l 233 257 q 286 386 257 331 q 213 393 263 388 q 138 349 176 349 q 97 389 97 349 q 163 458 97 432 q 296 725 240 553 l 397 725 l 385 697 q 329 581 367 658 q 265 468 300 519 q 329 463 292 464 q 414 618 357 518 q 472 664 440 664 q 507 638 507 664 q 492 600 507 628 q 438 499 465 553 q 417 460 432 488 q 453 458 432 458 q 506 461 482 458 m 779 713 l 400 0 l 333 0 l 704 713 l 779 713 m 672 281 l 729 400 q 785 439 747 439 l 994 439 l 968 357 l 825 357 q 794 343 800 357 l 790 333 l 781 315 q 818 318 814 318 q 904 287 869 318 q 939 208 939 256 q 862 59 939 126 q 690 -8 785 -8 q 594 53 614 -8 q 589 108 589 65 l 671 119 q 701 72 672 72 q 801 122 747 72 q 844 200 844 163 q 801 236 844 236 q 732 213 769 236 q 671 175 706 175 q 641 188 654 175 q 628 217 628 201 q 672 281 628 257 z "},"⅙":{"ha":1032,"x_min":185,"x_max":951,"o":"m 249 501 l 260 582 q 394 668 336 613 q 461 732 418 732 q 507 690 507 732 q 472 629 507 663 q 294 278 396 453 l 185 278 l 213 321 q 328 529 274 415 q 249 501 296 515 m 781 713 l 401 0 l 333 0 l 706 713 l 781 713 m 915 482 q 939 465 926 481 q 951 436 951 450 q 918 403 951 425 q 732 222 793 322 q 690 117 690 154 q 736 72 690 72 q 816 116 772 72 q 860 196 860 160 q 843 217 860 217 q 818 206 835 217 q 785 194 801 194 q 751 226 751 194 q 784 274 751 253 q 856 296 817 296 q 950 199 950 296 q 883 55 950 118 q 732 -8 817 -8 q 638 26 675 -8 q 600 111 600 60 q 696 319 600 208 q 818 432 747 379 q 915 482 889 485 z "},"⅚":{"ha":1032,"x_min":129,"x_max":951,"o":"m 213 565 l 269 685 q 325 724 288 724 l 535 724 l 508 642 l 365 642 q 342 639 347 642 q 331 618 338 636 l 321 600 q 358 603 354 603 q 444 572 410 603 q 479 493 479 540 q 402 344 479 411 q 231 278 325 278 q 129 393 129 278 l 211 404 q 242 358 214 358 q 342 408 286 358 q 385 486 385 447 q 342 521 385 521 q 272 499 310 521 q 211 460 247 460 q 181 472 194 460 q 168 501 168 485 q 213 565 168 540 m 781 713 l 401 0 l 333 0 l 706 713 l 781 713 m 915 482 q 939 465 926 481 q 951 436 951 450 q 918 403 951 425 q 759 260 824 342 q 692 117 694 178 q 704 85 690 99 q 738 72 718 72 q 817 116 774 72 q 860 197 860 160 q 843 217 860 217 q 818 206 835 217 q 785 194 801 194 q 751 226 751 194 q 784 274 751 253 q 856 296 817 296 q 950 199 950 296 q 883 55 950 118 q 732 -8 817 -8 q 638 26 676 -8 q 600 113 600 61 q 696 319 600 210 q 818 432 747 379 q 915 482 889 485 z "},"⅛":{"ha":1032,"x_min":185,"x_max":981,"o":"m 249 501 l 260 582 q 394 668 336 613 q 461 732 418 732 q 507 690 507 732 q 472 629 507 663 q 294 278 396 453 l 185 278 l 213 321 q 328 529 274 415 q 249 501 296 515 m 781 713 l 401 0 l 333 0 l 706 713 l 781 713 m 981 371 l 981 281 l 861 213 q 900 125 900 176 q 849 30 900 68 q 722 -8 799 -8 q 623 18 663 -8 q 583 85 583 44 q 686 204 583 144 l 719 224 q 674 315 674 265 q 737 411 674 375 q 903 447 800 447 q 972 410 972 447 q 919 375 972 375 q 808 358 854 374 q 763 318 763 342 q 800 269 763 296 l 981 371 m 781 167 l 717 129 q 675 92 675 104 q 724 72 675 72 q 782 87 757 72 q 807 121 807 101 q 781 167 807 147 z "},"⅜":{"ha":1032,"x_min":125,"x_max":981,"o":"m 278 578 l 218 617 q 403 729 306 729 q 481 704 451 729 q 511 636 511 679 q 431 518 511 568 q 463 447 463 485 q 402 327 463 378 q 258 276 342 276 q 125 394 125 276 q 128 435 125 396 l 213 435 q 210 403 210 401 q 260 354 210 354 q 334 380 301 354 q 367 439 367 406 q 353 476 367 461 q 301 467 322 467 q 242 508 242 467 q 265 547 242 532 q 322 561 288 561 q 354 558 339 561 q 414 629 414 593 q 388 651 414 651 q 345 639 364 651 q 278 578 326 626 m 779 713 l 401 0 l 333 0 l 706 713 l 779 713 m 981 371 l 981 281 l 861 213 q 900 125 900 176 q 849 30 900 68 q 722 -8 799 -8 q 623 18 663 -8 q 583 85 583 44 q 686 204 583 144 l 719 224 q 674 315 674 265 q 737 411 674 375 q 903 447 800 447 q 972 410 972 447 q 919 375 972 375 q 808 358 854 374 q 763 318 763 342 q 800 269 763 296 l 981 371 m 781 167 l 717 129 q 675 92 675 104 q 724 72 675 72 q 782 87 757 72 q 807 121 807 101 q 781 167 807 144 z "},"⅝":{"ha":1032,"x_min":129,"x_max":981,"o":"m 213 565 l 269 685 q 325 724 288 724 l 535 724 l 508 642 l 365 642 q 342 639 347 642 q 331 618 338 636 l 321 600 q 358 603 354 603 q 444 572 410 603 q 479 493 479 540 q 402 344 479 411 q 231 278 325 278 q 129 393 129 278 l 211 404 q 242 358 214 358 q 342 408 286 358 q 385 486 385 447 q 342 521 385 521 q 272 499 310 521 q 211 460 247 460 q 181 472 194 460 q 168 501 168 485 q 213 565 168 540 m 781 713 l 401 0 l 333 0 l 706 713 l 781 713 m 981 371 l 981 281 l 861 213 q 900 126 900 176 q 849 30 900 68 q 722 -8 799 -8 q 623 18 663 -8 q 583 85 583 44 q 686 204 583 144 l 719 224 q 674 315 674 265 q 737 411 674 375 q 903 447 800 447 q 972 410 972 447 q 919 375 972 375 q 808 358 854 374 q 763 318 763 342 q 800 269 763 296 l 981 371 m 781 167 l 717 129 q 675 92 675 104 q 724 72 675 72 q 782 87 757 72 q 807 121 807 101 q 781 167 807 144 z "},"⅞":{"ha":1032,"x_min":185,"x_max":981,"o":"m 232 679 l 240 703 q 260 731 247 724 q 310 742 278 742 q 331 724 329 742 q 369 726 349 726 q 388 724 369 726 q 447 719 407 721 l 488 718 q 522 721 500 718 q 554 724 544 724 q 571 706 571 724 q 553 678 571 696 q 396 422 503 626 q 316 279 336 307 q 275 251 296 251 q 238 265 257 251 q 219 292 219 279 q 251 351 219 306 q 326 481 272 381 q 424 642 378 575 q 361 646 382 646 q 303 636 332 646 q 297 624 297 625 q 222 557 261 557 q 185 599 185 557 q 232 679 185 632 m 781 713 l 401 0 l 333 0 l 706 713 l 781 713 m 981 371 l 981 281 l 861 213 q 900 125 900 176 q 849 30 900 68 q 722 -8 799 -8 q 623 18 663 -8 q 583 85 583 44 q 686 204 583 144 l 719 224 q 674 315 674 265 q 737 411 674 375 q 903 447 800 447 q 972 410 972 447 q 919 375 972 375 q 808 358 854 374 q 763 318 763 342 q 800 269 763 296 l 981 371 m 781 167 l 717 129 q 675 92 675 104 q 724 72 675 72 q 782 87 757 72 q 807 121 807 101 q 781 167 807 147 z "},"←":{"ha":926,"x_min":56,"x_max":944,"o":"m 944 504 l 944 433 l 250 433 q 297 356 271 407 q 322 289 322 304 q 301 269 322 269 q 269 293 289 269 q 88 436 201 372 q 56 465 56 454 q 78 492 56 478 q 188 563 157 539 q 282 654 232 597 q 301 665 292 665 q 322 644 322 665 q 250 504 322 604 l 944 504 z "},"↑":{"ha":926,"x_min":303,"x_max":699,"o":"m 538 18 l 467 18 l 467 713 q 390 667 442 693 q 322 640 338 640 q 303 661 303 640 q 326 693 303 674 q 469 876 400 756 q 499 908 488 908 q 525 885 511 908 q 596 774 571 807 q 688 681 629 732 q 699 661 699 671 q 678 640 699 640 q 538 713 638 640 l 538 18 z "},"→":{"ha":926,"x_min":56,"x_max":944,"o":"m 56 431 l 56 501 l 750 501 q 703 579 729 528 q 678 646 678 631 q 699 665 678 665 q 731 642 711 665 q 913 499 799 563 q 944 469 944 481 q 922 443 944 457 q 813 372 843 396 q 718 281 768 338 q 699 269 708 269 q 678 290 678 269 q 750 431 678 331 l 56 431 z "},"↓":{"ha":926,"x_min":303,"x_max":699,"o":"m 464 907 l 535 907 l 535 213 q 613 260 561 235 q 679 285 664 285 q 699 264 699 285 q 675 232 699 251 q 532 50 597 167 q 503 18 514 18 q 476 40 489 18 q 314 244 399 171 q 303 264 303 254 q 324 285 303 285 q 464 213 364 285 l 464 907 z "},"↔":{"ha":926,"x_min":56,"x_max":944,"o":"m 750 431 l 249 431 q 322 290 322 332 q 301 269 322 269 q 268 296 292 269 q 69 449 204 369 q 56 469 56 457 q 85 496 56 479 l 88 497 q 271 642 207 565 q 301 665 290 665 q 322 646 322 665 q 297 580 322 631 q 249 501 271 529 l 750 501 q 703 579 729 528 q 678 646 678 631 q 699 665 678 665 q 731 642 711 665 q 913 499 799 563 q 944 469 944 481 q 922 443 944 457 q 813 372 843 396 q 718 281 768 338 q 699 269 708 269 q 678 290 678 269 q 750 431 678 331 z "},"↕":{"ha":926,"x_min":303,"x_max":699,"o":"m 538 713 l 538 211 q 678 286 635 286 q 699 265 699 286 q 672 232 699 254 q 519 32 601 171 q 499 18 511 18 q 471 50 489 18 q 326 233 407 164 q 303 265 303 254 q 322 286 303 286 q 389 260 338 286 q 467 211 440 233 l 467 713 q 388 666 439 692 q 322 640 338 640 q 303 661 303 640 q 326 693 303 674 q 469 876 403 758 q 499 908 488 908 q 525 885 511 908 q 596 774 571 807 q 688 681 629 731 q 699 661 699 671 q 678 640 699 640 q 538 713 638 640 z "},"↨":{"ha":926,"x_min":303,"x_max":699,"o":"m 538 713 l 538 211 q 678 286 635 286 q 699 265 699 286 q 672 232 699 254 q 519 32 601 171 q 499 18 511 18 q 471 50 489 18 q 326 233 407 164 q 303 265 303 254 q 322 286 303 286 q 389 260 338 286 q 467 211 440 233 l 467 713 q 388 666 439 692 q 322 640 338 640 q 303 661 303 640 q 326 693 303 672 q 474 882 406 763 q 499 908 489 908 q 525 885 511 908 q 596 774 571 807 q 688 681 629 732 q 699 661 699 671 q 678 640 699 640 q 538 713 638 640 m 317 -94 l 683 -94 l 683 -154 l 317 -154 l 317 -94 z "},"∂":{"ha":694,"x_min":81,"x_max":689,"o":"m 151 838 l 165 931 q 511 785 388 901 q 689 336 689 617 q 633 119 689 204 q 386 -15 544 -15 q 169 76 258 -15 q 81 297 81 167 q 164 515 81 425 q 367 604 247 604 q 510 564 456 604 q 568 504 525 553 q 557 528 560 521 q 522 607 536 578 q 378 761 476 700 q 151 838 279 822 m 393 515 q 244 452 304 515 q 185 294 185 389 q 244 142 185 206 q 383 78 303 78 q 525 142 468 78 q 582 301 582 206 q 528 454 582 393 q 393 515 474 515 z "},"∅":{"ha":858,"x_min":129,"x_max":803,"o":"m 646 926 l 713 892 l 646 769 q 803 486 803 661 q 703 247 803 344 q 458 149 603 149 q 349 171 394 149 l 261 0 l 194 35 l 279 204 q 129 485 129 315 q 228 724 129 625 q 468 822 326 822 q 581 803 522 822 l 646 926 m 614 697 l 385 239 q 465 228 429 228 q 649 303 572 228 q 725 485 725 379 q 695 608 725 550 q 614 697 665 667 m 314 275 l 544 732 q 469 743 506 743 q 284 667 361 743 q 207 486 207 592 q 314 275 207 361 z "},"∏":{"ha":926,"x_min":74,"x_max":928,"o":"m 74 1042 l 928 1042 l 928 946 l 825 946 l 825 -251 l 928 -251 l 928 -347 l 615 -347 l 615 -251 l 719 -251 l 719 946 l 282 946 l 282 -251 l 383 -251 l 383 -347 l 74 -347 l 74 -251 l 176 -251 l 176 946 l 74 946 l 74 1042 z "},"∑":{"ha":926,"x_min":85,"x_max":883,"o":"m 871 1042 l 871 719 l 764 719 l 753 933 l 215 933 l 560 374 l 215 -240 l 765 -240 l 772 -24 l 883 -24 l 883 -347 l 85 -347 l 85 -224 l 422 374 l 85 919 l 85 1042 l 871 1042 z "},"−":{"ha":694,"x_min":90,"x_max":647,"o":"m 126 413 l 647 413 l 610 313 l 90 313 l 126 413 z "},"∙":{"ha":336,"x_min":65,"x_max":239,"o":"m 164 321 q 239 243 239 321 q 210 171 239 200 q 142 142 182 142 q 65 222 65 142 q 94 292 65 264 q 164 321 122 321 z "},"√":{"ha":926,"x_min":38,"x_max":964,"o":"m 964 1149 l 964 1050 l 700 1050 l 393 0 l 264 0 l 150 401 l 38 401 l 38 500 l 219 500 l 275 311 q 282 286 278 303 l 319 122 l 325 122 q 332 151 332 147 q 378 331 347 211 l 392 388 l 458 611 l 614 1149 l 964 1149 z "},"∞":{"ha":926,"x_min":63,"x_max":936,"o":"m 501 415 q 269 263 394 263 q 120 322 178 263 q 63 475 63 381 q 122 624 63 565 q 271 683 181 683 q 499 531 396 683 q 731 683 600 683 q 878 624 821 683 q 936 471 936 564 q 878 320 936 379 q 731 261 821 261 q 501 415 603 261 m 542 472 q 722 338 631 338 q 813 376 776 338 q 849 472 849 414 q 813 569 849 531 q 721 607 776 607 q 631 577 671 607 q 542 472 592 547 m 457 472 q 449 485 457 472 q 276 607 369 607 q 186 569 222 607 q 150 472 150 531 q 187 377 150 415 q 279 339 224 339 q 367 368 328 339 q 457 472 407 397 z "},"∩":{"ha":782,"x_min":85,"x_max":771,"o":"m 771 0 l 654 0 l 654 439 q 651 582 654 550 q 616 720 644 675 q 536 793 588 765 q 428 821 485 821 q 311 790 365 821 q 232 707 257 758 q 201 439 201 644 l 201 0 l 85 0 l 85 435 q 88 618 85 583 q 144 789 99 725 q 428 926 243 926 q 603 884 524 926 q 726 765 682 842 q 768 604 760 707 q 771 435 771 569 l 771 0 z "},"∪":{"ha":782,"x_min":85,"x_max":771,"o":"m 85 926 l 201 926 l 201 488 q 204 344 201 376 q 240 206 211 251 q 319 133 268 161 q 428 106 371 106 q 544 137 490 106 q 624 219 599 168 q 654 488 654 282 l 654 926 l 771 926 l 771 492 q 768 308 771 343 q 711 138 757 201 q 428 0 613 0 q 253 42 332 0 q 129 161 174 85 q 88 322 96 219 q 85 492 85 357 l 85 926 z "},"∫":{"ha":694,"x_min":164,"x_max":606,"o":"m 164 -332 l 188 -222 q 243 -237 219 -237 q 315 -189 299 -237 q 322 -61 322 -169 l 322 736 q 335 926 322 885 q 399 1010 350 979 q 514 1042 447 1042 q 606 1028 554 1042 l 582 918 q 526 932 553 932 q 454 885 469 932 q 447 790 447 864 l 447 -39 q 442 -200 447 -161 q 414 -271 436 -239 q 229 -344 363 -344 q 164 -332 196 -344 z "},"∮":{"ha":694,"x_min":131,"x_max":639,"o":"m 163 -332 l 186 -222 q 247 -237 222 -237 q 319 -187 303 -237 q 326 -93 326 -164 l 326 118 q 188 201 244 131 q 131 360 131 271 q 185 516 131 450 q 326 600 239 582 l 326 800 q 354 963 326 914 q 507 1042 400 1042 q 604 1028 549 1042 l 581 918 q 518 932 547 932 q 447 885 463 932 q 440 797 440 864 l 440 600 q 544 556 504 588 q 639 360 639 482 q 583 201 639 269 q 440 118 526 132 l 440 -97 q 414 -265 440 -218 q 251 -347 368 -347 q 163 -332 200 -347 m 440 540 l 440 179 q 542 242 504 193 q 579 360 579 290 q 540 477 579 426 q 440 540 501 528 m 326 179 l 326 540 q 228 477 267 528 q 190 360 190 426 q 230 242 190 294 q 326 179 269 190 z "},"≈":{"ha":694,"x_min":51,"x_max":718,"o":"m 115 483 l 51 528 q 243 689 125 689 q 403 635 294 689 q 529 590 492 590 q 592 610 565 590 q 653 685 618 629 l 718 640 q 515 481 646 481 q 350 542 474 481 q 236 578 278 578 q 115 483 176 578 m 115 238 l 51 282 q 243 443 125 443 q 403 389 294 443 q 529 344 492 344 q 592 364 565 344 q 653 439 618 383 l 718 394 q 515 235 646 235 q 350 296 474 235 q 236 332 278 332 q 115 238 176 332 z "},"≠":{"ha":694,"x_min":57,"x_max":681,"o":"m 300 321 l 353 406 l 125 406 l 161 506 l 414 506 l 531 693 l 608 650 l 518 506 l 681 506 l 644 406 l 457 406 l 404 321 l 614 321 l 576 221 l 342 221 l 228 38 l 150 81 l 238 221 l 57 221 l 93 321 l 300 321 z "},"≡":{"ha":694,"x_min":83,"x_max":685,"o":"m 83 751 l 685 751 l 685 643 l 83 643 l 83 751 m 83 517 l 685 517 l 685 408 l 83 408 l 83 517 m 83 282 l 685 282 l 685 174 l 83 174 l 83 282 z "},"≤":{"ha":694,"x_min":83,"x_max":685,"o":"m 685 835 l 685 719 l 218 540 l 685 361 l 685 246 l 83 488 l 83 593 l 685 835 m 685 206 l 685 97 l 83 97 l 83 206 l 685 206 z "},"≥":{"ha":694,"x_min":83,"x_max":685,"o":"m 83 246 l 83 361 l 550 540 l 83 719 l 83 835 l 685 593 l 685 488 l 83 246 m 83 97 l 83 206 l 685 206 l 685 97 l 83 97 z "},"⌂":{"ha":1043,"x_min":154,"x_max":964,"o":"m 154 0 l 154 557 l 558 1013 l 964 557 l 964 0 l 154 0 m 225 71 l 893 71 l 893 526 l 558 901 l 225 526 l 225 71 z "},"⌙":{"ha":694,"x_min":83,"x_max":685,"o":"m 203 388 l 203 108 l 685 108 l 685 0 l 83 0 l 83 388 l 203 388 z "},"⌠":{"ha":694,"x_min":322,"x_max":606,"o":"m 447 -347 l 322 -347 l 322 736 q 335 926 322 885 q 399 1010 350 979 q 514 1042 447 1042 q 606 1028 554 1042 l 582 918 q 526 932 553 932 q 454 885 469 932 q 447 790 447 864 l 447 -347 z "},"⌡":{"ha":694,"x_min":163,"x_max":446,"o":"m 321 1042 l 446 1042 l 446 -42 q 433 -232 446 -189 q 370 -316 418 -285 q 256 -347 322 -347 q 163 -332 214 -347 l 186 -222 q 242 -237 218 -237 q 314 -190 299 -237 q 321 -96 321 -169 l 321 1042 z "},"─":{"ha":1389,"x_min":38,"x_max":1426,"o":"m 38 301 l 38 393 l 1426 393 l 1426 301 l 38 301 z "},"│":{"ha":1389,"x_min":686,"x_max":778,"o":"m 686 -347 l 686 1042 l 778 1042 l 778 -347 l 686 -347 z "},"┌":{"ha":1389,"x_min":686,"x_max":1426,"o":"m 1426 393 l 1426 301 l 778 301 l 778 -347 l 686 -347 l 686 393 l 1426 393 z "},"┐":{"ha":1389,"x_min":38,"x_max":778,"o":"m 686 301 l 38 301 l 38 393 l 778 393 l 778 -347 l 686 -347 l 686 301 z "},"└":{"ha":1389,"x_min":686,"x_max":1426,"o":"m 778 393 l 1426 393 l 1426 301 l 686 301 l 686 1042 l 778 1042 l 778 393 z "},"┘":{"ha":1389,"x_min":38,"x_max":778,"o":"m 38 301 l 38 393 l 686 393 l 686 1042 l 778 1042 l 778 301 l 38 301 z "},"├":{"ha":1389,"x_min":686,"x_max":1426,"o":"m 778 393 l 1426 393 l 1426 301 l 778 301 l 778 -347 l 686 -347 l 686 1042 l 778 1042 l 778 393 z "},"┤":{"ha":1389,"x_min":38,"x_max":778,"o":"m 686 301 l 38 301 l 38 393 l 686 393 l 686 1042 l 778 1042 l 778 -347 l 686 -347 l 686 301 z "},"┬":{"ha":1389,"x_min":38,"x_max":1426,"o":"m 778 301 l 778 -347 l 686 -347 l 686 301 l 38 301 l 38 393 l 1426 393 l 1426 301 l 778 301 z "},"┴":{"ha":1389,"x_min":38,"x_max":1426,"o":"m 686 393 l 686 1042 l 778 1042 l 778 393 l 1426 393 l 1426 301 l 38 301 l 38 393 l 686 393 z "},"┼":{"ha":1389,"x_min":38,"x_max":1426,"o":"m 686 301 l 38 301 l 38 393 l 686 393 l 686 1042 l 778 1042 l 778 393 l 1426 393 l 1426 301 l 778 301 l 778 -347 l 686 -347 l 686 301 z "},"═":{"ha":1389,"x_min":38,"x_max":1426,"o":"m 38 210 l 38 301 l 1426 301 l 1426 210 l 38 210 m 38 393 l 38 485 l 1426 485 l 1426 393 l 38 393 z "},"║":{"ha":1389,"x_min":594,"x_max":869,"o":"m 594 -347 l 594 1042 l 686 1042 l 686 -347 l 594 -347 m 778 -347 l 778 1042 l 869 1042 l 869 -347 l 778 -347 z "},"╒":{"ha":1389,"x_min":686,"x_max":1426,"o":"m 686 -347 l 686 485 l 1426 485 l 1426 393 l 778 393 l 778 301 l 1426 301 l 1426 210 l 778 210 l 778 -347 l 686 -347 z "},"╓":{"ha":1389,"x_min":594,"x_max":1426,"o":"m 778 301 l 686 301 l 686 -347 l 594 -347 l 594 393 l 1426 393 l 1426 301 l 869 301 l 869 -347 l 778 -347 l 778 301 z "},"╔":{"ha":1389,"x_min":594,"x_max":1426,"o":"m 686 393 l 686 -347 l 594 -347 l 594 485 l 1426 485 l 1426 393 l 686 393 m 869 210 l 869 -347 l 778 -347 l 778 301 l 1426 301 l 1426 210 l 869 210 z "},"╕":{"ha":1389,"x_min":38,"x_max":778,"o":"m 686 210 l 38 210 l 38 301 l 686 301 l 686 393 l 38 393 l 38 485 l 778 485 l 778 -347 l 686 -347 l 686 210 z "},"╖":{"ha":1389,"x_min":38,"x_max":869,"o":"m 686 301 l 686 -347 l 594 -347 l 594 301 l 38 301 l 38 393 l 869 393 l 869 -347 l 778 -347 l 778 301 l 686 301 z "},"╗":{"ha":1389,"x_min":38,"x_max":869,"o":"m 778 393 l 38 393 l 38 485 l 869 485 l 869 -347 l 778 -347 l 778 393 m 594 210 l 38 210 l 38 301 l 686 301 l 686 -347 l 594 -347 l 594 210 z "},"╘":{"ha":1389,"x_min":686,"x_max":1426,"o":"m 686 1042 l 778 1042 l 778 485 l 1426 485 l 1426 393 l 778 393 l 778 301 l 1426 301 l 1426 210 l 686 210 l 686 1042 z "},"╙":{"ha":1389,"x_min":594,"x_max":1426,"o":"m 778 393 l 778 1042 l 869 1042 l 869 393 l 1426 393 l 1426 301 l 594 301 l 594 1042 l 686 1042 l 686 393 l 778 393 z "},"╚":{"ha":1389,"x_min":594,"x_max":1426,"o":"m 686 301 l 1426 301 l 1426 210 l 594 210 l 594 1042 l 686 1042 l 686 301 m 869 485 l 1426 485 l 1426 393 l 778 393 l 778 1042 l 869 1042 l 869 485 z "},"╛":{"ha":1389,"x_min":38,"x_max":778,"o":"m 686 485 l 686 1042 l 778 1042 l 778 210 l 38 210 l 38 301 l 686 301 l 686 393 l 38 393 l 38 485 l 686 485 z "},"╜":{"ha":1389,"x_min":38,"x_max":869,"o":"m 686 393 l 778 393 l 778 1042 l 869 1042 l 869 301 l 38 301 l 38 393 l 594 393 l 594 1042 l 686 1042 l 686 393 z "},"╝":{"ha":1389,"x_min":38,"x_max":869,"o":"m 778 301 l 778 1042 l 869 1042 l 869 210 l 38 210 l 38 301 l 778 301 m 594 485 l 594 1042 l 686 1042 l 686 393 l 38 393 l 38 485 l 594 485 z "},"╞":{"ha":1389,"x_min":686,"x_max":1426,"o":"m 686 1042 l 778 1042 l 778 485 l 1426 485 l 1426 393 l 778 393 l 778 301 l 1426 301 l 1426 210 l 778 210 l 778 -347 l 686 -347 l 686 1042 z "},"╟":{"ha":1389,"x_min":594,"x_max":1426,"o":"m 869 301 l 869 -347 l 778 -347 l 778 1042 l 869 1042 l 869 393 l 1426 393 l 1426 301 l 869 301 m 686 -347 l 594 -347 l 594 1042 l 686 1042 l 686 -347 z "},"╠":{"ha":1389,"x_min":594,"x_max":1426,"o":"m 594 -347 l 594 1042 l 686 1042 l 686 -347 l 594 -347 m 869 485 l 1426 485 l 1426 393 l 778 393 l 778 1042 l 869 1042 l 869 485 m 869 210 l 869 -347 l 778 -347 l 778 301 l 1426 301 l 1426 210 l 869 210 z "},"╡":{"ha":1389,"x_min":38,"x_max":778,"o":"m 686 485 l 686 1042 l 778 1042 l 778 -347 l 686 -347 l 686 210 l 38 210 l 38 301 l 686 301 l 686 393 l 38 393 l 38 485 l 686 485 z "},"╢":{"ha":1389,"x_min":38,"x_max":869,"o":"m 594 301 l 38 301 l 38 393 l 594 393 l 594 1042 l 686 1042 l 686 -347 l 594 -347 l 594 301 m 778 -347 l 778 1042 l 869 1042 l 869 -347 l 778 -347 z "},"╣":{"ha":1389,"x_min":38,"x_max":869,"o":"m 869 -347 l 778 -347 l 778 1042 l 869 1042 l 869 -347 m 594 485 l 594 1042 l 686 1042 l 686 393 l 38 393 l 38 485 l 594 485 m 594 210 l 38 210 l 38 301 l 686 301 l 686 -347 l 594 -347 l 594 210 z "},"╤":{"ha":1389,"x_min":38,"x_max":1426,"o":"m 38 485 l 1426 485 l 1426 393 l 38 393 l 38 485 m 686 210 l 38 210 l 38 301 l 1426 301 l 1426 210 l 778 210 l 778 -347 l 686 -347 l 686 210 z "},"╥":{"ha":1389,"x_min":38,"x_max":1426,"o":"m 594 301 l 38 301 l 38 393 l 1426 393 l 1426 301 l 869 301 l 869 -347 l 778 -347 l 778 301 l 686 301 l 686 -347 l 594 -347 l 594 301 z "},"╦":{"ha":1389,"x_min":38,"x_max":1426,"o":"m 38 485 l 1426 485 l 1426 393 l 38 393 l 38 485 m 869 210 l 869 -347 l 778 -347 l 778 301 l 1426 301 l 1426 210 l 869 210 m 594 210 l 38 210 l 38 301 l 686 301 l 686 -347 l 594 -347 l 594 210 z "}}}
